<svg width="34" height="22" xmlns="http://www.w3.org/2000/svg"><path d="m16.777 1.542-1.086.002c-.233 0-.372.112-.377.291-.005.188.136.301.38.3h2.115c.166-.001.328.016.486.07.576.192.913.694.913 1.37a6807.6 6807.6 0 0 1 0 9.9c0 .33.032.653.182.951.385.766 1.017 1.111 1.856 1.11 1.851-.003 3.702 0 5.553 0h5.748c.304 0 .45-.094.453-.293.002-.2-.139-.296-.445-.296h-11.3c-.929 0-1.469-.558-1.461-1.496 0-.128.031-.192.164-.215.187-.03.373-.08.559-.123 3.475-.8 6.95-1.596 10.423-2.395.29-.067.341-.133.341-.441v-5.39c0-.32-.081-.403-.395-.403h-3.061c-2.609 0-5.215-.003-7.822.002-.162 0-.22-.039-.214-.208a9.122 9.122 0 0 0-.004-.877c-.066-1.076-.858-1.841-1.922-1.855a79.389 79.389 0 0 0-1.086-.004zm3.248 3.524c1.737.006 3.478.004 5.216.004 1.744 0 3.488.003 5.233-.004.187-.001.227.056.227.234-.007 1.55-.007 3.102 0 4.651 0 .16-.035.227-.201.265-3.501.8-7.003 1.606-10.501 2.415-.166.038-.21.006-.21-.172.006-2.39.007-4.779 0-7.167-.001-.194.064-.226.236-.226zm2.782 11.119a2.13 2.13 0 0 0-2.115 2.13c-.003 1.175.968 2.152 2.128 2.143 1.163-.009 2.106-.972 2.101-2.147a2.115 2.115 0 0 0-2.114-2.126zm7.354.002a2.126 2.126 0 0 0-2.116 2.128c-.003 1.176.965 2.152 2.127 2.143a2.133 2.133 0 0 0 2.103-2.145 2.114 2.114 0 0 0-2.114-2.126zm-7.354.586c.846 0 1.538.701 1.533 1.55a1.544 1.544 0 0 1-1.522 1.54 1.547 1.547 0 0 1-1.541-1.54 1.54 1.54 0 0 1 1.53-1.55zm7.345.003h.002a1.545 1.545 0 0 1 .026 3.09 1.547 1.547 0 0 1-1.55-1.534 1.54 1.54 0 0 1 1.522-1.556z" class="icon_cart" style="stroke-width:.357449"/><path style="fill:#000;stroke:#000;stroke-width:.536172;stroke-linecap:round;stroke-linejoin:round;stroke-miterlimit:4;stroke-dasharray:none;stroke-opacity:1" d="M1.268 7.18H16.27" class="line_1"/><path style="fill:#000;stroke:#000;stroke-width:.536172;stroke-linecap:round;stroke-linejoin:round;stroke-miterlimit:4;stroke-dasharray:none;stroke-opacity:1" d="M5.939 10.208h10.33" class="line_2"/><path d="M11.365 13.236h4.905" class="line_3" style="fill:#000;stroke:#000;stroke-width:.536172;stroke-linecap:round;stroke-linejoin:round;stroke-miterlimit:4;stroke-dasharray:none;stroke-opacity:1"/></svg>