<svg width="192" height="384" fill="none" xmlns="http://www.w3.org/2000/svg"><g clip-path="url(#a)"><path d="M96.021 383.992H6.796c-5.953 0-6.78-.846-6.788-6.848 0-18.734-.016-37.468 0-56.201 0-5.301 1.097-6.349 6.442-6.375 3.786-.016 7.58-.084 11.366.026 1.847.051 2.496-.626 2.403-2.443-.11-2.249-.075-4.506 0-6.755.304-8.107 5.456-14.921 13.28-17.068 2.766-.761 4.579-2.173 6.223-4.439 14.258-19.604 23.61-40.899 22.437-65.745-.852-18.041-7.057-34.602-14.663-50.715-7.74-16.392-16.821-32.133-23.609-48.982-5.236-12.985-9.266-26.266-8.845-40.51C16.147 40.197 45.548 6.771 82.716 1.014c43.955-6.806 84.048 21.261 92.91 65.01 3.212 15.876.278 31.05-5.068 45.972-5.228 14.608-12.487 28.261-19.469 42.049-7.622 15.065-14.933 30.257-18.828 46.826-6.577 27.974.152 53.201 15.666 76.626 1.088 1.64 2.251 3.23 3.331 4.878 2.032 3.111 4.426 5.225 8.322 6.324 7.757 2.189 12.167 9.358 12.251 18.201.076 7.667.076 7.701 7.715 7.659 13.289-.068 12.471-.896 12.437 12.647-.042 16.477 0 32.962-.008 49.438 0 6.62-.692 7.338-7.142 7.338H96.03l-.009.009Zm53.458-244.96c-1.282-.659-2.184-.11-3.112.093-9.612 2.088-19.654-2.071-23.769-10.947-5.185-11.193-12.42-21.017-19.224-31.127-5.186-7.702-10.793-15.108-17.64-21.457-2.69-2.493-5.548-4.784-9.08-5.96-1.46-.481-3.348-.955-4.427.136-1.02 1.023.067 2.663.624 3.855 3.836 8.285 7.79 16.519 11.686 24.778 8.626 18.311 14.874 37.315 16.501 57.647 2.437 30.561-5.615 58.484-21.063 84.556-5.657 9.544-12.226 18.437-19.173 27.136.615.415.927.77 1.306.863 22.505 5.74 44.908 5.537 67.252-1.049 3.036-.896 2.311-2.198 1.4-4.201-8.002-17.736-10.953-36.208-8.027-55.567 2.791-18.481 10.068-35.329 18.28-51.856 2.808-5.639 5.649-11.252 8.482-16.9h-.016ZM96.105 322.87c-27.909 0-55.826.059-83.736-.076-3.33-.017-4.215.905-4.182 4.219.177 14.921.16 29.85.009 44.78-.034 3.052.674 4.1 3.92 4.091 55.962-.101 111.932-.093 167.894-.008 2.976 0 3.769-.922 3.744-3.83-.135-14.929-.169-29.85.017-44.78.042-3.449-.785-4.497-4.36-4.472-27.774.152-55.54.085-83.314.085l.008-.009Zm-28.018-79.585c13.499-15.969 24.831-49.421 25.396-73.007.675-27.991-8.314-53.217-21.273-78.325-3.061 10.237-7.833 18.142-17.774 21.168-9.908 3.018-18.146-1.234-26.08-6.932.92 3.424 2.032 6.577 3.305 9.663 7.117 17.322 16.544 33.528 24.377 50.503 11.163 24.204 18.103 49.092 12.049 76.922v.008Zm27.715 71.283c21.324 0 42.648.026 63.972-.05 1.391 0 3.381 1.073 3.887-1.776 1.99-11.226-2.732-17.144-13.938-17.144H42.403c-1.678 0-3.372.008-5.042.211-4.376.524-7.209 3.162-8.431 7.22-.633 2.088-.22 4.472-.506 6.695-.473 3.678.632 4.988 4.67 4.937 20.903-.228 41.806-.109 62.708-.109v.016Zm4.342-259.482s1.501 6.94 13.027 13.044c.489.262.936.625 1.349.997 1.299 1.192 2.606 1.116 4.242.558 8.474-2.883 16.973-5.69 25.514-8.378 1.956-.617 2.968-1.53 3.423-3.626 1.392-6.45 2.968-12.858 4.587-19.25.548-2.164-.084-3.694-1.517-5.3-5.641-6.366-12.336-11.328-19.495-15.86-4.308-2.73-7.015-3.052-10.084-3.128-11.982-.287-19.874 11.777-20.203 12.31-5.843 9.222-5.413 21.311-.843 28.624v.009Zm-8.263-12.732c0-4.362-.118-8.724.05-13.078.085-2.266-.708-3.576-2.638-4.709a443.17 443.17 0 0 1-16.476-10.12c-1.889-1.217-3.44-1.174-5.422-.304-7.782 3.407-14.595 8.184-21.054 13.679-5.396 4.59-8.33 9.24-5.236 16.603 2.091 4.988 1.02 11.945 4.612 15.412 3.558 3.432 9.933 3.939 15.076 5.723.531.186 1.071.33 1.602.507.894.304 1.585.11 2.184-.676 4.41-5.766 10.177-5.318 15.877-2.866 2.985 1.276 4.924 1.031 7.504-.837 2.892-2.097 4.376-4.227 4.014-7.947-.371-3.762-.085-7.583-.085-11.387h-.008Zm-26.914 39.1c-.818-1.937 1.754-5.386-2.378-6.696-6.003-1.902-11.973-3.898-17.943-5.91-1.484-.498-2.639-.296-3.836.753a1450.02 1450.02 0 0 1-15.92 13.771c-1.256 1.065-1.669 2.063-.741 3.61 3.937 6.585 8.448 12.638 15.303 16.451 8.921 4.963 17.572 2.257 22.243-6.898 2.344-4.6 3.289-9.528 3.272-15.082Zm56.4 27.711c4.84-8.868 11.644-13.349 21.122-13.146 1.939.042 2.757-1.099 3.701-2.282 5.177-6.501 6.248-13.89 4.865-21.921-.506-2.917-1.332-3.906-4.367-2.714-4.292 1.69-8.778 2.883-13.145 4.404-4.874 1.7-11.156 1.759-14.267 5.41-3.213 3.771-3.752 9.824-5.455 14.888-.135.397-.161.837-.338 1.218-.463 1.022-.194 1.91.38 2.772 2.386 3.61 4.772 7.228 7.504 11.371ZM47.69 287.153h96.721c-1.948-3.027-3.954-5.411-5.135-8.158-1.855-4.287-4.106-4.785-8.6-3.433-23.786 7.152-47.775 7.152-71.755.694-1.5-.406-3.136-1.835-4.477.253-2.175 3.382-4.309 6.789-6.745 10.644h-.009Zm107.362-169.407c0-7.584-6.164-13.73-13.651-13.62-7.353.11-13.356 6.146-13.432 13.484-.076 7.609 5.928 13.712 13.508 13.763 7.631.051 13.575-5.918 13.567-13.636l.008.009Zm7.116-7.245c2.032-4.473 3.12-8.547 4.065-12.639.885-3.83 1.812-7.71 2.048-11.607.371-6.028-1.222-11.717-4.688-16.739-1.18-1.708-2.647-3.187-5.202-3.457 2.243 12.13 2.31 21.007-4.57 31.06-.919 1.335-.885 2.155.481 3.076 3.583 2.435 5.826 5.986 7.866 10.297v.009ZM23.483 73.751c4.696-4.049 8.591-7.413 12.495-10.753.565-.482 1.02-1.048.844-1.792-1.223-5.064-2.488-10.12-3.955-16.07-5.278 9.189-8.018 18.031-9.384 28.624v-.008Zm86.687-63.344c-9.604-2.57-18.803-2.714-29.259-.558 5.363 3.28 9.79 6.027 14.284 8.674.472.279 1.433.169 1.948-.136 4.367-2.612 8.684-5.309 13.018-7.98h.009Zm-3.061 77.48c1.223-3.695 2.175-6.578 3.137-9.452.396-1.192.193-2.147-.886-2.925-4.072-2.942-8.052-6.02-12.2-8.843-2.269-1.538-3.407 1.023-4.891 1.962-1.265.794-.236 1.682.455 2.35 5.144 4.945 9.435 10.626 14.385 16.907Zm58.238-28.346c-1.349-5.191-3.339-9.435-5.733-13.586-1.51.947-1.274 2.359-1.543 3.526-.549 2.426-2.277 5.097-1.13 7.202.683 1.26 3.71 1.218 5.666 1.792.658.195 1.29.5 2.732 1.066h.008Z" fill="url(#b)"/></g><defs><linearGradient id="b" x1="96.002" y1="0" x2="93.501" y2="443" gradientUnits="userSpaceOnUse"><stop stop-color="#DBFDFF"/><stop offset="1" stop-color="#DBFDFF" stop-opacity="0"/></linearGradient><clipPath id="a"><path fill="#fff" d="M0 0h192v384H0z"/></clipPath></defs></svg>