<svg width="79" height="72" fill="none" xmlns="http://www.w3.org/2000/svg"><path opacity=".7" d="M8.332 67.44c0 .373-.007.703-.02.99a4.29 4.29 0 0 1-.08.76 2.291 2.291 0 0 1-.62 1.15c-.233.233-.5.413-.8.54-.3.12-.647.18-1.04.18s-.74-.06-1.04-.18a2.495 2.495 0 0 1-.8-.54 2.313 2.313 0 0 1-.41-.54 2.534 2.534 0 0 1-.21-.61 4.957 4.957 0 0 1-.09-.76 43.18 43.18 0 0 1 0-1.97 4.76 4.76 0 0 1 .09-.76c.047-.227.117-.433.21-.62.1-.187.237-.367.41-.54.233-.233.5-.41.8-.53.3-.127.647-.19 1.04-.19s.74.063 1.04.19c.3.12.567.297.8.53a2.278 2.278 0 0 1 .62 1.16c.047.22.073.473.08.76.013.28.02.607.02.98Zm-1.08 0c0-.353-.007-.65-.02-.89a3.692 3.692 0 0 0-.06-.61 1.237 1.237 0 0 0-.13-.41 1.211 1.211 0 0 0-.21-.31 1.403 1.403 0 0 0-1.06-.44 1.403 1.403 0 0 0-1.28.75 1.843 1.843 0 0 0-.13.42c-.027.16-.047.36-.06.6-.007.24-.01.537-.01.89s.003.65.01.89c.013.233.033.433.06.6.033.167.077.307.13.42a1.462 1.462 0 0 0 .69.63c.18.08.377.12.59.12a1.436 1.436 0 0 0 1.06-.45c.087-.093.157-.193.21-.3.06-.113.103-.25.13-.41.033-.167.053-.37.06-.61.013-.24.02-.537.02-.89Zm4.9-2.59V71h-1.08v-6.15h-1.96v-.97h5v.97h-1.96ZM19.267 71l-1.5-3h-1.35v3h-1.08v-7.12h2.76c.34 0 .644.053.91.16.274.1.507.243.7.43.194.18.34.4.44.66.107.253.16.53.16.83 0 .513-.136.93-.41 1.25-.273.313-.61.527-1.01.64l1.64 3.15h-1.26Zm-.04-5.03c0-.353-.113-.627-.34-.82-.22-.2-.51-.3-.87-.3h-1.6v2.23h1.6c.36 0 .65-.097.87-.29.227-.193.34-.467.34-.82Zm7.425 1.47c0 .373-.006.703-.02.99a4.29 4.29 0 0 1-.08.76 2.292 2.292 0 0 1-.62 1.15c-.233.233-.5.413-.8.54-.3.12-.646.18-1.04.18-.393 0-.74-.06-1.04-.18a2.495 2.495 0 0 1-.8-.54 2.314 2.314 0 0 1-.41-.54 2.536 2.536 0 0 1-.21-.61 4.947 4.947 0 0 1-.09-.76c-.006-.287-.01-.617-.01-.99s.004-.7.01-.98a4.75 4.75 0 0 1 .09-.76c.047-.227.117-.433.21-.62.1-.187.237-.367.41-.54.234-.233.5-.41.8-.53.3-.127.647-.19 1.04-.19.394 0 .74.063 1.04.19.3.12.567.297.8.53a2.279 2.279 0 0 1 .62 1.16c.047.22.074.473.08.76.014.28.02.607.02.98Zm-1.08 0c0-.353-.006-.65-.02-.89a3.7 3.7 0 0 0-.06-.61 1.237 1.237 0 0 0-.13-.41 1.21 1.21 0 0 0-.21-.31 1.403 1.403 0 0 0-1.06-.44 1.403 1.403 0 0 0-1.28.75 1.842 1.842 0 0 0-.13.42c-.026.16-.046.36-.06.6-.006.24-.01.537-.01.89s.004.65.01.89c.014.233.034.433.06.6.034.167.077.307.13.42a1.462 1.462 0 0 0 .69.63c.18.08.377.12.59.12a1.436 1.436 0 0 0 1.06-.45c.087-.093.157-.193.21-.3.06-.113.104-.25.13-.41a3.7 3.7 0 0 0 .06-.61c.014-.24.02-.537.02-.89Zm7.135 1.53c0 .327-.063.62-.19.88s-.303.48-.53.66c-.226.18-.496.317-.81.41-.313.093-.657.14-1.03.14-.54 0-1.01-.07-1.41-.21-.393-.14-.763-.383-1.11-.73l.71-.71c.26.26.54.44.84.54.3.1.63.15.99.15.473 0 .837-.093 1.09-.28.253-.193.38-.467.38-.82 0-.333-.093-.58-.28-.74-.173-.153-.433-.253-.78-.3l-.84-.12c-.593-.093-1.04-.283-1.34-.57-.353-.32-.53-.777-.53-1.37 0-.307.053-.587.16-.84.113-.26.27-.48.47-.66.207-.187.457-.33.75-.43.294-.1.627-.15 1-.15.48 0 .89.063 1.23.19.347.127.674.333.98.62l-.68.68a1.69 1.69 0 0 0-.72-.43c-.26-.08-.543-.12-.85-.12-.42 0-.74.103-.96.31-.22.207-.33.473-.33.8 0 .133.02.257.06.37a.67.67 0 0 0 .2.29c.093.08.197.147.31.2.12.047.277.087.47.12l.85.13c.327.053.59.12.79.2.2.08.377.19.53.33.387.353.58.84.58 1.46Zm3.85 2.03v-7.12h4.55v.97h-3.47v2.08h2.96v.96h-2.96v2.14h3.47V71h-4.55Zm10.886-3.56c0 .32-.003.607-.01.86a5.196 5.196 0 0 1-.06.69 2.455 2.455 0 0 1-.14.57 2.06 2.06 0 0 1-.25.48l.7.69-.6.59-.71-.7c-.193.14-.416.25-.67.33-.246.073-.52.11-.82.11-.393 0-.74-.06-1.04-.18a2.496 2.496 0 0 1-.8-.54 2.314 2.314 0 0 1-.41-.54 2.536 2.536 0 0 1-.21-.61 4.972 4.972 0 0 1-.09-.76 43.527 43.527 0 0 1 0-1.97c.014-.287.044-.54.09-.76.047-.227.117-.433.21-.62.1-.187.237-.367.41-.54.234-.233.5-.41.8-.53.3-.127.647-.19 1.04-.19.394 0 .74.063 1.04.19.3.12.567.297.8.53a2.276 2.276 0 0 1 .62 1.16c.047.22.074.473.08.76.014.28.02.607.02.98Zm-1.08 0c0-.353-.006-.65-.02-.89a3.475 3.475 0 0 0-.06-.6 1.353 1.353 0 0 0-.13-.42 1.21 1.21 0 0 0-.21-.31 1.403 1.403 0 0 0-1.06-.44c-.426 0-.78.147-1.06.44a1.1 1.1 0 0 0-.22.31 1.847 1.847 0 0 0-.13.42c-.026.16-.046.36-.06.6-.006.24-.01.537-.01.89s.004.65.01.89c.014.233.034.433.06.6.034.167.077.307.13.42.054.107.127.207.22.3a1.436 1.436 0 0 0 1.06.45c.287 0 .534-.08.74-.24l-.76-.75.6-.6.69.7c.094-.187.15-.413.17-.68.027-.267.04-.63.04-1.09Zm7.685 1.16c0 .367-.067.703-.2 1.01-.127.3-.306.557-.54.77-.227.213-.496.38-.81.5a2.8 2.8 0 0 1-1.01.18 2.8 2.8 0 0 1-1.01-.18 2.44 2.44 0 0 1-.81-.5 2.359 2.359 0 0 1-.54-.77 2.62 2.62 0 0 1-.19-1.01v-4.72h1.08v4.67c0 .48.133.857.4 1.13.267.273.623.41 1.07.41.447 0 .803-.137 1.07-.41.273-.273.41-.65.41-1.13v-4.67h1.08v4.72Zm1.748 2.4v-7.12h1.08V71h-1.08Zm7.92-4.96c0 .313-.054.6-.16.86-.107.26-.26.487-.46.68-.2.193-.44.343-.72.45-.28.107-.594.16-.94.16h-1.62V71h-1.08v-7.12h2.7c.346 0 .66.057.94.17.28.107.52.257.72.45.2.187.353.413.46.68.106.267.16.553.16.86Zm-1.08 0c0-.38-.117-.673-.35-.88-.227-.207-.53-.31-.91-.31h-1.56v2.38h1.56c.38 0 .683-.103.91-.31.233-.207.35-.5.35-.88Zm7.249 1.4c0 .373-.007.703-.02.99a4.28 4.28 0 0 1-.08.76 2.289 2.289 0 0 1-.62 1.15c-.234.233-.5.413-.8.54-.3.12-.647.18-1.04.18-.394 0-.74-.06-1.04-.18a2.496 2.496 0 0 1-.8-.54 2.314 2.314 0 0 1-.41-.54 2.536 2.536 0 0 1-.21-.61 4.972 4.972 0 0 1-.09-.76 43.527 43.527 0 0 1 0-1.97c.013-.287.043-.54.09-.76.046-.227.116-.433.21-.62.1-.187.236-.367.41-.54.233-.233.5-.41.8-.53.3-.127.646-.19 1.04-.19.393 0 .74.063 1.04.19.3.12.566.297.8.53a2.276 2.276 0 0 1 .62 1.16c.046.22.073.473.08.76.013.28.02.607.02.98Zm-1.08 0c0-.353-.007-.65-.02-.89a3.68 3.68 0 0 0-.06-.61 1.235 1.235 0 0 0-.13-.41 1.21 1.21 0 0 0-.21-.31 1.403 1.403 0 0 0-1.06-.44 1.403 1.403 0 0 0-1.28.75 1.847 1.847 0 0 0-.13.42c-.027.16-.047.36-.06.6-.007.24-.01.537-.01.89s.003.65.01.89c.013.233.033.433.06.6.033.167.076.307.13.42a1.463 1.463 0 0 0 .69.63c.18.08.376.12.59.12a1.436 1.436 0 0 0 1.06-.45 1.346 1.346 0 0 0 .34-.71 3.68 3.68 0 0 0 .06-.61c.013-.24.02-.537.02-.89Zm7.135 1.53a1.89 1.89 0 0 1-.72 1.54c-.227.18-.497.317-.81.41-.314.093-.657.14-1.03.14-.54 0-1.01-.07-1.41-.21-.394-.14-.764-.383-1.11-.73l.71-.71c.26.26.54.44.84.54.3.1.63.15.99.15.473 0 .836-.093 1.09-.28.253-.193.38-.467.38-.82 0-.333-.094-.58-.28-.74-.174-.153-.434-.253-.78-.3l-.84-.12c-.594-.093-1.04-.283-1.34-.57-.354-.32-.53-.777-.53-1.37 0-.307.053-.587.16-.84.113-.26.27-.48.47-.66.206-.187.456-.33.75-.43.293-.1.626-.15 1-.15.48 0 .89.063 1.23.19.346.127.673.333.98.62l-.68.68a1.69 1.69 0 0 0-.72-.43c-.26-.08-.544-.12-.85-.12-.42 0-.74.103-.96.31-.22.207-.33.473-.33.8 0 .133.02.257.06.37a.67.67 0 0 0 .2.29c.093.08.196.147.31.2.12.047.276.087.47.12l.85.13c.326.053.59.12.79.2.2.08.376.19.53.33.386.353.58.84.58 1.46Z" fill="#fff"/><circle cx="39" cy="25" r="24" fill="url(#a)" stroke="#fff" stroke-width="2"/><defs><linearGradient id="a" x1="19.5" y1="9" x2="54" y2="42" gradientUnits="userSpaceOnUse"><stop stop-color="#2C62D9"/><stop offset=".347" stop-color="#3573D4"/><stop offset=".667" stop-color="#71C8CB"/><stop offset="1" stop-color="#B3E0CC"/></linearGradient></defs></svg>