<svg width="52" height="52" fill="none" xmlns="http://www.w3.org/2000/svg"><g clip-path="url(#a)" fill="#fff"><path d="M16.647 24.85c-.186.195-.35.38-.53.548-.295.277-.57.282-.86-.008-1.55-1.542-3.096-3.088-4.64-4.638-.291-.293-.285-.59.012-.89 2.057-2.067 4.119-4.128 6.175-6.195.174-.175.37-.232.609-.231 1.747.005 3.494.002 5.24.003.682 0 .868.252.692.925-.388 1.481.418 2.951 1.864 3.405a2.78 2.78 0 0 0 3.446-1.72c.212-.588.21-1.18.043-1.777-.15-.538.065-.83.618-.831 1.898-.004 3.795 0 5.693-.004.242 0 .426.076.6.25 1.952 1.958 3.911 3.909 5.868 5.863.478.477.478.683.003 1.159L37.19 25c-.573.573-.69.574-1.294.018-.042-.039-.075-.103-.162-.082-.076.135-.037.288-.037.431-.002 4.65-.002 9.3-.002 13.95 0 .772-.133.907-.893.907h-17.23c-.715 0-.859-.145-.86-.857 0-4.688 0-9.375-.002-14.063 0-.131.037-.27-.061-.454Zm9.538 14.253c2.64 0 5.279.002 7.918-.002.54 0 .473.065.473-.489.003-1.923.001-3.846.001-5.769 0-3.079.002-6.157-.002-9.237 0-.285.053-.532.343-.648.284-.113.507.003.706.213.225.237.476.45.689.696.169.196.273.165.442-.005a377.884 377.884 0 0 1 3.52-3.518c.181-.18.156-.27-.01-.435-1.723-1.708-3.44-3.42-5.15-5.14-.169-.17-.34-.221-.567-.22-1.395.007-2.79.015-4.184-.005-.35-.005-.459.057-.446.443.086 2.646-2.374 4.571-4.929 3.883-1.745-.47-2.885-2.054-2.851-3.961.003-.187.059-.366-.258-.363-1.395.015-2.79.008-4.184.006a.437.437 0 0 0-.334.137 2144.983 2144.983 0 0 1-5.433 5.443c-.142.142-.135.224.004.362a598.716 598.716 0 0 1 3.599 3.6c.132.133.204.122.326-.006.33-.346.668-.683 1.011-1.014.163-.158.361-.221.59-.135.239.09.351.273.372.517.01.125.004.252.004.377 0 4.939.004 9.878-.007 14.817-.001.35.065.463.443.46 2.639-.018 5.279-.01 7.918-.01l-.004.003Z"/><path d="M30.672 24.03a2.225 2.225 0 0 1-2.24-2.217 2.246 2.246 0 0 1 2.223-2.243c1.22-.006 2.233 1 2.242 2.226a2.227 2.227 0 0 1-2.224 2.233Zm1.111-2.236a1.138 1.138 0 0 0-1.149-1.104 1.137 1.137 0 0 0-1.09 1.126c.007.61.545 1.127 1.15 1.106.599-.02 1.097-.537 1.09-1.128Z"/><path d="M26 52c-3.51 0-6.915-.687-10.12-2.044a25.918 25.918 0 0 1-8.265-5.571A25.918 25.918 0 0 1 0 26c0-3.51.687-6.915 2.044-10.12a25.917 25.917 0 0 1 5.571-8.265A25.917 25.917 0 0 1 26 0c3.51 0 6.914.687 10.12 2.044a25.918 25.918 0 0 1 8.265 5.571A25.918 25.918 0 0 1 52 26c0 3.51-.687 6.914-2.044 10.12a25.919 25.919 0 0 1-5.571 8.265A25.919 25.919 0 0 1 26 52Zm0-50.565c-6.562 0-12.73 2.555-17.37 7.195C3.99 13.27 1.435 19.438 1.435 26c0 6.562 2.555 12.73 7.195 17.37 4.64 4.64 10.808 7.195 17.37 7.195 6.562 0 12.73-2.555 17.37-7.195 4.64-4.64 7.195-10.808 7.195-17.37 0-6.562-2.555-12.73-7.195-17.37C38.73 3.99 32.562 1.435 26 1.435Z"/></g><defs><clipPath id="a"><path fill="#fff" d="M0 0h52v52H0z"/></clipPath></defs></svg>