<svg width="58.039" height="100" xmlns="http://www.w3.org/2000/svg"><path d="M5 5v90h48.039V5Zm20.964 2.584h6.09v6.078l2.327-5.6 5.634 2.312-2.35 5.6 4.312-4.284 4.311 4.284-4.311 4.287 5.633-2.337 2.328 5.6-5.633 2.316h6.089v6.053H44.28l5.634 2.313-2.325 5.6-5.636-2.333 4.311 4.284-4.311 4.287-4.311-4.287 2.351 5.6-5.636 2.315-2.325-5.603v6.077H25.94V44.07l-2.325 5.603-5.636-2.315 2.349-5.6-4.312 4.287-4.31-4.287 4.31-4.284-5.633 2.333-2.328-5.6 5.637-2.313H7.599V25.84h6.114l-5.634-2.315 2.328-5.6 5.634 2.336-4.312-4.287 4.312-4.284 4.287 4.284-2.325-5.576 5.633-2.316 2.328 5.604zm2.156 5.748.751 3.81-4.13.816-.751-3.81-1.664.679 2.165 3.221L21 20.361l-2.165-3.219-1.28 1.268 3.24 2.156-2.325 3.469-3.24-2.156-.685 1.658 3.831.745-.82 4.106-3.832-.748v1.79l3.831-.746.821 4.103-3.83.749.684 1.654 3.24-2.152 2.325 3.468-3.24 2.153 1.28 1.271 2.165-3.221 3.49 2.315-2.165 3.219 1.664.682.751-3.81 4.13.815-.751 3.81h1.802l-.755-3.81 4.13-.815.752 3.81 1.667-.682-2.168-3.219 3.49-2.315 2.167 3.221 1.278-1.27-3.24-2.154 2.328-3.468 3.24 2.152.682-1.654-3.832-.749.822-4.103 3.83.746v-1.79l-3.83.748-.822-4.106 3.832-.745-.683-1.658-3.24 2.156-2.327-3.469 3.24-2.156-1.278-1.268-2.167 3.219-3.49-2.313 2.168-3.221-1.667-.68-.752 3.81-4.13-.815.755-3.81zm-3.059 5.51 3.97 1.066 3.765-1.066 4.197 3.016.274 3.56 2.12 3.764-1.643 4.807-3.876 1.518-2.008 3.13h-5.657l-2.008-3.106-3.876-1.518-1.643-4.81 2.12-3.761v-.024l.274-3.56zm3.958 5.362-4.586 3.288 1.782 5.374h5.633l1.757-5.374zm19.002 27.168v1.338h.23c.98 0 1.778.794 1.778 1.769 0 .612-.296 1.156-.797 1.473l.682.498-1.093 3.674 1.754 8.48h-4.972l1.642-5.578-1.361-5.51 1.476-.429-1.597-1.201v-2.27ZM7.669 52.755H11.5l-.386 1.066H9.242v.975h1.482l-.386 1.065H9.22v1.745H7.669Zm4.311 0h1.552v4.851H11.98zm2.624 0h3.83l-.386 1.066h-1.872v.975h1.483l-.387 1.065h-1.117v1.745h-1.551zm4.836 0h1.618l1.827 4.851h-1.576l-.206-.655H19.35l-.184.655H17.613zm27.971.057-.866.864v1.041l.866-.86zm.785.613a.627.627 0 0 0-.175.024v.951l-.685.683c.205.317.527.519.914.519.594 0 1.093-.497 1.093-1.087s-.5-1.09-1.093-1.09h-.054zm-27.956.556-.616 2.016h1.232zm26.646 1.479-.16.157 1.506 1.135.755-.22-.483-.369H48.3c-.57 0-1.094-.25-1.413-.703zm2.101 1.072.021.015v-.021zm-.063.812-2.213.637.936 3.74zm-33.43 1.262c1.369 0 2.349.974 2.349 2.312 0 1.338-.98 2.313-2.349 2.313-.661 0-1.256-.226-1.666-.634a2.34 2.34 0 0 1-.686-1.679c0-.657.252-1.247.686-1.678.433-.409 1.027-.634 1.666-.634zm-8.03.09h.866l.752 3.037.845-3.037h.936l.842 3.062.73-3.062h.846l-1.096 4.468h-.957l-.845-3.085-.867 3.085H8.56Zm10.654 0h.727l1.507 1.905 1.506-1.905h.728v4.468h-.843v-2.95l-1.162 1.453h-.435l-1.162-1.473v2.97h-.866zm4.972 0h3.626v.815h-2.738v.976h2.647v.818h-2.669v.498c0 .25.113.543.637.543h2.102v.818h-2.123c-.479 0-.866-.138-1.117-.41a1.411 1.411 0 0 1-.365-.951zm3.946 0h.776l2.463 2.992v-2.992h.867v4.468h-.776l-2.464-2.994v2.994h-.866zm4.767 0h.957l-.41 1.881h-.752zm2.645 0h2.668v.815h-2.62c-.388 0-.595.184-.595.502 0 .158.07.498.595.498h1.413c.433 0 .8.135 1.05.407.228.25.363.567.363.93 0 .363-.135.703-.363.93-.25.25-.617.386-1.05.386h-2.76v-.818h2.714c.388 0 .592-.18.592-.498 0-.453-.41-.498-.592-.498h-1.415c-.434 0-.797-.138-1.048-.41-.251-.25-.365-.565-.365-.927 0-.771.591-1.317 1.413-1.317zm-18.954.734a1.49 1.49 0 0 0-1.482 1.497 1.49 1.49 0 0 0 1.482 1.498 1.49 1.49 0 0 0 1.482-1.498 1.49 1.49 0 0 0-1.482-1.497zm32.883 2.159L47.215 65.6h2.008zM15.494 64.07c1.369 0 2.349.975 2.349 2.313s-.98 2.312-2.349 2.312c-.661 0-1.256-.225-1.666-.634a2.34 2.34 0 0 1-.686-1.678c0-.658.252-1.248.686-1.679.433-.408 1.027-.634 1.666-.634zm-8.03.07h.866l.752 3.037.845-3.037h.936l.842 3.06.73-3.06h.846l-1.096 4.465h-.957l-.845-3.083-.867 3.083H8.56Zm25.957 0h1.416v.815h-1.416c-.867 0-1.482.59-1.482 1.407 0 .816.615 1.403 1.482 1.403h1.416v.819h-1.416c-.661 0-1.254-.23-1.688-.637a2.177 2.177 0 0 1-.679-1.588 2.177 2.177 0 0 1 .68-1.585c.433-.408 1.026-.634 1.687-.634zm1.667 0h.866v2.493c0 .363.113.68.296.885.205.227.527.338.915.338.775 0 1.231-.452 1.231-1.223V64.14h.888v2.514c0 .567-.183 1.066-.525 1.428-.365.386-.912.592-1.573.592-.662 0-1.208-.206-1.573-.592-.342-.362-.525-.86-.525-1.428zm-16.95.02h2.419c.433 0 .798.136 1.072.408.25.25.39.567.39.93 0 .635-.457 1.338-1.438 1.338h-.459l1.987 1.612v.18h-1.05l-2.054-1.702v1.703h-.866zm4.107 0h.89v3.107c0 .25.113.544.637.544h1.643v.818h-1.688c-.456 0-.843-.139-1.117-.41a1.37 1.37 0 0 1-.365-.952zm3.354 0h1.869c.661 0 1.257.226 1.69.635.434.408.682.977.682 1.612 0 .635-.248 1.2-.682 1.609v-.024c-.433.408-1.029.637-1.69.637h-1.87zm14.05 0h2.304c.502 0 .89.16 1.186.432.251.25.39.611.39.997 0 .385-.139.75-.39.999-.273.272-.684.429-1.186.429H40.54v1.612h-.891zm.903.75v1.225h1.413c.661 0 .71-.477.71-.613 0-.181-.071-.613-.71-.613zm-25.136.011a1.488 1.488 0 0 0-1.404 1.495 1.49 1.49 0 0 0 1.482 1.497 1.49 1.49 0 0 0 1.482-1.497c0-.827-.663-1.495-1.482-1.495h-.078zm3.532.037v1.065h1.527c.457 0 .616-.27.616-.543 0-.159-.068-.522-.616-.522zm7.526.066v2.835h.981c.867 0 1.483-.59 1.483-1.407 0-.816-.616-1.407-1.483-1.407v-.02zm20.578 1.238-.501 1.679h3.19l-.34-1.68Zm-40.98 4.836h22.947V93.91H6.072Zm6.57 1.978c-2.966 0-4.448 1.86-4.448 4.172v4.695h2.213v-1.77h4.426v1.77h2.234v-4.695c0-2.313-1.46-4.172-4.426-4.172zm33.166.018c2.806 0 4.767 1.838 4.767 4.513 0 2.676-1.961 4.514-4.767 4.514-2.828 0-4.788-1.838-4.788-4.514 0-2.675 1.982-4.513 4.788-4.513zm-27.76.142v4.694c0 2.268 1.437 4.173 4.402 4.173s4.45-1.905 4.45-4.173v-4.694h-2.213v4.49c0 1.473-.776 2.357-2.213 2.357s-2.213-.884-2.213-2.358v-4.49zm13.685.018h5.637c1.756 0 2.805 1.178 2.805 2.675 0 1.496-1.049 2.678-2.805 2.678h-3.424v1.337h6.023v2.017h-8.236v-5.214h5.498c.525 0 .8-.342.8-.728 0-.385-.275-.748-.8-.748h-5.498zm14.114 1.77c-1.62 0-2.578 1.02-2.578 2.562 0 1.542.959 2.563 2.578 2.563 1.62 0 2.579-1.02 2.579-2.563 0-1.542-.96-2.563-2.579-2.563zm-33.227.047c1.46 0 2.213.818 2.213 2.337v.77h-4.426v-.77c0-1.52.753-2.337 2.213-2.337zm29.426 8.137h5.474c1.71 0 2.76 1.088 2.76 2.403 0 .816-.387 1.498-1.254 1.929.913.43 1.323 1.157 1.323 1.996 0 1.292-1.072 2.403-2.76 2.403h-5.543v-1.996h5.269c.547 0 .866-.25.866-.749 0-.43-.343-.703-.89-.703h-5.245v-1.86h5.223c.548 0 .867-.248.867-.679 0-.476-.342-.749-.867-.749h-5.223zm-33.852.018v8.707h2.189v-5.26l4.767 5.26h2.008v-8.707h-2.19v5.262l-4.766-5.262zm10.195 0v1.995h5.066l-5.066 4.99v1.722h8.351V89.96h-5.087l5.087-4.99v-1.745zm13.344.006h5.637c1.756 0 2.805 1.178 2.805 2.675 0 1.496-1.049 2.675-2.805 2.675h-3.4v1.337h5.975v2.02h-8.212v-5.217h5.477c.525 0 .797-.34.797-.725 0-.385-.272-.748-.797-.748h-5.477z"/></svg>