<svg viewBox="0 0 48.995 100" xmlns="http://www.w3.org/2000/svg"><path d="M24.025 5C13.502 5 5 13.504 5 24.028v19.954c0 10.523 8.502 19.027 19.025 19.027h.944c10.524 0 19.026-8.504 19.026-19.027V24.028C43.995 13.504 35.493 5 24.969 5Zm0 2.003h.944a16.964 16.964 0 0 1 17.022 17.025v19.954A16.964 16.964 0 0 1 24.97 61.006h-.944A16.964 16.964 0 0 1 7.003 43.982V24.028A16.964 16.964 0 0 1 24.025 7.003zM15.203 66.526a2.404 2.404 0 0 0-3.4.073 2.404 2.404 0 0 0 .073 3.4L23.51 81.142a2.404 2.404 0 0 0 3.328 0L38.47 69.998a2.404 2.404 0 0 0 .073-3.399 2.404 2.404 0 0 0-3.399-.073l-9.97 9.55z"/><path d="M14.647 79.716a2.404 2.404 0 0 0-3.4.073 2.404 2.404 0 0 0 .074 3.399l11.635 11.144a2.404 2.404 0 0 0 3.326 0l11.632-11.144a2.404 2.404 0 0 0 .073-3.4 2.404 2.404 0 0 0-3.4-.072l-9.97 9.55zM24.87 17.91a2.404 2.404 0 0 0-2.402 2.403v5.053a2.404 2.404 0 0 0 2.402 2.403 2.404 2.404 0 0 0 2.406-2.403v-5.053a2.404 2.404 0 0 0-2.406-2.403z"/></svg>