<svg width="919" height="933" fill="none" xmlns="http://www.w3.org/2000/svg"><g clip-path="url(#a)" stroke-width="2" stroke-miterlimit="10"><path d="M679.224 267.364c-21.202-20.914-49.217-33.271-76.898-44.26-20.652-8.193-43.247-17.361-53.679-36.976-7.641-14.361-7.243-31.936-14.814-46.334-14.449-27.467-50.618-33.128-81.564-35.532-10.547-.822-21.448-1.599-31.442 1.872-9.114 3.163-16.65 9.578-24.634 14.995a128.372 128.372 0 0 1-45.704 19.397c-17.794 3.723-36.487 3.688-53.477 10.162-12.991 4.951-24.269 13.447-35.358 21.838-23.88 18.075-17.032 49.459-28.857 73.566-2.337 4.764-5.955 9.091-10.785 11.3-5.986 2.738-12.963 1.92-19.39.486-24.185-5.4-47.878-2.499-68.125 12.871-14.476 10.984-22.985 29.4-21.972 47.537.611 10.946 4.429 21.501 5.295 32.428 1.084 13.641-2.464 27.195-3.291 40.853-1.769 29.349 9.775 59.236 30.815 79.769 11.114 10.85 24.635 19.127 34.997 30.7 33.227 37.103 25.361 95.956 49.825 139.343 19.664 34.874 58.293 56.24 76.709 91.793 6.095 11.766 9.854 24.896 18.051 35.311 13.278 16.874 38.016 23.622 58.034 15.83 11.429-4.447 21.048-12.965 32.778-16.547 18.771-5.725 38.619 2.144 57.211 8.418 15.073 5.084 30.21 8.621 46.004 10.471 49.328 5.774 100.602-.655 144.187-25.587 49.701-28.431 69.193-75.03 86.568-127.323 10.702-32.215 6.578-65.142-9.236-94.839-14.967-28.098-37.327-53.581-53.027-81.296-6.732-11.89-12.347-25.035-11.829-38.69.97-25.746 22.83-45.817 29.896-70.594 8.17-28.65-5.09-60.045-26.288-80.962Zm-59.264 79.433c-4.297 19.349-14.205 36.498-14.671 56.724-.343 14.855 7.857 23.857 16.653 34.913 13.029 16.384 25.634 33.153 37.076 50.691 11.258 17.25 21.391 35.309 29.214 54.388 7.707 18.785 13.097 38.558 15.022 58.803.226 2.348.4 4.697.532 7.051 1.008 18.068-.908 36.631-8.403 53.106-9.458 20.807-26.94 36.692-43.957 51.954-8.784 7.882-17.904 15.961-29.097 19.71-11.205 3.753-23.37 2.787-35.136 1.707-26.411-2.426-53.082-5.275-78.064-14.174-24.978-8.901-48.447-24.525-61.862-47.392-5.009-8.545-10.116-19.149-19.93-20.505-8.112-1.121-15.49 5.052-20.033 11.875-4.544 6.82-7.56 14.756-13.331 20.571-15.244 15.365-42.696 8.575-57.878-6.836-15.179-15.415-22.429-36.711-33.322-55.404-11.554-19.825-27.383-36.94-38.55-56.99-14.797-26.559-21.725-58.575-44.171-79.085-15.075-13.768-36.437-21.556-46.057-39.569-11.509-21.544-1.367-47.862-2.578-72.264-1.516-30.604-21.211-60.958-3.763-90.465 9.422-15.938 21.656-11.746 36.831-8.862 13.703 2.603 29.562 4.675 40.111-4.455 13.911-12.046 13.357-35.27 22.433-50.511 20.548-34.496 67.179-54.888 106.25-53.796 37.636 1.056 72.87 18.346 104.557 37.3 32.023 19.156 64.049 38.316 96.075 57.476 9.403 5.627 18.901 11.324 26.729 18.989 16.88 16.517 24.448 41.989 19.32 65.05Z" stroke="#CD9AAC" style="fill-opacity:0"/><path d="M600.639 281.747c-7.827-7.665-17.326-13.362-26.728-18.989-32.026-19.16-64.052-38.32-96.076-57.476-31.686-18.954-66.92-36.244-104.556-37.3-39.071-1.092-85.703 19.3-106.25 53.796-9.076 15.241-8.522 38.465-22.433 50.511-10.549 9.13-26.409 7.058-40.111 4.455-15.176-2.884-27.409-7.076-36.832 8.862-17.448 29.507 2.247 59.861 3.764 90.465 1.211 24.402-8.931 50.72 2.577 72.264 9.621 18.013 30.983 25.801 46.058 39.569 22.446 20.51 29.374 52.526 44.171 79.085 11.167 20.05 26.996 37.165 38.55 56.99 10.893 18.693 18.143 39.989 33.322 55.404 15.182 15.411 42.633 22.201 57.877 6.836 5.772-5.815 8.787-13.751 13.332-20.571 4.542-6.823 11.92-12.996 20.033-11.875 9.814 1.356 14.921 11.96 19.93 20.505 13.415 22.867 36.884 38.491 61.862 47.392 24.981 8.899 51.653 11.748 78.063 14.174 11.766 1.08 23.932 2.046 35.137-1.707 11.193-3.749 20.313-11.828 29.097-19.71 17.017-15.262 34.499-31.147 43.957-51.954 7.495-16.475 9.41-35.038 8.402-53.106a175.115 175.115 0 0 0-.531-7.051c-1.926-20.245-7.316-40.018-15.022-58.803-7.823-19.079-17.956-37.138-29.214-54.388-11.442-17.538-24.047-34.307-37.076-50.691-8.796-11.056-16.997-20.058-16.653-34.913.466-20.226 10.374-37.375 14.671-56.724 5.128-23.061-2.44-48.533-19.321-65.05Zm-.058 39.25c3.144 21.12-10.394 40.851-14.493 61.809-5.909 30.198 8.238 60.799 26.121 85.831 17.881 25.034 39.976 47.341 53.664 74.897.532 1.073 1.05 2.154 1.55 3.244 22.332 48.834 8.24 125.336-44.994 148.365-44.041 19.05-99.179-.577-130.833-33.865-14.323-15.066-25.666-33.903-44.055-43.604-5.058-2.669-11.028-4.568-16.457-2.762-3.583 1.192-6.454 3.845-9.286 6.345-13.03 11.508-28.603 21.593-45.962 22.41-56.003 2.624-72.241-68.884-93.994-106.354-17.245-29.705-42.171-54.852-56.043-86.535-12.478-28.494-4.331-59.693-15.288-87.999-6.122-15.804-29.108-48.745-3.733-60.862 10.353-4.941 22.918 1.333 34.001-1.623 16.737-4.468 20.953-25.518 28.199-41.254 10.887-23.631 33.534-39.385 55.733-52.953 8.713-5.327 17.723-10.585 27.722-12.646 10.347-2.132 21.112-.694 31.377 1.789 49.996 12.09 90.842 47.72 138.591 66.847 15.952 6.39 32.75 10.97 47.617 19.583 14.872 8.613 28.03 22.341 30.563 39.337Z" stroke="#BD91AD" style="fill-opacity:0"/><path d="M570.018 281.659c-14.867-8.612-31.665-13.192-47.617-19.582-47.749-19.127-88.594-54.757-138.591-66.847-10.265-2.483-21.03-3.921-31.376-1.789-10 2.061-19.01 7.319-27.723 12.646-22.199 13.568-44.846 29.322-55.732 52.953-7.247 15.736-11.462 36.786-28.2 41.254-11.082 2.956-23.648-3.318-34 1.622-25.376 12.118-2.39 45.059 3.732 60.863 10.957 28.306 2.81 59.505 15.289 87.999 13.871 31.683 38.797 56.83 56.043 86.535 21.752 37.47 37.99 108.978 93.994 106.354 17.358-.817 32.931-10.902 45.961-22.41 2.832-2.5 5.704-5.153 9.286-6.345 5.429-1.807 11.4.093 16.458 2.762 18.388 9.701 29.732 28.538 44.055 43.604 31.654 33.288 86.791 52.915 130.833 33.865 53.233-23.029 67.325-99.531 44.993-148.365-.5-1.09-1.018-2.171-1.55-3.244-13.688-27.556-35.783-49.863-53.663-74.897-17.884-25.032-32.031-55.633-26.122-85.831 4.099-20.958 17.637-40.689 14.494-61.809-2.534-16.996-15.691-30.724-30.564-39.338Zm8.841 69.79c-.859 14.239-5.623 27.918-8.427 41.904-3.307 16.501-3.768 34.149 2.806 49.632 9.947 23.435 33.825 37.725 48.198 58.736 14.721 21.519 18.523 49.437 13.204 74.966-5.317 25.532-19.149 48.756-36.707 68.04-7.461 8.19-16.299 16.107-27.222 17.938-9.202 1.54-18.529-1.482-27.12-5.115-13.047-5.526-25.423-12.622-36.832-21.022-18.556-13.664-38.744-32.45-48.228-53.883-3.128-7.065-7.875-16.764-16.826-17.533-11.902-1.024-14.949 13.515-17.266 22.042-1.983 7.291-5.123 14.554-10.759 19.583-5.636 5.028-14.211 7.306-20.972 3.938-5.887-2.935-9.147-9.222-13.239-14.375-9.021-11.374-22.736-17.73-34.836-25.745-29.587-19.603-50.182-49.81-70.016-79.244-12.106-17.964-32.888-36.286-30.533-57.825 1.965-17.967 13.967-37.374 4.078-52.501-3.707-5.672-1.682-10.885-7.133-14.91-7.039-5.198-13.415-11.77-16.432-19.983-3.015-8.209-2.065-18.264 3.995-24.577 10.216-10.646 28.328-6.336 41.675-12.628 14.211-6.701 19.874-23.461 25.799-38.013 6.143-15.089 14.214-29.734 26.105-40.873 11.891-11.14 28.05-18.459 44.282-17.059 27.242 2.346 46.324 26.787 63.35 48.173 16.71 20.982 37.132 42.276 63.752 45.612 24.084 3.015 51.861-8.717 71.03 6.167 11.262 8.748 15.131 24.313 14.274 38.555Z" stroke="#72517A" style="fill-opacity:0"/></g><defs><clipPath id="a"><path fill="#fff" transform="rotate(-39.919 526.255 189.675)" d="M0 0h594.589v718.543H0z"/></clipPath></defs></svg>