<svg width="642" height="673" fill="none" xmlns="http://www.w3.org/2000/svg"><g clip-path="url(#a)" stroke-width="2" stroke-miterlimit="10"><path d="M131.296 232.616c-9.31 19.617-11.092 41.872-12.013 63.567-.684 16.185-1.572 33.942-12.572 45.834-8.054 8.707-20.249 12.652-28.344 21.321-15.442 16.542-10.658 42.802-4.884 64.685 1.966 7.459 4.048 15.15 8.837 21.198 4.365 5.515 10.59 9.164 16.237 13.361a93.585 93.585 0 0 1 24.325 26.81c6.835 11.357 11.298 24.235 19.834 34.379 6.527 7.756 15.084 13.48 23.523 19.101 18.177 12.102 38.14-.147 57.576 2.207 3.841.466 7.688 1.918 10.369 4.714 3.322 3.464 4.434 8.463 4.989 13.233 2.088 17.947 9.773 33.563 25.215 43.813 11.037 7.33 25.758 8.767 38.002 3.716 7.39-3.048 13.741-8.211 21.056-11.429 9.131-4.021 19.314-4.833 28.917-7.542 20.63-5.827 38.436-20.95 47.522-40.364 4.802-10.256 7.255-21.552 12.735-31.464 17.569-31.783 59.977-40.496 83.975-67.753 19.29-21.91 24.727-53.635 44.784-74.848 6.638-7.021 14.776-12.761 19.978-20.904 8.43-13.193 7.138-31.844-3.032-43.756-5.805-6.801-13.979-11.379-19.26-18.595-8.448-11.549-7.795-27.103-7.938-41.409-.119-11.598-1.317-22.869-3.835-34.187-7.865-35.348-24.6-69.106-52.228-93.128-31.505-27.394-68.267-29.627-108.441-29.037-24.748.365-46.428 11.108-63.078 29.124-15.752 17.05-27.929 38.562-43.241 56.024-6.571 7.489-14.273 14.51-23.798 17.431-17.959 5.513-37.025-4.719-55.78-3.636-21.686 1.252-40.118 17.918-49.43 37.534Zm68.914 21.734c14.353-1.687 28.538 1.019 42.575-3.516 10.311-3.33 14.54-11.136 20.04-19.846 8.152-12.903 16.672-25.607 26-37.695 9.173-11.891 19.174-23.203 30.432-33.169 11.084-9.815 23.403-18.273 36.879-24.458a130.056 130.056 0 0 1 4.727-2.059c12.198-5.031 25.438-8.168 38.58-6.963 16.596 1.517 31.729 9.74 46.321 17.793 7.535 4.155 15.287 8.495 20.555 15.301 5.273 6.813 7.529 15.421 9.609 23.781 4.671 18.766 9.111 37.813 8.982 57.148-.133 19.333-5.256 39.242-17.779 53.967-4.681 5.5-10.756 11.562-9.334 18.644 1.176 5.855 7.197 9.452 12.985 10.942 5.786 1.492 11.974 1.663 17.363 4.24 14.238 6.807 16.153 27.337 9.187 41.489-6.969 14.151-19.891 24.255-30.145 36.241-10.876 12.714-18.86 27.721-29.983 40.222-14.734 16.563-35.114 29.019-43.846 49.395-5.86 13.685-6.094 30.261-16.187 41.209-12.07 13.095-32.624 12.43-49.134 19.121-20.706 8.391-36.876 29.237-61.38 24.308-13.234-2.662-13.285-12.091-14.942-23.231-1.498-10.059-3.878-21.475-12.696-26.547-11.633-6.685-27.49-.729-40.161-3.319-28.683-5.866-53.916-33.076-62.543-60.238-8.308-26.165-4.862-54.574.581-80.939l16.509-79.944c1.617-7.824 3.259-15.731 6.657-22.96 7.32-15.587 23.04-26.912 40.148-28.917Z" stroke="#CD9AAC" style="fill-opacity:0"/><path d="M160.062 283.267c-3.397 7.229-5.04 15.136-6.657 22.96l-16.509 79.944c-5.442 26.365-8.888 54.774-.581 80.939 8.627 27.162 33.86 54.372 62.543 60.238 12.672 2.59 28.528-3.366 40.161 3.319 8.818 5.072 11.199 16.488 12.696 26.547 1.658 11.14 1.708 20.569 14.943 23.23 24.503 4.93 40.674-15.916 61.38-24.307 16.51-6.691 37.064-6.026 49.134-19.121 10.092-10.948 10.326-27.524 16.186-41.209 8.733-20.376 29.112-32.832 43.846-49.395 11.124-12.501 19.107-27.508 29.983-40.222 10.254-11.986 23.177-22.09 30.145-36.241 6.966-14.152 5.051-34.682-9.186-41.489-5.389-2.577-11.577-2.748-17.363-4.24-5.788-1.49-11.809-5.087-12.985-10.942-1.422-7.082 4.652-13.144 9.333-18.644 12.524-14.725 17.647-34.634 17.779-53.967.13-19.336-4.311-38.382-8.981-57.148-2.081-8.36-4.336-16.968-9.61-23.781-5.267-6.806-13.019-11.146-20.555-15.301-14.592-8.053-29.725-16.276-46.321-17.793-13.142-1.205-26.382 1.932-38.579 6.963a128.55 128.55 0 0 0-4.727 2.059c-13.476 6.185-25.796 14.643-36.879 24.458-11.258 9.966-21.259 21.278-30.433 33.169-9.328 12.088-17.847 24.792-25.999 37.695-5.501 8.71-9.73 16.516-20.04 19.846-14.037 4.534-28.222 1.829-42.575 3.516-17.108 2.005-32.829 13.33-40.149 28.917Zm27.037-9.382c13.787-7.234 30.621-2.65 46.035-4.859 22.209-3.181 39.881-20.266 52.822-38.588 12.943-18.32 22.997-38.887 38.683-54.925a85.31 85.31 0 0 1 1.862-1.846c28.261-27.098 84.314-35.76 112.948-4.638 23.687 25.749 23.41 68.422 8.09 98.206-6.934 13.478-17.18 25.809-19.445 40.798-.623 4.123-.498 8.69 2.049 11.994 1.681 2.18 4.197 3.52 6.598 4.87 11.051 6.209 21.732 14.509 26.462 26.264 15.25 37.928-30.084 66.273-50.66 90.244-16.312 19.004-27.642 42.202-46.125 59.357-16.622 15.432-40.058 17.312-56.916 31.65-9.411 8.009-26.572 31.742-41.007 17.18-5.886-5.941-4.583-16.098-9.279-23.019-7.094-10.451-22.598-8.3-35.172-9.512-18.882-1.823-35.165-13.633-49.835-25.66-5.759-4.719-11.543-9.661-15.362-16.05-3.951-6.612-5.545-14.369-6.3-22.032-3.678-37.324 11.048-73.999 12.755-111.464.569-12.517-.31-25.182 2.051-37.485 2.36-12.307 8.653-24.661 19.746-30.485Z" stroke="#BD91AD" style="fill-opacity:0"/><path d="M167.353 304.37c-2.361 12.303-1.482 24.968-2.052 37.485-1.707 37.465-16.433 74.14-12.755 111.464.755 7.663 2.349 15.42 6.301 22.032 3.819 6.389 9.602 11.331 15.361 16.05 14.671 12.027 30.953 23.837 49.836 25.66 12.573 1.212 28.078-.939 35.172 9.512 4.696 6.921 3.393 17.078 9.279 23.019 14.434 14.562 31.595-9.171 41.007-17.18 16.858-14.338 40.293-16.218 56.916-31.65 18.483-17.155 29.813-40.353 46.125-59.357 20.575-23.971 65.91-52.316 50.659-90.244-4.729-11.755-15.411-20.055-26.461-26.264-2.402-1.349-4.918-2.69-6.598-4.87-2.547-3.304-2.672-7.871-2.049-11.994 2.265-14.989 12.511-27.32 19.445-40.798 15.32-29.784 15.597-72.457-8.091-98.206-28.634-31.122-84.687-22.46-112.947 4.638a85.31 85.31 0 0 0-1.862 1.846c-15.686 16.039-25.74 36.605-38.683 54.925-12.941 18.322-30.614 35.407-52.823 38.588-15.413 2.209-32.248-2.375-46.034 4.859-11.093 5.824-17.386 18.178-19.746 30.485Zm45.926-22.84c10.01-2.826 20.571-2.83 30.874-4.257 12.154-1.684 24.415-5.603 33.497-13.846 13.747-12.474 17.853-32.344 28.868-47.283 11.282-15.3 29.591-24.62 48.444-27.086 18.854-2.468 38.164 1.48 55.656 8.939 7.429 3.171 15.002 7.355 18.884 14.436 3.27 5.966 3.428 13.113 2.989 19.9-.673 10.309-2.587 20.533-5.631 30.404-4.954 16.055-13.041 34.465-25.521 46.139-4.113 3.849-9.652 9.446-8.032 15.793 2.152 8.44 12.893 7.048 19.32 6.596 5.496-.385 11.25.034 16.065 2.707 4.815 2.673 8.442 8.03 7.746 13.493-.608 4.758-4.154 8.512-6.719 12.566-5.666 8.941-6.749 19.909-9.363 30.164-6.394 25.076-22.247 46.507-37.75 67.228-9.462 12.647-17.088 31.353-32.483 34.902-12.841 2.96-29.084-.645-37.125 9.795-3.015 3.914-7.09 3.771-8.553 8.491-1.889 6.093-4.883 12.061-9.813 16.109-4.928 4.047-12.079 5.807-17.88 3.15-9.782-4.478-11.163-17.983-18.698-25.662-8.025-8.175-20.924-8.051-32.365-8.637-11.863-.607-23.883-2.648-34.407-8.161-10.524-5.513-19.442-14.881-22.374-26.392-4.925-19.319 7.322-38.324 17.958-55.18 10.435-16.541 20.193-35.713 16.1-54.841-3.705-17.306-18.45-33.614-12.804-50.384 3.319-9.854 13.106-16.254 23.117-19.083Z" stroke="#72517A" style="fill-opacity:0"/></g><defs><clipPath id="a"><path fill="#fff" transform="rotate(-149.141 279.242 284.587)" d="M0 0h433.535v523.913H0z"/></clipPath></defs></svg>