<svg width="36" height="36" fill="none" xmlns="http://www.w3.org/2000/svg"><g clip-path="url(#a)" fill="#fff"><path d="M36 19.082c-.218 5.406-2.948 10.496-8.383 14.104-.398.265-.797.5-1.298.389-.506-.116-.823-.444-.935-.935-.15-.64.163-1.09.69-1.414 1.783-1.101 3.322-2.472 4.505-4.197 3.377-4.932 3.994-10.21 1.431-15.602-2.554-5.38-6.977-8.335-12.968-8.873-.266-.026-.536-.03-.802-.052-1.028-.077-1.62-.568-1.513-1.328C16.852.282 17.452-.02 18.31 0c1.915.056 3.78.384 5.593 1.004C31.119 3.48 36.073 10.449 36 19.078v.005ZM18.506 35.996c-3.369-.03-6.013-.65-8.516-1.858-1.084-.525-1.423-1.174-1.028-1.921.381-.726 1.045-.837 2.082-.333 3.138 1.52 6.416 1.973 9.849 1.328.231-.043.459-.098.69-.124.741-.077 1.264.256 1.419.965.171.786-.27 1.302-1.008 1.473-1.337.312-2.695.491-3.488.47ZM7.642 30.073c-.026.632-.283 1-.75 1.205-.562.247-1.038.064-1.458-.342-2-1.93-3.492-4.189-4.435-6.802a15.766 15.766 0 0 1-.557-1.81c-.168-.748.09-1.35.882-1.538.763-.183 1.312.154 1.518.931.762 2.904 2.211 5.406 4.371 7.498.274.265.454.577.429.858ZM0 16.055c.236-1.908.712-3.791 1.564-5.572.348-.726.952-.96 1.65-.653.712.311.93.93.605 1.656a17.002 17.002 0 0 0-1.346 4.864c-.103.82-.579 1.298-1.41 1.187C.292 17.435-.038 16.87 0 16.055ZM8.019 5.397c.025.713-.759 1.58-1.466 1.627-.716.047-1.303-.474-1.329-1.174-.021-.696.78-1.593 1.47-1.644A1.25 1.25 0 0 1 8.02 5.397Z"/><path d="M18.6 21.303c0 .807.004 1.614 0 2.421-.004.483-.266.85-.681 1.003-.39.142-.832.039-1.115-.264-.214-.227-.283-.504-.283-.807 0-1.576-.004-3.151.009-4.727 0-.248-.06-.32-.317-.316-1.59.013-3.185.009-4.775.004-.81 0-1.324-.709-1.045-1.413.163-.414.54-.653 1.05-.653 1.581 0 3.163-.009 4.744.008.291 0 .343-.085.339-.35a435.549 435.549 0 0 1-.005-4.727c0-.734.592-1.234 1.265-1.084.492.11.81.529.81 1.101 0 1.576.008 3.151-.005 4.727 0 .265.06.333.33.333 1.59-.013 3.185-.013 4.775-.004.801 0 1.324.726 1.024 1.422-.197.457-.57.645-1.059.645h-4.718c-.399 0-.343-.047-.347.354v2.336l.004-.009Z"/></g><defs><clipPath id="a"><path fill="#fff" d="M0 0h36v36H0z"/></clipPath></defs></svg>