<svg width="73" height="74" fill="none" xmlns="http://www.w3.org/2000/svg"><path d="M34.132 2.158c2.879-.2 5.782-.073 8.626.428A34.944 34.944 0 0 1 68.305 22.05a34.873 34.873 0 0 1 3.347 14.133c0 1.117.015 2.237-.082 3.352-.481 6.848-3.054 13.53-7.283 18.937a34.942 34.942 0 0 1-11.969 9.796 34.963 34.963 0 0 1-9.784 3.185 35.299 35.299 0 0 1-9.889.245 34.907 34.907 0 0 1-14.42-5.055 35.001 35.001 0 0 1-11.69-12.048c-3.003-5.149-4.673-11.079-4.739-17.043A34.594 34.594 0 0 1 4.09 24.517a34.914 34.914 0 0 1 9.616-13.805 34.955 34.955 0 0 1 14.533-7.607 35.251 35.251 0 0 1 5.89-.948h.004Zm1.261 7.065c.294.007.59.014.885.014.017-.91.04-1.82.06-2.731.015-.437 0-.877.063-1.31.008.404.081.801.133 1.2l.394 2.857c.328.002.659.015.988.011.252-1.333.559-2.655.78-3.993.017.21.022.42.016.63-.03 1.125-.048 2.25-.08 3.375.329.015.659.017.989.022.034-1.606.069-3.21.11-4.817-.538-.009-1.076-.016-1.614-.028-.213 1.127-.407 2.257-.631 3.382l-.336-3.402c-.548.002-1.097-.024-1.645-.02-.038 1.603-.07 3.208-.112 4.81ZM32.974 4.57c-.373.057-.754.223-.963.552-.185.265-.201.604-.166.917.094.817.193 1.634.287 2.452.032.281.104.587.332.776.349.318.858.379 1.306.3.327-.058.674-.166.894-.43.254-.304.32-.723.269-1.107l-.271-2.298c-.04-.322-.107-.67-.36-.895-.346-.341-.88-.333-1.328-.266v-.001Zm7.745.064c-.278 1.581-.573 3.16-.856 4.74.556.095 1.11.205 1.67.29.399.053.913.036 1.12-.376.233-.488.426-1.065.275-1.605-.078-.286-.368-.407-.631-.463.283-.034.61-.054.789-.313a1.69 1.69 0 0 0 .237-1.31c-.12-.41-.559-.589-.94-.67a51.494 51.494 0 0 0-1.665-.293h.001Zm-11.99.887 1.06 4.694c.762-.174 1.524-.351 2.287-.527l-.162-.723c-.396.09-.794.185-1.19.272-.3-1.322-.597-2.647-.897-3.97-.366.083-.732.17-1.098.254Zm15.328-.283c-.36 1.565-.738 3.126-1.104 4.69.365.087.73.17 1.096.255l1.107-4.694c-.366-.085-.732-.175-1.1-.25v-.001Zm-17.084.708c-.473.098-.983.305-1.218.757-.168.307-.137.674-.034.997.252.796.51 1.59.76 2.387.086.275.228.563.498.696.572.315 1.286.128 1.798-.22.446-.296.542-.908.39-1.39-.238-.764-.487-1.523-.729-2.286-.097-.293-.218-.61-.486-.79-.28-.205-.652-.218-.98-.149l.001-.002Zm17.284 4.312c.3.099.602.199.906.292.175-.357.353-.716.536-1.071.194.065.389.128.584.191-.09.386-.181.773-.273 1.159.356.117.713.232 1.07.35.304-1.594.611-3.187.916-4.78-.49-.155-.977-.318-1.465-.476-.757 1.446-1.517 2.89-2.274 4.336v-.001Zm4.932-3.365c-.662 1.466-1.32 2.935-1.983 4.4.268.122.537.24.805.361.541-1.186 1.06-2.383 1.615-3.565-.282 1.302-.575 2.6-.862 3.9l1.345.6c.66-1.465 1.316-2.932 1.982-4.396-.274-.137-.558-.254-.836-.38-.47 1.037-.934 2.076-1.402 3.113.237-1.138.497-2.271.745-3.407-.47-.208-.938-.419-1.408-.626Zm-25.675.377c-.352.15-.735.322-.94.665-.255.348-.177.818-.035 1.195.266.625.547 1.24.816 1.864.166.378.341.8.72 1.014.423.238.947.142 1.362-.066.392-.18.76-.507.831-.952.087-.524-.228-.986-.412-1.45-.355.157-.71.312-1.064.472.13.33.316.641.405.986.024.178-.174.272-.325.267-.184-.06-.234-.261-.31-.415-.348-.817-.73-1.62-1.061-2.442-.145-.263.28-.525.445-.28.145.246.237.52.36.78l1.063-.473c-.188-.394-.3-.868-.69-1.123-.334-.264-.797-.194-1.165-.042Zm26.757 5.442c.271.166.536.341.81.5.254-.306.516-.605.774-.908l.52.325c-.176.356-.366.708-.544 1.063.319.196.636.396.952.596a2000.06 2000.06 0 0 0 2.044-4.423c-.435-.27-.87-.542-1.303-.816-1.085 1.22-2.172 2.44-3.254 3.664h.001ZM18.95 9.88c.634.926 1.29 1.837 1.913 2.77-.835-.78-1.668-1.564-2.497-2.351-.434.281-.85.589-1.278.882.914 1.317 1.831 2.632 2.744 3.948l.727-.508c-.746-1.076-1.5-2.146-2.238-3.228.968.922 1.945 1.834 2.914 2.756.406-.277.803-.566 1.212-.84-.902-1.326-1.83-2.635-2.74-3.954-.254.172-.503.35-.756.523l-.001.002Zm11.788 2.473c-.979.258-1.962.534-2.892.931-.595 1.56-1.167 3.13-1.75 4.694 1.267 2.035 2.526 4.073 3.794 6.106 5.37-.004 10.74.008 16.109-.006 1.14-1.707 2.274-3.417 3.431-5.112-.373-1.56-.778-3.113-1.16-4.672-5.354-2.737-11.707-3.414-17.532-1.94Zm23.45 2.986c.382.324.764.646 1.149.968.324.27.769.444 1.19.333.297-.07.543-.273.733-.504.473-.565.954-1.126 1.427-1.692.237-.301.419-.695.322-1.085-.087-.318-.337-.554-.577-.765-.376-.316-.752-.631-1.127-.948-1.04 1.23-2.08 2.46-3.117 3.692v.001Zm-38.1-3.217c-.528.191-1.023.587-1.23 1.12-.16.429.024.89.314 1.215.496.596.994 1.19 1.489 1.787.21.262.47.546.831.561.65.065 1.237-.377 1.577-.897.292-.448.147-1.052-.185-1.437-.555-.661-1.097-1.335-1.665-1.985-.268-.326-.72-.499-1.13-.365l-.001.001Zm4.823 5.152c1.47.003 2.94-.006 4.41.004.466-1.17.908-2.352 1.358-3.53a25.445 25.445 0 0 0-5.768 3.526Zm-7.819-2.415c1.157 1.11 2.297 2.24 3.457 3.345.256-.276.525-.537.782-.811a1122.21 1122.21 0 0 1-3.448-3.347c-.265.27-.528.542-.79.814Zm43.39 2.59 1.618 1.687c.181-.17.36-.343.54-.514l-.842-.88c.375-.351.734-.721 1.116-1.065.297.254.55.561.826.84.178-.175.359-.346.538-.52-.272-.286-.547-.568-.82-.853.252-.237.498-.48.75-.716.272.286.546.568.818.852.176-.173.353-.346.536-.51a107.443 107.443 0 0 0-1.6-1.668c-1.159 1.116-2.32 2.23-3.48 3.346v.001Zm-6.412-2.153c.294 1.159.603 2.312.9 3.47 1.185 0 2.372.003 3.557 0a25.189 25.189 0 0 0-4.456-3.469Zm-38.386.996c-.247.295-.51.622-.535 1.023-.066.434.227.819.534 1.09.57.471 1.148.934 1.721 1.403.295.234.645.466 1.04.434.458-.02.833-.34 1.096-.692.259-.336.433-.784.295-1.206-.159-.506-.652-.773-1.028-1.1l-.734.9c.256.228.547.417.786.664.199.214-.156.55-.37.369-.673-.519-1.32-1.071-1.984-1.6-.135-.115-.29-.216-.386-.369-.119-.191.15-.476.346-.351.24.153.446.354.673.527.246-.3.491-.6.735-.903-.358-.273-.69-.656-1.17-.687-.408-.06-.765.207-1.019.498Zm47.419 4.215c.215.306.438.607.655.913.624-.447 1.244-.902 1.868-1.35.232.318.46.639.694.957l.573-.417c-.23-.319-.46-.637-.689-.957.286-.211.577-.418.866-.628l.69.957c.202-.143.404-.29.605-.436-.45-.624-.897-1.25-1.35-1.87-1.304.944-2.607 1.888-3.912 2.83Zm-39.557-2.05a25.91 25.91 0 0 0-4.553 5.636c-2.536 4.225-3.8 9.203-3.56 14.125.243.284.545.516.809.78 1.22 1.146 2.442 2.287 3.66 3.432 2.456-.789 4.912-1.583 7.366-2.38 1.74-5.059 3.484-10.116 5.225-15.174.039-.093.043-.198-.023-.28-1.2-2.09-2.398-4.184-3.598-6.277-1.697.002-3.394-.002-5.091.002-.1-.012-.164.079-.234.134l-.001.001Zm-9.576.21c-.283.432-.567.863-.848 1.297 1.197 1.096 2.39 2.197 3.586 3.294.179-.265.357-.531.524-.803-.303-.256-.595-.523-.891-.784.112-.174.224-.347.338-.518.346.189.698.37 1.045.559.206-.317.42-.63.617-.952-1.46-.691-2.914-1.395-4.37-2.092H9.97Zm40.268 1.093c-1.26 1.893-2.532 3.776-3.796 5.665 1.351 5.25 2.682 10.504 4.031 15.754 2.4.987 4.8 1.982 7.2 2.97 1.352-.877 2.7-1.757 4.055-2.628a25.6 25.6 0 0 0 .395-6.096c-.29-5.615-2.555-11.091-6.29-15.292-.158-.143-.263-.421-.517-.379-1.693.005-3.385-.004-5.078.004v.002Zm11.384 2.256c-.288.154-.576.364-.694.682-.157.44-.015.926.213 1.313.185.301.432.61.793.695.355.09.718-.042 1.032-.202 1.054-.558 2.106-1.12 3.161-1.675-.168-.335-.345-.666-.52-.997-1.077.566-2.15 1.138-3.224 1.708-.12.059-.243.122-.378.13-.16-.02-.267-.195-.254-.344.062-.149.217-.217.347-.293 1.08-.57 2.158-1.144 3.239-1.714-.176-.333-.351-.664-.524-.996l-3.192 1.693h.001Zm-53.758.36-.75 1.398c1.412.758 2.83 1.507 4.241 2.266.179-.332.358-.664.534-.997-.645-.345-1.291-.688-1.937-1.032.09-.147.192-.33.386-.346.676.118 1.19.655 1.865.786.199-.348.379-.707.575-1.057-.742-.005-1.278-.65-1.98-.8-.368-.077-.647.224-.815.51.055-.199.119-.408.074-.615-.042-.293-.284-.497-.524-.638-.28-.166-.62-.289-.942-.183-.336.11-.56.413-.727.709Zm57.944 1.363c.098.249.198.497.295.745-1.263.506-2.523 1.019-3.785 1.525.136.35.274.697.413 1.045 1.264-.506 2.525-1.018 3.79-1.525.093.237.188.473.283.709.229-.092.458-.186.688-.276-.328-.834-.665-1.665-.994-2.5-.231.09-.461.183-.69.277Zm-58.939.649c-.29.715-.583 1.427-.875 2.141l4.46 1.806c.295-.726.596-1.45.888-2.177-.23-.09-.458-.183-.686-.276-.153.378-.309.754-.463 1.13-.48-.198-.965-.381-1.441-.59.156-.362.302-.728.45-1.093-.23-.09-.459-.185-.687-.276l-.449 1.098c-.318-.13-.638-.258-.955-.388.148-.366.3-.731.449-1.097-.23-.093-.459-.188-.689-.278h-.002Zm22.827.801c-1.754 5.022-3.523 10.04-5.272 15.063 4.037 2.86 8.072 5.722 12.106 8.584 4.24-2.44 8.477-4.889 12.716-7.333-1.297-5.439-2.586-10.878-3.883-16.316-5.222.002-10.444-.003-15.666.002h-.001Zm33.362 2.824c.164.562.305 1.13.484 1.687.125.372.38.793.826.783.526-.02 1.12-.085 1.528-.455.23-.196.22-.52.148-.788.154.231.304.522.61.57a1.67 1.67 0 0 0 1.274-.34c.326-.274.318-.751.227-1.13-.136-.555-.312-1.1-.454-1.653-1.55.433-3.097.882-4.643 1.326Zm-56.943-.373c-.358.122-.562.475-.673.815-.164.529-.312 1.064-.47 1.594 1.542.444 3.084.888 4.627 1.328.135-.466.272-.932.409-1.398.09-.304.107-.636.016-.942-.118-.378-.456-.652-.828-.761-.71-.207-1.42-.407-2.13-.614-.308-.091-.644-.116-.952-.022Zm61.107 2.734c-.644.127-1.29.252-1.935.377-.338.069-.716.101-.978.35-.324.33-.414.83-.33 1.274.073.427.247.9.663 1.1.475.247 1.019.085 1.511-.009.694-.146 1.397-.248 2.083-.424.46-.116.782-.568.773-1.037.003-.55-.125-1.194-.61-1.525-.344-.243-.79-.188-1.177-.105Zm-62.427.548c-.11.762-.223 1.523-.333 2.286l4.768.67c.113-.773.224-1.548.339-2.322-.245-.035-.49-.069-.736-.101-.058.402-.115.803-.175 1.205l-1.54-.216c.055-.392.113-.782.17-1.172-.244-.037-.49-.071-.734-.104-.055.39-.115.78-.171 1.17-.341-.047-.683-.094-1.024-.144.056-.391.116-.783.17-1.174-.246-.03-.49-.067-.734-.1v.002Zm-.303 2.742c-.07.766-.143 1.533-.213 2.3l4.797.42c.036-.374.07-.748.104-1.12l-2.29-.2.11-1.178c-.234-.023-.469-.043-.703-.065-.038.394-.074.788-.11 1.181l-1.065-.094c.034-.394.077-.787.104-1.183-.245-.018-.49-.04-.734-.06Zm59.827.447c.063.778.13 1.555.191 2.334.246-.02.491-.042.738-.061-.029-.406-.066-.812-.097-1.216l4.06-.355c-.026-.374-.06-.747-.09-1.12-1.6.138-3.2.279-4.802.419v-.001ZM4.2 37.925c.12 5.936 1.94 11.821 5.175 16.798a32.67 32.67 0 0 0 11.083 10.53 32.248 32.248 0 0 0 15.25 4.3c4.834.14 9.695-.816 14.113-2.784a33.007 33.007 0 0 0 9.455-6.363 33.008 33.008 0 0 0 7.028-9.796 32.391 32.391 0 0 0 3.048-12.685c-1.63.004-3.262-.008-4.891.006a27.673 27.673 0 0 1-1.74 8.613 27.99 27.99 0 0 1-6.792 10.31 29.166 29.166 0 0 1-6.156 4.462c-4.278 2.328-9.176 3.522-14.049 3.342a27.456 27.456 0 0 1-15.278-5.255 27.705 27.705 0 0 1-9.268-11.74 27.459 27.459 0 0 1-2.09-9.734c-1.629-.01-3.258-.003-4.888-.004Zm7.388 2.27a24.678 24.678 0 0 0 2.073 7.332c.48-1.334.99-2.657 1.462-3.994-1.188-1.103-2.35-2.232-3.535-3.339Zm4.431 4.008c-.533 1.62-1.066 3.24-1.607 4.856a25.358 25.358 0 0 0 3.616 5.082c3.35 3.668 7.8 6.322 12.63 7.49 1.553-1.006 3.106-2.016 4.657-3.025.03-2.867.088-5.734.1-8.602-3.995-2.809-7.978-5.637-11.975-8.444-2.474.885-4.948 1.763-7.422 2.644h.001Zm20.889 6.142c-.005 2.797-.035 5.593-.044 8.39 1.291 1.097 2.581 2.196 3.88 3.287 2.659-.44 5.25-1.298 7.638-2.548a25.86 25.86 0 0 0 9.708-8.842c-.227-1.569-.459-3.136-.682-4.704-2.395-1.092-4.802-2.162-7.202-3.245-4.434 2.552-8.865 5.107-13.298 7.662Zm21.401-5.348c.21 1.406.403 2.816.625 4.22a25.097 25.097 0 0 0 2.474-6.236c-1.035.669-2.067 1.344-3.099 2.016ZM32.493 62.008c2.287.379 4.625.447 6.93.19-1.048-.891-2.09-1.786-3.14-2.677-1.264.828-2.531 1.652-3.79 2.487Z" fill="#fff"/><path d="M33.032 5.373c.171-.108.448-.063.466.173.128.956.234 1.916.342 2.875.042.185-.102.37-.294.358-.163.02-.269-.139-.277-.285-.115-.912-.214-1.828-.326-2.742-.01-.128-.048-.3.089-.38ZM41.71 5.486c.197.032.508.062.502.328-.017.295-.044.61-.192.872-.125.175-.363.081-.539.068.074-.423.154-.845.23-1.268ZM26.88 6.776c.17-.1.36.015.397.195.295.908.59 1.817.871 2.73.102.232-.163.45-.38.38-.142-.074-.177-.24-.225-.376-.272-.87-.56-1.734-.828-2.604-.06-.137.026-.286.165-.325ZM46.04 8.772c.303-.614.592-1.234.895-1.848-.15.663-.319 1.324-.475 1.986-.14-.045-.28-.09-.42-.138ZM41.096 8.88c.088-.491.176-.984.268-1.475.184.045.521.051.499.321-.019.33-.065.666-.18.977-.094.236-.381.234-.587.178ZM52.36 11.7c.433-.515.853-1.042 1.294-1.552-.294.601-.614 1.189-.923 1.783a52.706 52.706 0 0 1-.371-.231ZM55.527 15.546c.737-.871 1.472-1.744 2.211-2.616.098.104.245.191.263.347.004.166-.106.302-.202.423-.49.579-.98 1.158-1.467 1.737-.112.131-.239.264-.409.315-.16 0-.273-.122-.395-.208v.002ZM15.983 13.052c.163-.104.305.08.404.189.586.709 1.184 1.409 1.764 2.122.181.179.019.459-.2.496-.158-.006-.255-.145-.35-.252-.584-.715-1.188-1.413-1.767-2.131-.14-.153.002-.347.15-.425v.001ZM10.194 19.827c.603.308 1.194.642 1.792.961l-.24.366c-.519-.441-1.036-.884-1.553-1.327ZM8.236 23.096c.087-.14.156-.352.356-.343.294.036.569.193.788.388.177.16.047.38-.047.542-.364-.2-.73-.392-1.096-.587ZM66.12 28.305l1.235-.353c.048.189.168.468-.064.584-.269.13-.568.231-.869.226-.221-.023-.24-.29-.304-.457h.001ZM64.04 28.9c.48-.136.96-.277 1.441-.41.031.154.103.311.06.472-.124.17-.352.198-.536.265-.23.058-.473.17-.712.1-.164-.082-.21-.266-.253-.427ZM5.972 29.128c.04-.233.205-.494.48-.417.706.169 1.399.399 2.102.59.24.074.507.113.7.29.115.143.03.325-.01.48-1.09-.32-2.182-.628-3.272-.942ZM67.61 31.445c.165-.016.357-.117.507-.002.15.16.133.481-.124.515-.953.197-1.91.382-2.868.557-.18.048-.353-.105-.346-.286-.03-.152.125-.255.256-.278.856-.176 1.717-.332 2.576-.505Z" fill="#fff"/><path d="M34.041.857a36.28 36.28 0 0 1 20.02 4.318 36.233 36.233 0 0 1 18.087 24.167 36.22 36.22 0 0 1 .022 15.219 36.225 36.225 0 0 1-7.53 15.553 36.23 36.23 0 0 1-23.41 12.849c-4.829.604-9.78.228-14.46-1.114A36.236 36.236 0 0 1 .702 40.97a36.26 36.26 0 0 1 1.842-16.014A36.24 36.24 0 0 1 34.042.858Zm.09 1.3c-1.985.155-3.96.462-5.89.95a34.972 34.972 0 0 0-14.533 7.606 34.92 34.92 0 0 0-9.616 13.805 34.594 34.594 0 0 0-2.293 13.035c.066 5.964 1.736 11.894 4.74 17.043a34.993 34.993 0 0 0 11.69 12.048 34.904 34.904 0 0 0 14.419 5.055c3.286.381 6.625.3 9.889-.245a34.999 34.999 0 0 0 9.784-3.185 34.95 34.95 0 0 0 19.252-28.733c.097-1.115.081-2.235.082-3.352a34.904 34.904 0 0 0-3.347-14.133A34.942 34.942 0 0 0 42.761 2.587c-2.844-.501-5.747-.628-8.626-.428l-.003-.001Z" fill="#CEAC29"/><path d="M35.393 9.223c.044-1.602.074-3.207.112-4.81.547-.004 1.096.022 1.645.019.114 1.134.223 2.268.336 3.402.224-1.124.42-2.255.63-3.382.539.012 1.077.02 1.615.028-.041 1.605-.076 3.211-.11 4.817-.33-.005-.66-.007-.99-.022.034-1.124.052-2.249.081-3.374.005-.21 0-.422-.017-.631-.22 1.338-.528 2.661-.78 3.993-.328.003-.658-.01-.987-.011l-.394-2.857c-.051-.399-.125-.796-.133-1.2-.063.434-.048.874-.063 1.31-.02.91-.043 1.82-.06 2.731-.295 0-.59-.007-.885-.014ZM32.973 4.572c.449-.067.982-.076 1.329.265.252.226.32.574.359.895l.27 2.298c.052.384-.014.803-.268 1.106-.22.265-.567.373-.893.431-.449.079-.959.018-1.306-.3-.228-.189-.3-.494-.332-.775-.095-.818-.194-1.636-.288-2.453-.035-.312-.02-.65.166-.917.209-.33.59-.495.963-.552v.002Zm.059.8c-.137.08-.1.252-.089.38.112.914.21 1.83.327 2.742.007.146.113.305.276.285.193.012.336-.174.294-.358-.108-.959-.213-1.92-.342-2.875-.018-.237-.294-.282-.466-.173ZM40.718 4.636c.556.089 1.112.186 1.666.293.38.082.818.261.94.67.1.44.019.936-.238 1.31-.178.259-.506.28-.789.313.264.055.555.177.631.463.15.54-.042 1.116-.274 1.605-.208.413-.723.429-1.121.375-.56-.084-1.114-.194-1.67-.289.283-1.58.578-3.159.856-4.74Zm.993.85c-.076.423-.156.845-.23 1.268.175.013.413.108.54-.068.147-.262.174-.577.19-.872.007-.266-.305-.296-.5-.328Zm-.615 3.395c.206.057.493.058.587-.178.114-.31.162-.647.18-.977.022-.27-.315-.276-.499-.321-.092.491-.18.984-.268 1.476ZM28.728 5.522c.366-.083.732-.17 1.098-.253.3 1.323.597 2.647.898 3.97l1.189-.273.162.723c-.762.176-1.524.353-2.288.527-.352-1.565-.706-3.13-1.059-4.694ZM44.055 5.24c.368.075.734.165 1.1.25l-1.107 4.694c-.366-.084-.73-.167-1.095-.254.366-1.564.743-3.126 1.103-4.691ZM26.972 5.947c.328-.068.7-.056.98.15.268.18.388.495.486.79.242.762.49 1.521.73 2.284.151.484.055 1.096-.39 1.39-.513.35-1.227.536-1.8.221-.27-.133-.41-.421-.496-.696-.252-.796-.51-1.59-.762-2.387-.103-.323-.134-.69.034-.997.234-.452.746-.66 1.219-.756l-.001.001Zm-.092.829c-.14.038-.226.188-.165.325.269.87.556 1.735.828 2.604.047.136.082.303.224.375.218.071.483-.147.38-.379-.28-.912-.574-1.822-.87-2.73-.038-.18-.227-.296-.397-.195ZM44.255 10.259c.758-1.445 1.518-2.89 2.274-4.336.489.157.976.32 1.466.477-.304 1.592-.611 3.185-.917 4.778-.356-.117-.714-.23-1.069-.35l.273-1.158a41.41 41.41 0 0 1-.585-.191c-.182.355-.36.713-.536 1.071-.304-.093-.605-.193-.906-.292Zm1.785-1.487c.139.048.279.093.42.138.157-.662.325-1.322.474-1.986-.302.614-.592 1.234-.894 1.848ZM49.188 6.894c.47.207.937.418 1.408.626-.247 1.136-.507 2.269-.745 3.407l1.402-3.113c.279.125.562.243.836.38-.666 1.463-1.323 2.93-1.982 4.396-.449-.199-.897-.399-1.345-.6.288-1.3.579-2.598.862-3.9-.554 1.181-1.074 2.377-1.614 3.565-.27-.12-.538-.239-.805-.36.662-1.466 1.32-2.935 1.982-4.4h.001ZM23.514 7.27c.367-.15.83-.221 1.165.043.388.255.5.729.69 1.123-.355.156-.71.315-1.064.472-.121-.26-.214-.533-.36-.78-.163-.244-.59.018-.445.281.332.822.713 1.625 1.06 2.442.076.153.128.355.311.415.152.005.349-.089.325-.267-.089-.345-.274-.657-.405-.986.354-.16.71-.316 1.064-.473.184.465.499.928.412 1.45-.07.446-.439.773-.83.954-.416.207-.939.304-1.363.064-.378-.212-.554-.635-.72-1.013-.269-.623-.55-1.24-.815-1.864-.142-.377-.22-.847.035-1.195.204-.343.587-.516.94-.665ZM50.27 12.713c1.08-1.224 2.168-2.443 3.254-3.664.433.274.868.547 1.303.817-.68 1.476-1.361 2.949-2.044 4.423-.318-.2-.633-.4-.952-.597.178-.355.368-.706.543-1.063a67.478 67.478 0 0 1-.52-.325c-.257.304-.519.603-.772.909-.276-.16-.54-.335-.811-.5h-.001Zm2.09-1.012.37.23c.31-.593.63-1.18.924-1.782-.44.51-.861 1.036-1.294 1.553V11.7ZM18.948 9.88c.254-.174.502-.352.756-.524.912 1.32 1.838 2.628 2.741 3.955-.409.273-.806.56-1.212.839-.969-.922-1.946-1.835-2.914-2.756.737 1.082 1.492 2.15 2.237 3.227-.24.17-.483.34-.726.51-.913-1.318-1.83-2.633-2.744-3.949.427-.293.843-.6 1.278-.883.83.788 1.661 1.573 2.497 2.352-.623-.934-1.28-1.845-1.914-2.77l.001-.002ZM54.187 15.338a1904.16 1904.16 0 0 1 3.117-3.692l1.126.948c.24.21.49.446.578.765.096.389-.085.784-.322 1.085-.473.566-.953 1.127-1.427 1.692-.19.231-.435.434-.733.504-.421.111-.867-.064-1.19-.333-.384-.321-.766-.645-1.149-.968Zm1.34.208c.12.086.234.209.394.208.17-.05.296-.184.41-.315.486-.58.975-1.16 1.465-1.737.096-.121.207-.258.202-.423-.018-.157-.165-.243-.262-.347-.738.871-1.473 1.744-2.21 2.616v-.002ZM16.088 12.12c.41-.134.863.039 1.13.365.568.65 1.11 1.324 1.664 1.985.332.385.478.989.186 1.437-.339.52-.926.962-1.577.897-.36-.015-.62-.299-.831-.56-.494-.598-.993-1.192-1.489-1.788-.29-.325-.476-.786-.314-1.214.207-.534.702-.93 1.23-1.12v-.002Zm-.104.931c-.148.077-.29.272-.15.425.58.718 1.184 1.416 1.769 2.131.094.107.19.245.348.252.22-.037.382-.317.2-.496-.58-.713-1.177-1.413-1.763-2.122-.1-.108-.24-.293-.404-.189ZM13.092 14.857c.262-.272.526-.543.79-.814 1.146 1.12 2.298 2.233 3.449 3.347-.258.274-.526.536-.782.81-1.16-1.105-2.3-2.234-3.457-3.343ZM56.482 17.447c1.16-1.116 2.322-2.23 3.481-3.346.538.552 1.074 1.106 1.6 1.668-.185.164-.36.337-.537.51-.272-.284-.546-.566-.817-.851-.252.236-.498.478-.75.715.272.284.547.567.819.854-.179.172-.36.344-.537.518-.277-.277-.53-.585-.827-.839-.381.343-.74.713-1.115 1.064l.842.881-.54.514c-.538-.563-1.08-1.124-1.62-1.687ZM11.685 16.29c.252-.29.61-.559 1.018-.497.48.03.812.413 1.17.686-.243.303-.49.603-.735.903-.227-.173-.432-.374-.673-.527-.196-.125-.465.16-.345.351.096.153.25.254.385.368.664.53 1.311 1.082 1.984 1.6.214.181.569-.154.37-.368-.239-.247-.53-.437-.786-.664l.734-.9c.376.328.87.595 1.028 1.1.139.422-.037.872-.295 1.207-.263.352-.637.672-1.097.69-.395.033-.743-.2-1.039-.433-.573-.47-1.15-.931-1.721-1.403-.307-.271-.6-.656-.533-1.09.024-.4.287-.728.535-1.023ZM59.102 20.506l3.91-2.83c.454.62.901 1.245 1.35 1.869-.2.146-.402.293-.604.436l-.69-.957c-.29.21-.578.417-.866.628.23.32.458.638.69.957l-.574.417c-.233-.318-.462-.639-.694-.957-.624.448-1.243.903-1.868 1.35-.218-.305-.44-.607-.655-.913ZM9.968 18.667c1.458.697 2.911 1.402 4.37 2.092-.197.322-.41.635-.617.952-.346-.19-.698-.37-1.044-.56a48.56 48.56 0 0 0-.338.52c.297.26.589.527.891.783-.167.272-.346.539-.524.803-1.197-1.097-2.39-2.198-3.586-3.294.28-.434.565-.864.847-1.296h.001Zm.226 1.16c.517.442 1.034.886 1.552 1.327l.241-.366c-.598-.319-1.19-.652-1.792-.96h-.001ZM61.622 22.015l3.192-1.693c.174.332.348.664.524.996-1.081.57-2.16 1.144-3.239 1.714-.13.076-.286.144-.346.293-.014.15.093.325.253.344.135-.01.258-.071.378-.13 1.074-.57 2.147-1.142 3.224-1.708.175.331.352.662.52.997-1.055.556-2.107 1.116-3.16 1.675-.315.16-.678.293-1.033.203-.361-.087-.608-.395-.793-.696-.23-.387-.37-.873-.213-1.313.118-.318.406-.528.694-.682ZM7.864 22.376c.167-.296.39-.597.727-.709.322-.106.663.017.942.183.24.14.482.346.524.638.045.207-.02.416-.074.615.168-.287.447-.587.815-.51.702.15 1.238.795 1.98.8-.195.35-.376.709-.575 1.057-.676-.131-1.189-.668-1.865-.786-.194.015-.296.199-.386.346l1.937 1.032c-.176.332-.355.664-.534.997-1.413-.759-2.83-1.507-4.241-2.266.248-.466.5-.932.75-1.398v.001Zm.372.72c.365.195.733.387 1.096.587.094-.162.224-.383.047-.542-.22-.195-.494-.353-.788-.388-.2-.009-.27.205-.356.343h.001ZM65.808 23.74c.23-.094.46-.187.69-.277.33.834.668 1.665.995 2.499-.23.09-.46.183-.688.276-.096-.237-.19-.473-.284-.71-1.264.508-2.526 1.02-3.789 1.526-.139-.348-.279-.696-.414-1.045 1.263-.506 2.523-1.019 3.785-1.525-.097-.249-.198-.496-.294-.745ZM6.869 24.388c.23.09.46.184.688.278-.147.366-.3.73-.448 1.097l.955.388.449-1.098c.23.092.458.186.687.276-.148.364-.293.73-.45 1.092.476.21.962.393 1.44.592.154-.378.31-.754.464-1.13.228.093.457.185.686.275-.292.727-.593 1.45-.888 2.177-1.487-.602-2.974-1.202-4.46-1.806.292-.714.586-1.426.875-2.141h.002ZM63.058 28.013c1.547-.444 3.093-.894 4.643-1.326.142.554.319 1.098.455 1.652.09.38.1.857-.228 1.131a1.67 1.67 0 0 1-1.274.34c-.305-.048-.455-.339-.61-.57.072.267.083.593-.148.788-.408.37-1.002.435-1.528.455-.446.009-.702-.41-.826-.783-.178-.557-.321-1.125-.484-1.687Zm3.061.291c.064.166.083.434.304.457.3.006.6-.097.87-.226.231-.116.11-.395.063-.584l-1.236.353Zm-2.079.596c.044.16.09.345.254.428.24.07.48-.043.712-.1.183-.07.411-.098.535-.266.043-.16-.029-.317-.06-.473-.481.134-.961.275-1.44.411ZM6.116 27.64c.307-.094.644-.069.951.022.709.206 1.42.406 2.13.614.373.108.71.384.829.761.091.306.074.64-.017.942l-.408 1.398c-1.542-.44-3.084-.884-4.627-1.328.158-.53.305-1.065.47-1.594.11-.34.314-.693.673-.815h-.001Zm-.144 1.488c1.09.314 2.183.62 3.272.941.04-.154.124-.336.01-.48-.191-.178-.46-.217-.7-.29-.702-.19-1.396-.421-2.102-.59-.276-.076-.44.185-.48.418ZM67.222 30.375c.388-.083.833-.138 1.177.105.486.332.613.974.61 1.525.009.47-.313.921-.773 1.037-.686.177-1.39.278-2.083.424-.493.094-1.036.256-1.51.009-.417-.2-.59-.674-.664-1.1-.084-.444.006-.944.33-1.274.262-.249.64-.281.978-.35.645-.125 1.29-.25 1.935-.377v.001Zm.389 1.07c-.859.173-1.719.33-2.576.505-.13.024-.286.127-.256.278-.007.181.165.335.346.286.958-.176 1.915-.36 2.868-.557.257-.034.273-.353.124-.515-.15-.114-.342-.014-.506.002v.001ZM4.796 30.923c.245.033.488.069.733.1-.053.392-.114.783-.169 1.174.34.05.683.097 1.024.145.056-.39.115-.781.17-1.171.245.032.49.067.736.103-.058.39-.115.781-.171 1.172l1.54.217c.06-.402.117-.803.175-1.205.245.032.49.066.736.1-.115.775-.226 1.55-.34 2.324-1.589-.225-3.178-.447-4.767-.671.11-.763.222-1.525.333-2.286v-.002ZM4.493 33.665c.245.021.49.043.734.061-.027.395-.07.789-.104 1.183l1.065.094c.036-.393.072-.787.11-1.18.234.02.47.041.703.063-.037.393-.072.786-.11 1.18.764.065 1.527.133 2.29.198l-.104 1.12c-1.6-.138-3.197-.279-4.797-.42l.213-2.299ZM64.32 34.112l4.803-.42c.029.374.062.747.09 1.12l-4.061.356c.031.405.069.811.097 1.216-.246.02-.492.042-.738.061-.061-.779-.128-1.556-.191-2.334Z" fill="#040000"/><path d="M30.737 12.352c5.826-1.473 12.178-.796 17.533 1.941.382 1.559.787 3.111 1.16 4.672-1.157 1.695-2.292 3.406-3.432 5.112-5.369.014-10.74.002-16.108.006-1.269-2.033-2.528-4.071-3.794-6.106.581-1.565 1.154-3.135 1.75-4.694.93-.397 1.912-.673 2.891-.93ZM20.911 17.273a25.48 25.48 0 0 1 5.768-3.525c-.45 1.177-.892 2.358-1.358 3.53-1.47-.01-2.94 0-4.41-.005ZM50.07 15.294c1.61.984 3.108 2.151 4.456 3.47-1.185.002-2.372.002-3.558 0-.295-1.159-.604-2.312-.899-3.47h.001ZM19.545 18.455c.069-.054.133-.146.234-.134 1.697-.004 3.394 0 5.091-.002l3.598 6.278c.066.082.062.186.023.28-1.74 5.056-3.484 10.114-5.225 15.172-2.454.798-4.91 1.592-7.366 2.381-1.218-1.145-2.44-2.287-3.66-3.431-.264-.265-.566-.497-.809-.78-.24-4.924 1.025-9.901 3.56-14.126a25.912 25.912 0 0 1 4.553-5.637h.001ZM50.237 19.76c1.693-.009 3.386 0 5.079-.005.253-.043.358.236.516.379 3.735 4.2 6 9.677 6.29 15.292a25.549 25.549 0 0 1-.395 6.096c-1.354.872-2.703 1.751-4.056 2.628-2.4-.99-4.798-1.983-7.199-2.97-1.349-5.25-2.68-10.504-4.03-15.754 1.263-1.89 2.536-3.772 3.795-5.665v-.002ZM29.696 25.189c5.222-.006 10.444 0 15.667-.002 1.296 5.438 2.586 10.878 3.882 16.316-4.239 2.444-8.475 4.892-12.716 7.333-4.035-2.861-8.068-5.725-12.106-8.584 1.75-5.024 3.518-10.04 5.272-15.063h.001ZM64.462 37.93c1.63-.013 3.26-.001 4.89-.005a32.393 32.393 0 0 1-3.047 12.685 33.008 33.008 0 0 1-7.028 9.796c-.74-.768-1.467-1.548-2.206-2.317-.377-.415-.79-.797-1.14-1.233a27.99 27.99 0 0 0 6.79-10.311 27.673 27.673 0 0 0 1.74-8.613v-.001ZM11.59 40.194c1.184 1.106 2.347 2.235 3.534 3.34-.471 1.337-.983 2.659-1.462 3.993a24.678 24.678 0 0 1-2.073-7.333ZM16.02 44.204c2.474-.881 4.948-1.759 7.422-2.644 3.997 2.808 7.98 5.635 11.975 8.444-.012 2.868-.072 5.735-.1 8.602-1.551 1.01-3.104 2.02-4.657 3.025-4.832-1.167-9.28-3.822-12.63-7.49a25.366 25.366 0 0 1-3.616-5.081c.54-1.617 1.074-3.237 1.607-4.857v.001ZM36.909 50.345c4.433-2.555 8.864-5.11 13.298-7.662 2.4 1.081 4.807 2.152 7.202 3.245.224 1.568.456 3.135.682 4.704a25.86 25.86 0 0 1-9.707 8.842 25.444 25.444 0 0 1-7.64 2.548c-1.298-1.09-2.587-2.19-3.879-3.287.009-2.797.04-5.593.044-8.39ZM58.31 44.997c1.032-.672 2.063-1.347 3.098-2.016a25.166 25.166 0 0 1-2.474 6.236c-.221-1.405-.414-2.814-.624-4.22ZM32.494 62.008c1.26-.835 2.525-1.66 3.79-2.487 1.047.89 2.09 1.786 3.139 2.677a25.337 25.337 0 0 1-6.93-.19Z" fill="#C0181F"/><path d="M4.2 37.925c1.631 0 3.26-.006 4.89.004.1 3.335.804 6.653 2.088 9.734a27.716 27.716 0 0 0 9.269 11.74 27.456 27.456 0 0 0 15.278 5.255c0 1.631-.02 3.263-.016 4.895a32.264 32.264 0 0 1-15.25-4.3 32.651 32.651 0 0 1-11.083-10.53C6.142 49.747 4.32 43.861 4.201 37.925Z" fill="#F0C933"/><path d="M49.774 61.317a29.173 29.173 0 0 0 6.156-4.461c.353.435.765.818 1.141 1.233.739.769 1.466 1.549 2.206 2.317a32.97 32.97 0 0 1-9.455 6.363 32.495 32.495 0 0 1-14.114 2.784c-.003-1.632.017-3.263.017-4.895 4.873.18 9.77-1.014 14.049-3.342Z" fill="#1F274E"/></svg>