<svg width="66" height="66" fill="none" xmlns="http://www.w3.org/2000/svg"><path d="M56.93 55.51c.18-.2.37-.39.55-.59l.41-.47c.22-.25.44-.51.65-.77.08-.09.15-.18.22-.28a32.732 32.732 0 0 0 6.87-16.41c.01-.08.02-.18.04-.26.04-.35.07-.72.11-1.08.01-.21.04-.42.05-.63.01-.28.03-.56.04-.84.01-.28.02-.57.02-.86v-.74c0-.3-.01-.59-.02-.89 0-.26-.02-.52-.04-.78-.01-.25-.04-.49-.06-.74l-.09-.98c-.01-.13-.04-.28-.05-.41C63.57 12.56 49.73 0 32.94 0 14.75 0 0 14.75 0 32.95c0 15.74 11.04 28.9 25.81 32.16.1.02.19.05.29.06.63.13 1.27.25 1.91.35.4.06.79.11 1.19.15l.57.06c1.08.11 2.16.18 3.25.18 2.17 0 4.37-.24 6.55-.69h.01c.44-.09.87-.19 1.31-.3.29-.07.57-.15.86-.23.15-.04.29-.08.44-.13 2.9-.85 5.63-2.08 8.14-3.65.08-.06.17-.11.25-.16.34-.22.68-.44 1.02-.67.16-.11.32-.23.48-.34.25-.18.5-.36.75-.55.21-.16.42-.33.63-.5.19-.16.39-.3.57-.47.23-.19.46-.39.68-.59.16-.15.33-.29.5-.44.22-.21.44-.42.66-.62.16-.16.33-.32.49-.47.18-.18.37-.37.55-.57l.02-.02ZM30.8 31.5l-13.48 5.92c-1.91-4.92-2.78-9.89-2.61-14.62 3.58-.83 7.13-1.98 10.73-3.54l5.37 12.24h-.01Zm-2.84-13.42c3.13-1.52 6.33-3.39 9.62-5.68 3.71 3.12 6.87 7.21 9.25 12.07l-13.47 5.91-5.4-12.3Zm3.96 15.97 6.25 14.25a62.944 62.944 0 0 0-9.48 5.26c-4.18-3.46-7.71-8.12-10.27-13.59l13.5-5.92Zm2.56-1.12 13.5-5.92c2.34 5.7 3.34 11.58 3 17.1-3.73.86-7.12 1.9-10.23 3.13l-6.27-14.31Zm5.43-22.16c1.98-1.47 3.99-3.07 6.06-4.88 5.65 2.7 10.43 7.17 13.54 13.02l-10.12 4.44c-2.45-5.02-5.69-9.26-9.47-12.58h-.01Zm-2.2-1.87a31.025 31.025 0 0 0-11.26-5.27 30 30 0 0 1 6.5-.74c3.46 0 6.85.67 10.07 1.81a86.6 86.6 0 0 1-5.3 4.2h-.01Zm-2.47 1.73c-2.87 1.93-5.66 3.55-8.4 4.88l-4.31-9.82c4.52.49 8.83 2.25 12.71 4.94Zm-10.93 6.06a60.045 60.045 0 0 1-9.35 3.13c.61-4.8 2.25-9.27 5.02-13.01l4.34 9.88h-.01Zm-12.26 3.78c-2.27.46-4.56.83-6.88 1.1 2.16-5.26 5.79-9.93 10.65-13.3a31.143 31.143 0 0 0-3.77 12.19v.01Zm-.12 2.87c-.08 4.94.86 10.1 2.85 15.19L4.61 42.99a29.99 29.99 0 0 1-.48-18.48h.15c2.6-.28 5.13-.69 7.65-1.17Zm3.95 17.75c2.62 5.62 6.26 10.41 10.53 14.09a92.33 92.33 0 0 0-6.3 5.02C13.92 57.27 8.7 52.25 5.64 45.59l10.23-4.49.01-.01ZM28.65 57c3.44 2.53 7.21 4.34 11.14 5.34-5.67 1.32-11.47.91-16.75-.95 1.83-1.55 3.69-3.02 5.62-4.39h-.01Zm2.47-1.66c2.54-1.65 5.24-3.16 8.19-4.48l3.65 8.32.48 1.1c-4.33-.58-8.51-2.33-12.32-4.95v.01Zm10.77-5.53c2.7-1.06 5.6-1.99 8.78-2.76-.67 4.47-2.22 8.63-4.68 12.13l-4.11-9.37h.01Zm11.65-3.4c2.17-.45 4.48-.83 6.92-1.14-2.22 4.99-5.79 9.4-10.48 12.61 1.87-3.47 3.06-7.35 3.56-11.47Zm.22-2.9c.23-5.74-.82-11.76-3.23-17.6l10.24-4.49c2.88 6.89 2.99 14.26.84 20.88-2.78.31-5.38.73-7.84 1.21h-.01Z" fill="#FEEB1D"/></svg>