<?xml version="1.0" encoding="UTF-8" standalone="no"?>
<svg
   width="34"
   height="22"
   viewBox="0 0 34 22"
   version="1.1"
   id="svg8"
   sodipodi:docname="cart.svg"
   inkscape:version="1.1.2 (0a00cf5339, 2022-02-04)"
   xmlns:inkscape="http://www.inkscape.org/namespaces/inkscape"
   xmlns:sodipodi="http://sodipodi.sourceforge.net/DTD/sodipodi-0.dtd"
   xmlns="http://www.w3.org/2000/svg"
   xmlns:svg="http://www.w3.org/2000/svg">
  <defs
     id="defs12" />
  <sodipodi:namedview
     id="namedview10"
     pagecolor="#ffffff"
     bordercolor="#000000"
     borderopacity="0.25"
     inkscape:pageshadow="2"
     inkscape:pageopacity="0.0"
     inkscape:pagecheckerboard="0"
     showgrid="false"
     fit-margin-top="5"
     lock-margins="true"
     fit-margin-left="5"
     fit-margin-right="5"
     fit-margin-bottom="5"
     inkscape:zoom="10.289474"
     inkscape:cx="34.306905"
     inkscape:cy="28.86445"
     inkscape:window-width="2560"
     inkscape:window-height="1043"
     inkscape:window-x="0"
     inkscape:window-y="0"
     inkscape:window-maximized="1"
     inkscape:current-layer="svg8" />
  <path
     d="m 16.777413,1.5420116 c -0.362186,6.184e-4 -0.723625,0.00155 -1.085966,0.00217 -0.233807,0 -0.372925,0.1116009 -0.377821,0.2909497 -0.0049,0.1880089 0.136381,0.3008689 0.37998,0.299635 0.705093,0 1.410699,0.00123 2.115798,0 0.165257,-0.00123 0.327853,0.016286 0.485769,0.069481 0.575337,0.192956 0.913249,0.6947301 0.913249,1.3700701 0.0024,3.3012821 0.0024,6.6009646 0,9.9009806 0,0.330285 0.032,0.652971 0.181354,0.951015 0.385595,0.76562 1.016972,1.110741 1.85672,1.109518 1.850876,-0.0025 3.701981,0 5.55289,0 h 5.747198 c 0.304869,0 0.450953,-0.09391 0.453385,-0.293122 0.0024,-0.200325 -0.138775,-0.295292 -0.44475,-0.295292 H 21.255132 c -0.929107,0 -1.468979,-0.558515 -1.461627,-1.496004 0.0012,-0.128622 0.03188,-0.19272 0.164082,-0.214954 0.187288,-0.03091 0.373115,-0.0804 0.559175,-0.123762 3.475277,-0.798971 6.949503,-1.595882 10.423543,-2.394909 0.290166,-0.06678 0.341119,-0.132774 0.341117,-0.440767 V 4.887935 c 0,-0.3215895 -0.08171,-0.4038559 -0.395092,-0.4038559 H 27.8249 c -2.608625,0 -5.214599,-0.00279 -7.821975,0.00218 -0.161576,0 -0.219862,-0.038988 -0.213738,-0.2084419 0.01101,-0.2931406 0.01282,-0.5852842 -0.0043,-0.8771912 -0.0661,-1.0760936 -0.857733,-1.8406619 -1.92149,-1.8542634 -0.361724,-0.00433 -0.723779,-0.00496 -1.085966,-0.00434 z m 3.247102,3.5239675 c 1.737527,0.00619 3.478562,0.00434 5.216089,0.00434 1.744889,2.2e-6 3.48844,0.00308 5.233361,-0.00434 0.187256,-0.00125 0.226693,0.056382 0.226693,0.2344968 -0.0062,1.5498276 -0.0062,3.1010266 0,4.6508557 0,0.1595594 -0.03419,0.2265524 -0.200785,0.2648954 -3.500902,0.799037 -7.00273,1.605472 -10.501266,2.414449 -0.165256,0.03835 -0.20942,0.0067 -0.20942,-0.17153 0.0061,-2.389643 0.0073,-4.7789035 0,-7.167355 -0.0012,-0.19419 0.06394,-0.2258119 0.235328,-0.2258119 z M 22.807437,16.18504 c -1.165353,0.0024 -2.113344,0.956181 -2.115799,2.130014 -0.0024,1.175056 0.968286,2.151712 2.128753,2.143041 1.162909,-0.0087 2.105581,-0.972328 2.100685,-2.147383 -0.0049,-1.182504 -0.943378,-2.126893 -2.113639,-2.125672 z m 7.353477,0.0022 c -1.165308,0 -2.112039,0.951563 -2.115797,2.12784 -0.0036,1.176279 0.96493,2.151714 2.126592,2.143043 1.162876,-0.0087 2.106492,-0.970158 2.102844,-2.145213 -0.0036,-1.182504 -0.94214,-2.125671 -2.113639,-2.12567 z m -7.353477,0.58624 c 0.845871,-0.0012 1.537772,0.70051 1.532874,1.550286 -0.0049,0.845996 -0.688456,1.53576 -1.522079,1.539427 -0.84219,0.0038 -1.53784,-0.689652 -1.54151,-1.539427 -0.0037,-0.852221 0.684854,-1.550286 1.530715,-1.550286 z m 7.34484,0.0022 h 0.0022 c 0.843418,-0.005 1.535704,0.688156 1.539351,1.541599 0.0036,0.839882 -0.680968,1.540777 -1.513442,1.548114 -0.844633,0.0074 -1.541635,-0.681917 -1.550146,-1.532914 -0.0098,-0.848552 0.675013,-1.550574 1.522079,-1.556799 z"
     class="icon_cart"
     style="stroke-width:0.357449"
     id="path1109" />
  <path
     style="fill:#000000;stroke:#000000;stroke-width:0.536172;stroke-linecap:round;stroke-linejoin:round;stroke-miterlimit:4;stroke-dasharray:none;stroke-opacity:1"
     d="M 1.2680868,7.1805145 H 16.269891"
     class="line_1"
     id="path1111" />
  <path
     style="fill:#000000;stroke:#000000;stroke-width:0.536172;stroke-linecap:round;stroke-linejoin:round;stroke-miterlimit:4;stroke-dasharray:none;stroke-opacity:1"
     d="M 5.9387085,10.208032 H 16.269891"
     class="line_2"
     id="path1113" />
  <path
     d="m 11.364865,13.235549 h 4.905026"
     class="line_3"
     style="fill:#000000;stroke:#000000;stroke-width:0.536172;stroke-linecap:round;stroke-linejoin:round;stroke-miterlimit:4;stroke-dasharray:none;stroke-opacity:1"
     id="path1115" />
</svg>
