<svg width="14" height="11" viewBox="0 0 14 11" fill="none" xmlns="http://www.w3.org/2000/svg">
<path d="M13.6214 2.12576C13.8237 2.31824 13.8726 2.43568 13.641 2.66404C11.2628 5.02596 8.89434 7.39767 6.52263 9.76938C6.24859 10.0467 5.9191 10.2065 5.42975 10.2098C5.10678 10.2163 4.7675 10.0499 4.48042 9.75959C3.1918 8.47098 1.90644 7.1791 0.60804 5.897C0.415563 5.70453 0.392726 5.59361 0.601515 5.39787C1.0876 4.94114 1.56064 4.47137 2.0141 3.98202C2.24246 3.73735 2.38274 3.71777 2.62742 3.97223C3.47562 4.8498 4.35971 5.69474 5.20465 6.5723C5.44933 6.82677 5.58308 6.80067 5.81797 6.56578C7.74274 4.62144 9.68382 2.69993 11.6053 0.755584C11.85 0.507647 11.987 0.452188 12.2447 0.739273C12.6754 1.22536 13.1484 1.67556 13.6214 2.12576Z" fill="white"/>
</svg>
