<svg width="192" height="384" viewBox="0 0 192 384" fill="none" xmlns="http://www.w3.org/2000/svg">
<g clip-path="url(#clip0_693_311)">
<path d="M96.0211 383.992C66.2822 383.992 36.5349 383.992 6.79605 383.992C0.843218 383.992 0.0169033 383.146 0.00847148 377.144C0.00847148 358.41 -0.00839208 339.676 0.00847148 320.943C0.00847148 315.642 1.1046 314.594 6.45035 314.568C10.2362 314.552 14.0305 314.484 17.8164 314.594C19.6629 314.645 20.3122 313.968 20.2194 312.151C20.1098 309.902 20.1436 307.645 20.2194 305.396C20.523 297.289 25.6748 290.475 33.4995 288.328C36.2651 287.567 38.0779 286.155 39.7221 283.889C53.9803 264.285 63.3311 242.99 62.1591 218.144C61.3075 200.103 55.1017 183.542 47.4962 167.429C39.7559 151.037 30.6748 135.296 23.8873 118.447C18.6511 105.462 14.6207 92.181 15.0423 77.9363C16.1469 40.1982 45.5485 6.77161 82.7158 1.01452C126.671 -5.79084 166.764 22.276 175.626 66.0248C178.838 81.9011 175.904 97.0758 170.558 111.997C165.33 126.605 158.071 140.258 151.089 154.046C143.467 169.111 136.156 184.303 132.261 200.872C125.684 228.846 132.413 254.073 147.927 277.498C149.015 279.138 150.178 280.728 151.258 282.376C153.29 285.487 155.684 287.601 159.58 288.7C167.337 290.889 171.747 298.058 171.831 306.901C171.907 314.568 171.907 314.602 179.546 314.56C192.835 314.492 192.017 313.664 191.983 327.207C191.941 343.684 191.983 360.169 191.975 376.645C191.975 383.265 191.283 383.983 184.833 383.983C155.229 383.983 125.625 383.983 96.0295 383.983L96.0211 383.992ZM149.479 139.032C148.197 138.373 147.295 138.922 146.367 139.125C136.755 141.213 126.713 137.054 122.598 128.178C117.413 116.985 110.178 107.161 103.374 97.0505C98.1881 89.349 92.5809 81.9434 85.7343 75.5945C83.0446 73.1006 80.1862 70.8096 76.6533 69.6346C75.1946 69.1527 73.3059 68.6793 72.2266 69.7698C71.2064 70.7927 72.2941 72.4328 72.8506 73.6248C76.687 81.9096 80.6416 90.1436 84.537 98.4031C93.1627 116.714 99.4107 135.718 101.038 156.05C103.475 186.611 95.4225 214.534 79.9754 240.606C74.3177 250.15 67.7494 259.043 60.8016 267.742C61.4171 268.157 61.7291 268.512 62.1085 268.605C84.6129 274.345 107.016 274.142 129.36 267.556C132.396 266.66 131.671 265.358 130.76 263.355C122.758 245.619 119.807 227.147 122.733 207.788C125.524 189.307 132.801 172.459 141.013 155.932C143.821 150.293 146.662 144.68 149.495 139.032H149.479ZM96.1054 322.87C68.1963 322.87 40.2786 322.929 12.3695 322.794C9.0389 322.777 8.15357 323.699 8.18729 327.013C8.36436 341.934 8.3475 356.863 8.19573 371.793C8.162 374.845 8.87027 375.893 12.1165 375.884C68.0782 375.783 124.048 375.791 180.01 375.876C182.986 375.876 183.779 374.954 183.754 372.046C183.619 357.117 183.585 342.196 183.771 327.266C183.813 323.817 182.986 322.769 179.411 322.794C151.637 322.946 123.871 322.879 96.097 322.879L96.1054 322.87ZM68.0866 243.285C81.5859 227.316 92.9182 193.864 93.4831 170.278C94.1577 142.287 85.1694 117.061 72.2098 91.9528C69.149 102.19 64.3766 110.095 54.4356 113.121C44.5282 116.139 36.2904 111.887 28.3561 106.189C29.2752 109.613 30.3882 112.766 31.6614 115.852C38.7778 133.174 48.2045 149.38 56.0376 166.355C67.2013 190.559 74.1406 215.447 68.0866 243.277V243.285ZM95.8019 314.568C117.126 314.568 138.45 314.594 159.774 314.518C161.165 314.518 163.155 315.591 163.661 312.742C165.651 301.516 160.929 295.598 149.723 295.598C113.947 295.598 78.1795 295.598 42.4034 295.598C40.7255 295.598 39.0307 295.606 37.3612 295.809C32.9852 296.333 30.1521 298.971 28.9295 303.029C28.2971 305.117 28.7102 307.501 28.4236 309.724C27.9514 313.402 29.0559 314.712 33.0948 314.661C53.9971 314.433 74.8995 314.552 95.8019 314.552V314.568ZM100.144 55.0855C100.144 55.0855 101.645 62.0261 113.171 68.1298C113.66 68.3918 114.107 68.7554 114.52 69.1273C115.819 70.3193 117.126 70.2432 118.762 69.6853C127.236 66.8025 135.735 63.9958 144.276 61.3075C146.232 60.6904 147.244 59.7774 147.699 57.6808C149.091 51.2305 150.667 44.8225 152.286 38.4313C152.834 36.2671 152.202 34.737 150.769 33.1308C145.128 26.765 138.433 21.8026 131.274 17.2713C126.966 14.5407 124.259 14.2195 121.19 14.1434C109.208 13.8559 101.316 25.9196 100.987 26.4522C95.1442 35.6754 95.5742 47.7644 100.144 55.077V55.0855ZM91.8811 42.3539C91.8811 37.9917 91.7631 33.6295 91.9317 29.2758C92.016 27.0102 91.2234 25.6998 89.2926 24.567C83.7276 21.3123 78.2301 17.9392 72.8169 14.4477C70.9281 13.2304 69.3767 13.2726 67.3952 14.1434C59.6127 17.5503 52.7998 22.3267 46.3411 27.8217C40.9447 32.4122 38.0105 37.0618 41.105 44.4251C43.196 49.4129 42.1252 56.3704 45.7171 59.8365C49.2753 63.2688 55.6498 63.776 60.7931 65.5598C61.3243 65.7458 61.864 65.8895 62.3952 66.067C63.289 66.3714 63.9804 66.1769 64.579 65.3907C68.9888 59.6252 74.7562 60.0732 80.456 62.5249C83.4409 63.8014 85.3802 63.5562 87.9603 61.6879C90.8524 59.5914 92.3364 57.461 91.9739 53.7413C91.6029 49.9793 91.8895 46.1582 91.8895 42.3539H91.8811ZM64.9669 81.4531C64.149 79.5171 66.7207 76.068 62.5891 74.7576C56.5857 72.8555 50.616 70.8604 44.6463 68.8484C43.1623 68.3496 42.0072 68.5525 40.8098 69.6007C35.54 74.2335 30.228 78.8155 24.8906 83.3721C23.6343 84.4373 23.2212 85.4348 24.1486 86.9819C28.0863 93.5675 32.5973 99.6204 39.4523 103.433C48.3731 108.396 57.0241 105.69 61.6953 96.5348C64.0394 91.9359 64.9837 87.0073 64.9669 81.4531ZM121.367 109.165C126.207 100.297 133.011 95.8162 142.489 96.0191C144.428 96.0613 145.246 94.9201 146.19 93.7365C151.367 87.2355 152.438 79.8468 151.055 71.8157C150.549 68.8991 149.723 67.91 146.688 69.102C142.396 70.7927 137.91 71.9847 133.543 73.5064C128.669 75.2057 122.387 75.2648 119.276 78.9169C116.063 82.6873 115.524 88.7403 113.821 93.8042C113.686 94.2015 113.66 94.6411 113.483 95.0215C113.02 96.0444 113.289 96.9321 113.863 97.7944C116.249 101.404 118.635 105.022 121.367 109.165ZM47.6902 287.153H144.411C142.463 284.126 140.457 281.742 139.276 278.995C137.421 274.708 135.17 274.21 130.676 275.562C106.89 282.714 82.9013 282.714 58.9213 276.256C57.4204 275.85 55.7847 274.421 54.444 276.509C52.2686 279.891 50.1354 283.298 47.6986 287.153H47.6902ZM155.052 117.746C155.052 110.162 148.888 104.016 141.401 104.126C134.048 104.236 128.045 110.272 127.969 117.61C127.893 125.219 133.897 131.322 141.477 131.373C149.108 131.424 155.052 125.455 155.044 117.737L155.052 117.746ZM162.168 110.501C164.2 106.028 165.288 101.954 166.233 97.862C167.118 94.0324 168.045 90.1521 168.281 86.2549C168.652 80.2273 167.059 74.5378 163.593 69.5162C162.413 67.8085 160.946 66.3291 158.391 66.0586C160.634 78.1899 160.701 87.0664 153.821 97.1181C152.902 98.4538 152.936 99.2738 154.302 100.195C157.885 102.63 160.128 106.181 162.168 110.492V110.501ZM23.4825 73.7516C28.179 69.7022 32.0745 66.3375 35.9784 62.9983C36.5434 62.5164 36.9987 61.95 36.8216 61.2061C35.599 56.1422 34.3342 51.0868 32.8671 45.1353C27.5888 54.3246 24.8485 63.1674 23.4825 73.76V73.7516ZM110.17 10.4068C100.566 7.83679 91.3668 7.69308 80.9114 9.84881C86.274 13.1289 90.7007 15.8764 95.1948 18.5225C95.667 18.8015 96.6282 18.6916 97.1425 18.3872C101.51 15.775 105.827 13.0782 110.161 10.4068H110.17ZM107.109 87.8865C108.332 84.1921 109.284 81.3093 110.246 78.435C110.642 77.243 110.439 76.2878 109.36 75.51C105.288 72.5681 101.308 69.4908 97.1594 66.6673C94.8913 65.1286 93.753 67.6902 92.269 68.6285C91.0042 69.4232 92.0329 70.3109 92.7243 70.9787C97.8677 75.9242 102.159 81.6052 107.109 87.8865ZM165.347 59.5406C163.998 54.35 162.008 50.1061 159.614 45.9553C158.104 46.9021 158.34 48.3139 158.071 49.4805C157.522 51.9068 155.794 54.5782 156.941 56.6832C157.624 57.9429 160.651 57.9006 162.607 58.4755C163.265 58.6699 163.897 58.9742 165.339 59.5406H165.347Z" fill="url(#paint0_linear_693_311)"/>
</g>
<defs>
<linearGradient id="paint0_linear_693_311" x1="96.0022" y1="-0.00012207" x2="93.501" y2="443" gradientUnits="userSpaceOnUse">
<stop stop-color="#DBFDFF"/>
<stop offset="1" stop-color="#DBFDFF" stop-opacity="0"/>
</linearGradient>
<clipPath id="clip0_693_311">
<rect width="192" height="384" fill="white"/>
</clipPath>
</defs>
</svg>
