<svg width="79" height="72" viewBox="0 0 79 72" fill="none" xmlns="http://www.w3.org/2000/svg">
<path opacity="0.7" d="M8.33199 67.44C8.33199 67.8133 8.32533 68.1433 8.31199 68.43C8.30533 68.71 8.27866 68.9633 8.23199 69.19C8.18533 69.41 8.11199 69.6133 8.01199 69.8C7.91866 69.9867 7.78533 70.1667 7.61199 70.34C7.37866 70.5733 7.11199 70.7533 6.81199 70.88C6.51199 71 6.16533 71.06 5.77199 71.06C5.37866 71.06 5.03199 71 4.73199 70.88C4.43199 70.7533 4.16533 70.5733 3.93199 70.34C3.75866 70.1667 3.62199 69.9867 3.52199 69.8C3.42866 69.6133 3.35866 69.41 3.31199 69.19C3.26533 68.9633 3.23533 68.71 3.22199 68.43C3.21533 68.1433 3.21199 67.8133 3.21199 67.44C3.21199 67.0667 3.21533 66.74 3.22199 66.46C3.23533 66.1733 3.26533 65.92 3.31199 65.7C3.35866 65.4733 3.42866 65.2667 3.52199 65.08C3.62199 64.8933 3.75866 64.7133 3.93199 64.54C4.16533 64.3067 4.43199 64.13 4.73199 64.01C5.03199 63.8833 5.37866 63.82 5.77199 63.82C6.16533 63.82 6.51199 63.8833 6.81199 64.01C7.11199 64.13 7.37866 64.3067 7.61199 64.54C7.78533 64.7133 7.91866 64.8933 8.01199 65.08C8.11199 65.2667 8.18533 65.4733 8.23199 65.7C8.27866 65.92 8.30533 66.1733 8.31199 66.46C8.32533 66.74 8.33199 67.0667 8.33199 67.44ZM7.25199 67.44C7.25199 67.0867 7.24533 66.79 7.23199 66.55C7.22533 66.31 7.20533 66.1067 7.17199 65.94C7.14533 65.7733 7.10199 65.6367 7.04199 65.53C6.98866 65.4167 6.91866 65.3133 6.83199 65.22C6.55199 64.9267 6.19866 64.78 5.77199 64.78C5.34533 64.78 4.99199 64.9267 4.71199 65.22C4.62533 65.3133 4.55199 65.4167 4.49199 65.53C4.43866 65.6433 4.39533 65.7833 4.36199 65.95C4.33533 66.11 4.31533 66.31 4.30199 66.55C4.29533 66.79 4.29199 67.0867 4.29199 67.44C4.29199 67.7933 4.29533 68.09 4.30199 68.33C4.31533 68.5633 4.33533 68.7633 4.36199 68.93C4.39533 69.0967 4.43866 69.2367 4.49199 69.35C4.55199 69.4567 4.62533 69.5567 4.71199 69.65C4.84533 69.79 5.00199 69.9 5.18199 69.98C5.36199 70.06 5.55866 70.1 5.77199 70.1C5.98533 70.1 6.18199 70.06 6.36199 69.98C6.54199 69.9 6.69866 69.79 6.83199 69.65C6.91866 69.5567 6.98866 69.4567 7.04199 69.35C7.10199 69.2367 7.14533 69.1 7.17199 68.94C7.20533 68.7733 7.22533 68.57 7.23199 68.33C7.24533 68.09 7.25199 67.7933 7.25199 67.44ZM12.1515 64.85V71H11.0715V64.85H9.11152V63.88H14.1115V64.85H12.1515ZM19.2672 71L17.7672 68H16.4172V71H15.3372V63.88H18.0972C18.4372 63.88 18.7406 63.9333 19.0072 64.04C19.2806 64.14 19.5139 64.2833 19.7072 64.47C19.9006 64.65 20.0472 64.87 20.1472 65.13C20.2539 65.3833 20.3072 65.66 20.3072 65.96C20.3072 66.4733 20.1706 66.89 19.8972 67.21C19.6239 67.5233 19.2872 67.7367 18.8872 67.85L20.5272 71H19.2672ZM19.2272 65.97C19.2272 65.6167 19.1139 65.3433 18.8872 65.15C18.6672 64.95 18.3772 64.85 18.0172 64.85H16.4172V67.08H18.0172C18.3772 67.08 18.6672 66.9833 18.8872 66.79C19.1139 66.5967 19.2272 66.3233 19.2272 65.97ZM26.6523 67.44C26.6523 67.8133 26.6456 68.1433 26.6323 68.43C26.6256 68.71 26.599 68.9633 26.5523 69.19C26.5056 69.41 26.4323 69.6133 26.3323 69.8C26.239 69.9867 26.1056 70.1667 25.9323 70.34C25.699 70.5733 25.4323 70.7533 25.1323 70.88C24.8323 71 24.4856 71.06 24.0923 71.06C23.699 71.06 23.3523 71 23.0523 70.88C22.7523 70.7533 22.4856 70.5733 22.2523 70.34C22.079 70.1667 21.9423 69.9867 21.8423 69.8C21.749 69.6133 21.679 69.41 21.6323 69.19C21.5856 68.9633 21.5556 68.71 21.5423 68.43C21.5356 68.1433 21.5323 67.8133 21.5323 67.44C21.5323 67.0667 21.5356 66.74 21.5423 66.46C21.5556 66.1733 21.5856 65.92 21.6323 65.7C21.679 65.4733 21.749 65.2667 21.8423 65.08C21.9423 64.8933 22.079 64.7133 22.2523 64.54C22.4856 64.3067 22.7523 64.13 23.0523 64.01C23.3523 63.8833 23.699 63.82 24.0923 63.82C24.4856 63.82 24.8323 63.8833 25.1323 64.01C25.4323 64.13 25.699 64.3067 25.9323 64.54C26.1056 64.7133 26.239 64.8933 26.3323 65.08C26.4323 65.2667 26.5056 65.4733 26.5523 65.7C26.599 65.92 26.6256 66.1733 26.6323 66.46C26.6456 66.74 26.6523 67.0667 26.6523 67.44ZM25.5723 67.44C25.5723 67.0867 25.5656 66.79 25.5523 66.55C25.5456 66.31 25.5256 66.1067 25.4923 65.94C25.4656 65.7733 25.4223 65.6367 25.3623 65.53C25.309 65.4167 25.239 65.3133 25.1523 65.22C24.8723 64.9267 24.519 64.78 24.0923 64.78C23.6656 64.78 23.3123 64.9267 23.0323 65.22C22.9456 65.3133 22.8723 65.4167 22.8123 65.53C22.759 65.6433 22.7156 65.7833 22.6823 65.95C22.6556 66.11 22.6356 66.31 22.6223 66.55C22.6156 66.79 22.6123 67.0867 22.6123 67.44C22.6123 67.7933 22.6156 68.09 22.6223 68.33C22.6356 68.5633 22.6556 68.7633 22.6823 68.93C22.7156 69.0967 22.759 69.2367 22.8123 69.35C22.8723 69.4567 22.9456 69.5567 23.0323 69.65C23.1656 69.79 23.3223 69.9 23.5023 69.98C23.6823 70.06 23.879 70.1 24.0923 70.1C24.3056 70.1 24.5023 70.06 24.6823 69.98C24.8623 69.9 25.019 69.79 25.1523 69.65C25.239 69.5567 25.309 69.4567 25.3623 69.35C25.4223 69.2367 25.4656 69.1 25.4923 68.94C25.5256 68.7733 25.5456 68.57 25.5523 68.33C25.5656 68.09 25.5723 67.7933 25.5723 67.44ZM32.7071 68.97C32.7071 69.2967 32.6438 69.59 32.5171 69.85C32.3905 70.11 32.2138 70.33 31.9871 70.51C31.7605 70.69 31.4905 70.8267 31.1771 70.92C30.8638 71.0133 30.5205 71.06 30.1471 71.06C29.6071 71.06 29.1371 70.99 28.7371 70.85C28.3438 70.71 27.9738 70.4667 27.6271 70.12L28.3371 69.41C28.5971 69.67 28.8771 69.85 29.1771 69.95C29.4771 70.05 29.8071 70.1 30.1671 70.1C30.6405 70.1 31.0038 70.0067 31.2571 69.82C31.5105 69.6267 31.6371 69.3533 31.6371 69C31.6371 68.6667 31.5438 68.42 31.3571 68.26C31.1838 68.1067 30.9238 68.0067 30.5771 67.96L29.7371 67.84C29.1438 67.7467 28.6971 67.5567 28.3971 67.27C28.0438 66.95 27.8671 66.4933 27.8671 65.9C27.8671 65.5933 27.9205 65.3133 28.0271 65.06C28.1405 64.8 28.2971 64.58 28.4971 64.4C28.7038 64.2133 28.9538 64.07 29.2471 63.97C29.5405 63.87 29.8738 63.82 30.2471 63.82C30.7271 63.82 31.1371 63.8833 31.4771 64.01C31.8238 64.1367 32.1505 64.3433 32.4571 64.63L31.7771 65.31C31.5571 65.0967 31.3171 64.9533 31.0571 64.88C30.7971 64.8 30.5138 64.76 30.2071 64.76C29.7871 64.76 29.4671 64.8633 29.2471 65.07C29.0271 65.2767 28.9171 65.5433 28.9171 65.87C28.9171 66.0033 28.9371 66.1267 28.9771 66.24C29.0171 66.3533 29.0838 66.45 29.1771 66.53C29.2705 66.61 29.3738 66.6767 29.4871 66.73C29.6071 66.7767 29.7638 66.8167 29.9571 66.85L30.8071 66.98C31.1338 67.0333 31.3971 67.1 31.5971 67.18C31.7971 67.26 31.9738 67.37 32.1271 67.51C32.5138 67.8633 32.7071 68.35 32.7071 68.97ZM36.5579 71V63.88H41.1079V64.85H37.6379V66.93H40.5979V67.89H37.6379V70.03H41.1079V71H36.5579ZM47.4433 67.44C47.4433 67.76 47.44 68.0467 47.4333 68.3C47.4267 68.5533 47.4067 68.7833 47.3733 68.99C47.3467 69.1967 47.3 69.3867 47.2333 69.56C47.1733 69.7267 47.09 69.8867 46.9833 70.04L47.6833 70.73L47.0833 71.32L46.3733 70.62C46.18 70.76 45.9567 70.87 45.7033 70.95C45.4567 71.0233 45.1833 71.06 44.8833 71.06C44.49 71.06 44.1433 71 43.8433 70.88C43.5433 70.7533 43.2767 70.5733 43.0433 70.34C42.87 70.1667 42.7333 69.9867 42.6333 69.8C42.54 69.6133 42.47 69.41 42.4233 69.19C42.3767 68.9633 42.3467 68.71 42.3333 68.43C42.3267 68.1433 42.3233 67.8133 42.3233 67.44C42.3233 67.0667 42.3267 66.74 42.3333 66.46C42.3467 66.1733 42.3767 65.92 42.4233 65.7C42.47 65.4733 42.54 65.2667 42.6333 65.08C42.7333 64.8933 42.87 64.7133 43.0433 64.54C43.2767 64.3067 43.5433 64.13 43.8433 64.01C44.1433 63.8833 44.49 63.82 44.8833 63.82C45.2767 63.82 45.6233 63.8833 45.9233 64.01C46.2233 64.13 46.49 64.3067 46.7233 64.54C46.8967 64.7133 47.03 64.8933 47.1233 65.08C47.2233 65.2667 47.2967 65.4733 47.3433 65.7C47.39 65.92 47.4167 66.1733 47.4233 66.46C47.4367 66.74 47.4433 67.0667 47.4433 67.44ZM46.3633 67.44C46.3633 67.0867 46.3567 66.79 46.3433 66.55C46.3367 66.31 46.3167 66.11 46.2833 65.95C46.2567 65.7833 46.2133 65.6433 46.1533 65.53C46.1 65.4167 46.03 65.3133 45.9433 65.22C45.6633 64.9267 45.31 64.78 44.8833 64.78C44.4567 64.78 44.1033 64.9267 43.8233 65.22C43.73 65.3133 43.6567 65.4167 43.6033 65.53C43.55 65.6433 43.5067 65.7833 43.4733 65.95C43.4467 66.11 43.4267 66.31 43.4133 66.55C43.4067 66.79 43.4033 67.0867 43.4033 67.44C43.4033 67.7933 43.4067 68.09 43.4133 68.33C43.4267 68.5633 43.4467 68.7633 43.4733 68.93C43.5067 69.0967 43.55 69.2367 43.6033 69.35C43.6567 69.4567 43.73 69.5567 43.8233 69.65C43.9567 69.79 44.1133 69.9 44.2933 69.98C44.4733 70.06 44.67 70.1 44.8833 70.1C45.17 70.1 45.4167 70.02 45.6233 69.86L44.8633 69.11L45.4633 68.51L46.1533 69.21C46.2467 69.0233 46.3033 68.7967 46.3233 68.53C46.35 68.2633 46.3633 67.9 46.3633 67.44ZM54.0482 68.6C54.0482 68.9667 53.9815 69.3033 53.8482 69.61C53.7215 69.91 53.5415 70.1667 53.3082 70.38C53.0815 70.5933 52.8115 70.76 52.4982 70.88C52.1848 71 51.8482 71.06 51.4882 71.06C51.1282 71.06 50.7915 71 50.4782 70.88C50.1648 70.76 49.8948 70.5933 49.6682 70.38C49.4415 70.1667 49.2615 69.91 49.1282 69.61C49.0015 69.3033 48.9382 68.9667 48.9382 68.6V63.88H50.0182V68.55C50.0182 69.03 50.1515 69.4067 50.4182 69.68C50.6848 69.9533 51.0415 70.09 51.4882 70.09C51.9348 70.09 52.2915 69.9533 52.5582 69.68C52.8315 69.4067 52.9682 69.03 52.9682 68.55V63.88H54.0482V68.6ZM55.7962 71V63.88H56.8762V71H55.7962ZM63.7157 66.04C63.7157 66.3533 63.6623 66.64 63.5557 66.9C63.449 67.16 63.2957 67.3867 63.0957 67.58C62.8957 67.7733 62.6557 67.9233 62.3757 68.03C62.0957 68.1367 61.7823 68.19 61.4357 68.19H59.8157V71H58.7357V63.88H61.4357C61.7823 63.88 62.0957 63.9367 62.3757 64.05C62.6557 64.1567 62.8957 64.3067 63.0957 64.5C63.2957 64.6867 63.449 64.9133 63.5557 65.18C63.6623 65.4467 63.7157 65.7333 63.7157 66.04ZM62.6357 66.04C62.6357 65.66 62.519 65.3667 62.2857 65.16C62.059 64.9533 61.7557 64.85 61.3757 64.85H59.8157V67.23H61.3757C61.7557 67.23 62.059 67.1267 62.2857 66.92C62.519 66.7133 62.6357 66.42 62.6357 66.04ZM69.8847 67.44C69.8847 67.8133 69.8781 68.1433 69.8647 68.43C69.8581 68.71 69.8314 68.9633 69.7847 69.19C69.7381 69.41 69.6647 69.6133 69.5647 69.8C69.4714 69.9867 69.3381 70.1667 69.1647 70.34C68.9314 70.5733 68.6647 70.7533 68.3647 70.88C68.0647 71 67.7181 71.06 67.3247 71.06C66.9314 71.06 66.5847 71 66.2847 70.88C65.9847 70.7533 65.7181 70.5733 65.4847 70.34C65.3114 70.1667 65.1747 69.9867 65.0747 69.8C64.9814 69.6133 64.9114 69.41 64.8647 69.19C64.8181 68.9633 64.7881 68.71 64.7747 68.43C64.7681 68.1433 64.7647 67.8133 64.7647 67.44C64.7647 67.0667 64.7681 66.74 64.7747 66.46C64.7881 66.1733 64.8181 65.92 64.8647 65.7C64.9114 65.4733 64.9814 65.2667 65.0747 65.08C65.1747 64.8933 65.3114 64.7133 65.4847 64.54C65.7181 64.3067 65.9847 64.13 66.2847 64.01C66.5847 63.8833 66.9314 63.82 67.3247 63.82C67.7181 63.82 68.0647 63.8833 68.3647 64.01C68.6647 64.13 68.9314 64.3067 69.1647 64.54C69.3381 64.7133 69.4714 64.8933 69.5647 65.08C69.6647 65.2667 69.7381 65.4733 69.7847 65.7C69.8314 65.92 69.8581 66.1733 69.8647 66.46C69.8781 66.74 69.8847 67.0667 69.8847 67.44ZM68.8047 67.44C68.8047 67.0867 68.7981 66.79 68.7847 66.55C68.7781 66.31 68.7581 66.1067 68.7247 65.94C68.6981 65.7733 68.6547 65.6367 68.5947 65.53C68.5414 65.4167 68.4714 65.3133 68.3847 65.22C68.1047 64.9267 67.7514 64.78 67.3247 64.78C66.8981 64.78 66.5447 64.9267 66.2647 65.22C66.1781 65.3133 66.1047 65.4167 66.0447 65.53C65.9914 65.6433 65.9481 65.7833 65.9147 65.95C65.8881 66.11 65.8681 66.31 65.8547 66.55C65.8481 66.79 65.8447 67.0867 65.8447 67.44C65.8447 67.7933 65.8481 68.09 65.8547 68.33C65.8681 68.5633 65.8881 68.7633 65.9147 68.93C65.9481 69.0967 65.9914 69.2367 66.0447 69.35C66.1047 69.4567 66.1781 69.5567 66.2647 69.65C66.3981 69.79 66.5547 69.9 66.7347 69.98C66.9147 70.06 67.1114 70.1 67.3247 70.1C67.5381 70.1 67.7347 70.06 67.9147 69.98C68.0947 69.9 68.2514 69.79 68.3847 69.65C68.4714 69.5567 68.5414 69.4567 68.5947 69.35C68.6547 69.2367 68.6981 69.1 68.7247 68.94C68.7581 68.7733 68.7781 68.57 68.7847 68.33C68.7981 68.09 68.8047 67.7933 68.8047 67.44ZM75.9396 68.97C75.9396 69.2967 75.8762 69.59 75.7496 69.85C75.6229 70.11 75.4462 70.33 75.2196 70.51C74.9929 70.69 74.7229 70.8267 74.4096 70.92C74.0962 71.0133 73.7529 71.06 73.3796 71.06C72.8396 71.06 72.3696 70.99 71.9696 70.85C71.5762 70.71 71.2062 70.4667 70.8596 70.12L71.5696 69.41C71.8296 69.67 72.1096 69.85 72.4096 69.95C72.7096 70.05 73.0396 70.1 73.3996 70.1C73.8729 70.1 74.2362 70.0067 74.4896 69.82C74.7429 69.6267 74.8696 69.3533 74.8696 69C74.8696 68.6667 74.7762 68.42 74.5896 68.26C74.4162 68.1067 74.1562 68.0067 73.8096 67.96L72.9696 67.84C72.3762 67.7467 71.9296 67.5567 71.6296 67.27C71.2762 66.95 71.0996 66.4933 71.0996 65.9C71.0996 65.5933 71.1529 65.3133 71.2596 65.06C71.3729 64.8 71.5296 64.58 71.7296 64.4C71.9362 64.2133 72.1862 64.07 72.4796 63.97C72.7729 63.87 73.1062 63.82 73.4796 63.82C73.9596 63.82 74.3696 63.8833 74.7096 64.01C75.0562 64.1367 75.3829 64.3433 75.6896 64.63L75.0096 65.31C74.7896 65.0967 74.5496 64.9533 74.2896 64.88C74.0296 64.8 73.7462 64.76 73.4396 64.76C73.0196 64.76 72.6996 64.8633 72.4796 65.07C72.2596 65.2767 72.1496 65.5433 72.1496 65.87C72.1496 66.0033 72.1696 66.1267 72.2096 66.24C72.2496 66.3533 72.3162 66.45 72.4096 66.53C72.5029 66.61 72.6062 66.6767 72.7196 66.73C72.8396 66.7767 72.9962 66.8167 73.1896 66.85L74.0396 66.98C74.3662 67.0333 74.6296 67.1 74.8296 67.18C75.0296 67.26 75.2062 67.37 75.3596 67.51C75.7462 67.8633 75.9396 68.35 75.9396 68.97Z" fill="white"/>
<circle cx="39" cy="25" r="24" fill="url(#paint0_linear_132_1792)" stroke="white" stroke-width="2"/>
<defs>
<linearGradient id="paint0_linear_132_1792" x1="19.5" y1="9" x2="54" y2="42" gradientUnits="userSpaceOnUse">
<stop stop-color="#2C62D9"/>
<stop offset="0.347375" stop-color="#3573D4"/>
<stop offset="0.666629" stop-color="#71C8CB"/>
<stop offset="1" stop-color="#B3E0CC"/>
</linearGradient>
</defs>
</svg>
