<svg width="52" height="52" viewBox="0 0 52 52" fill="none" xmlns="http://www.w3.org/2000/svg">
<g clip-path="url(#clip0_132_1779)">
<path d="M16.6472 24.8504C16.4607 25.0452 16.2975 25.2303 16.1178 25.3979C15.8217 25.6751 15.5475 25.6796 15.2575 25.3904C13.707 23.8481 12.1609 22.3021 10.6179 20.7523C10.3256 20.4585 10.3317 20.1617 10.6293 19.8626C12.6858 17.7954 14.7477 15.7343 16.8035 13.6672C16.978 13.4919 17.1736 13.4353 17.413 13.436C19.16 13.4413 20.9069 13.4376 22.6538 13.4391C23.3351 13.4391 23.5209 13.6906 23.3449 14.3643C22.9574 15.8453 23.7626 17.3151 25.2089 17.769C26.6303 18.2154 28.1484 17.4571 28.6552 16.0485C28.8666 15.4609 28.8651 14.8695 28.6982 14.2721C28.5479 13.7344 28.7632 13.4421 29.316 13.4406C31.214 13.4368 33.1112 13.4406 35.0092 13.4368C35.2509 13.4368 35.4352 13.5131 35.6089 13.6875C37.5613 15.6452 39.5204 17.596 41.4773 19.5499C41.9554 20.0272 41.9554 20.2327 41.4803 20.7085C40.0506 22.1397 38.6194 23.5709 37.1889 25.0014C36.6164 25.5739 36.4986 25.5747 35.8951 25.0195C35.8528 24.9803 35.8196 24.9161 35.7328 24.9372C35.6565 25.0724 35.6957 25.225 35.6957 25.3685C35.6935 30.0186 35.6935 34.6681 35.6935 39.3182C35.6935 40.0901 35.5606 40.2245 34.8015 40.2245C29.0585 40.2245 23.3147 40.2245 17.5717 40.2245C16.8564 40.2245 16.7122 40.0803 16.7114 39.3681C16.7114 34.6801 16.7114 29.993 16.7091 25.305C16.7091 25.1736 16.7461 25.0346 16.648 24.8511L16.6472 24.8504ZM26.1854 39.103C28.8243 39.103 31.464 39.1045 34.1029 39.1015C34.6422 39.1015 34.5757 39.1657 34.5764 38.612C34.5787 36.6891 34.5772 34.7662 34.5772 32.8433C34.5772 29.7641 34.5787 26.6857 34.5749 23.6064C34.5749 23.321 34.6278 23.074 34.9178 22.9584C35.2018 22.8451 35.4254 22.9614 35.624 23.1707C35.8491 23.4078 36.0998 23.6208 36.3128 23.867C36.482 24.0626 36.5862 24.0324 36.7546 23.8625C37.9208 22.6828 39.0922 21.5083 40.2742 20.3437C40.4562 20.1639 40.4313 20.0748 40.2643 19.9087C38.5416 18.201 36.8249 16.4881 35.1142 14.7683C34.9465 14.5999 34.7751 14.5478 34.5485 14.5485C33.1535 14.5561 31.7585 14.5637 30.3636 14.544C30.0146 14.5395 29.9051 14.6014 29.918 14.9874C30.0041 17.6331 27.5442 19.5582 24.9891 18.8702C23.2444 18.4004 22.104 16.8159 22.138 14.9088C22.141 14.7223 22.1969 14.5433 21.8804 14.5463C20.4855 14.5614 19.0905 14.5538 17.6955 14.5516C17.5611 14.5516 17.4591 14.5924 17.3624 14.689C15.5536 16.5062 13.744 18.3219 11.9291 20.1322C11.7871 20.2742 11.7939 20.3565 11.9328 20.494C13.1375 21.6888 14.3368 22.8882 15.5317 24.0936C15.6639 24.2265 15.7364 24.2159 15.858 24.0883C16.1872 23.7424 16.5256 23.4055 16.8693 23.074C17.0324 22.9161 17.2303 22.8527 17.4584 22.9388C17.6978 23.0294 17.8103 23.2122 17.8307 23.4561C17.8413 23.5808 17.8352 23.7076 17.8352 23.833C17.8352 28.7717 17.839 33.7111 17.8277 38.6498C17.8269 39.0003 17.8934 39.1128 18.271 39.1105C20.9099 39.0916 23.5496 39.1007 26.1885 39.1007L26.1854 39.103Z" fill="white"/>
<path d="M30.6725 24.0294C29.4369 24.034 28.4362 23.0446 28.4317 21.8127C28.4271 20.5877 29.4309 19.5756 30.6552 19.5696C31.8757 19.5636 32.8885 20.5696 32.8975 21.7961C32.9066 23.0219 31.9074 24.0249 30.6725 24.0294ZM31.7835 21.7939C31.7752 21.1844 31.2435 20.6738 30.634 20.6904C30.0381 20.7063 29.5374 21.2236 29.5442 21.8158C29.551 22.4253 30.0887 22.9426 30.6937 22.9222C31.2926 22.9018 31.7911 22.3852 31.7835 21.7939Z" fill="white"/>
<path d="M26 52C22.4903 52 19.0855 51.3127 15.8794 49.9563C12.7836 48.6466 10.0027 46.7721 7.61534 44.3847C5.22794 41.9973 3.35338 39.2164 2.04375 36.1206C0.687291 32.9145 0 29.5097 0 26C0 22.4903 0.687291 19.0855 2.04375 15.8794C3.35338 12.7836 5.22794 10.0027 7.61534 7.61534C10.0027 5.22794 12.7836 3.35338 15.8794 2.04375C19.0855 0.687291 22.4903 0 26 0C29.5097 0 32.9145 0.687291 36.1206 2.04375C39.2164 3.35338 41.9973 5.22794 44.3847 7.61534C46.7721 10.0027 48.6466 12.7836 49.9563 15.8794C51.312 19.0855 52 22.4903 52 26C52 29.5097 51.3127 32.9145 49.9563 36.1206C48.6466 39.2164 46.7721 41.9973 44.3847 44.3847C41.9973 46.7721 39.2164 48.6466 36.1206 49.9563C32.9145 51.312 29.5097 52 26 52ZM26 1.435C19.4383 1.435 13.27 3.99007 8.62966 8.62966C3.98931 13.2693 1.435 19.4383 1.435 26C1.435 32.5617 3.99007 38.73 8.62966 43.3703C13.2693 48.0107 19.4383 50.565 26 50.565C32.5617 50.565 38.73 48.0099 43.3703 43.3703C48.0107 38.7307 50.565 32.5617 50.565 26C50.565 19.4383 48.0099 13.27 43.3703 8.62966C38.7307 3.98931 32.5617 1.435 26 1.435Z" fill="white"/>
</g>
<defs>
<clipPath id="clip0_132_1779">
<rect width="52" height="52" fill="white"/>
</clipPath>
</defs>
</svg>
