<?xml version="1.0" encoding="UTF-8" standalone="no"?>
<svg
   width="58.038643"
   height="100"
   viewBox="0 0 58.038643 99.999999"
   version="1.1"
   id="svg4"
   sodipodi:docname="logo_fifa_wwc.svg"
   inkscape:version="1.1.2 (0a00cf5339, 2022-02-04)"
   xmlns:inkscape="http://www.inkscape.org/namespaces/inkscape"
   xmlns:sodipodi="http://sodipodi.sourceforge.net/DTD/sodipodi-0.dtd"
   xmlns="http://www.w3.org/2000/svg"
   xmlns:svg="http://www.w3.org/2000/svg">
  <defs
     id="defs8" />
  <sodipodi:namedview
     id="namedview6"
     pagecolor="#ffffff"
     bordercolor="#000000"
     borderopacity="0.25"
     inkscape:pageshadow="2"
     inkscape:pageopacity="0.0"
     inkscape:pagecheckerboard="0"
     showgrid="false"
     showguides="true"
     inkscape:guide-bbox="true"
     inkscape:zoom="5.6568543"
     inkscape:cx="-50.734911"
     inkscape:cy="36.239222"
     inkscape:window-width="2560"
     inkscape:window-height="1043"
     inkscape:window-x="0"
     inkscape:window-y="0"
     inkscape:window-maximized="1"
     inkscape:current-layer="svg4"
     fit-margin-top="5"
     fit-margin-left="5"
     fit-margin-right="5"
     fit-margin-bottom="5"
     lock-margins="true" />
  <path
     d="M 5,5 V 95 H 53.038644 V 5 Z m 20.964074,2.584281 h 6.089363 v 6.077287 l 2.327663,-5.6002818 5.633493,2.3125688 -2.348799,5.600282 4.311161,-4.283989 4.311161,4.283989 -4.311161,4.287008 5.633491,-2.336721 2.327665,5.600282 -5.633492,2.315588 h 6.089364 v 6.053136 h -6.113516 l 5.633492,2.312568 -2.324647,5.600282 -5.636509,-2.333703 4.311159,4.28399 -4.311159,4.287007 -4.31116,-4.287007 2.351816,5.600282 -5.636509,2.315588 -2.324647,-5.603301 v 6.077286 h -6.092381 v -6.077286 l -2.324645,5.603301 -5.636511,-2.315588 2.348798,-5.600282 -4.311161,4.287007 -4.31116,-4.287007 4.31116,-4.28399 L 10.382912,39.80628 8.0552481,34.205998 13.691758,31.89343 H 7.599376 v -6.053136 h 6.113515 l -5.6334908,-2.315588 2.3276648,-5.600282 5.633491,2.336721 -4.311161,-4.287008 4.311161,-4.283989 4.287008,4.283989 -2.324645,-5.576129 5.633491,-2.3155888 2.327664,5.6033008 z m 2.15558,5.748214 0.751735,3.810003 -4.130019,0.815135 -0.751736,-3.810003 -1.66348,0.67928 2.164638,3.221294 -3.489988,2.312569 -2.164636,-3.218275 -1.280064,1.267988 3.239408,2.15558 -2.324645,3.468854 -3.239409,-2.15558 -0.685317,1.657443 3.831136,0.745696 -0.821173,4.105867 -3.831137,-0.748717 v 1.79028 l 3.831137,-0.745698 0.821173,4.102847 -3.831136,0.748718 0.685317,1.654422 3.239409,-2.152561 2.324645,3.468853 -3.239408,2.152563 1.280064,1.271006 2.164636,-3.221293 3.489988,2.315588 -2.164638,3.218275 1.66348,0.682298 0.751736,-3.810004 4.130019,0.815136 -0.751735,3.810004 h 1.802355 l -0.754755,-3.810004 4.13002,-0.815136 0.751735,3.810004 1.666499,-0.682298 -2.167656,-3.218275 3.489986,-2.315588 2.167656,3.221293 1.277046,-1.271006 -3.239408,-2.152563 2.327664,-3.468853 3.239409,2.152561 0.682298,-1.654422 -3.831136,-0.748718 0.821173,-4.102847 3.831137,0.745698 v -1.79028 l -3.831137,0.748717 -0.821173,-4.105867 3.831136,-0.745696 -0.682298,-1.657443 -3.239409,2.15558 -2.327664,-3.468854 3.239408,-2.15558 -1.277046,-1.267988 -2.167656,3.218275 -3.489986,-2.312569 2.167656,-3.221294 -1.666499,-0.67928 -0.751735,3.810003 -4.13002,-0.815135 0.754755,-3.810003 z m -3.058267,5.509711 3.970011,1.065714 3.764718,-1.065714 4.196438,3.016001 0.27473,3.559424 2.119352,3.764718 -1.642346,4.806279 -3.876423,1.518567 -2.007648,3.130724 H 26.202577 L 24.194929,35.531347 20.318507,34.01278 18.67616,29.203482 20.795512,25.441783 v -0.02416 l 0.27473,-3.559424 z m 3.957934,5.361779 -4.58589,3.287712 1.781221,5.373857 h 5.633492 l 1.757068,-5.373857 z m 19.001711,27.16816 v 1.337425 h 0.229447 c 0.980925,0 1.778201,0.794095 1.778201,1.769147 0,0.612267 -0.295274,1.155787 -0.797021,1.473281 l 0.6823,0.498138 -1.092887,3.674147 1.754052,8.480428 h -4.972326 l 1.642346,-5.57915 -1.361577,-5.509711 1.476301,-0.4287 -1.597062,-1.20157 V 53.615277 Z M 7.6688135,52.754856 H 11.49995 l -0.386435,1.065713 H 9.2417228 v 0.975145 h 1.4823392 l -0.386435,1.065714 H 9.2205898 v 1.744993 H 7.6688135 Z m 4.3111605,0 h 1.551776 v 4.851565 h -1.551776 z m 2.623528,0 h 3.831136 l -0.386434,1.065713 h -1.871792 v 0.975145 h 1.482338 l -0.386434,1.065714 h -1.117038 v 1.744993 h -1.551776 z m 4.83647,0 h 1.618195 l 1.826506,4.851565 h -1.575928 l -0.205293,-0.655128 h -1.754051 l -0.18416,0.655128 h -1.527624 -0.02415 z m 27.971219,0.05736 -0.866459,0.863438 v 1.041562 l 0.866459,-0.86042 z m 0.784944,0.61286 c -0.05773,0.0011 -0.123783,0.0071 -0.175103,0.02416 v 0.950991 l -0.685317,0.6823 c 0.205299,0.317463 0.526978,0.51927 0.914764,0.51927 0.593078,0 1.092884,-0.497287 1.092884,-1.086847 0,-0.589569 -0.499806,-1.089866 -1.092884,-1.089866 -0.01711,0 -0.03509,-3.54e-4 -0.05435,0 z m -27.956123,0.5555 -0.61588,2.016706 h 1.231759 z m 26.645869,1.479319 -0.160007,0.15699 1.50649,1.135152 0.754755,-0.220389 -0.483043,-0.368321 h -0.205293 c -0.570285,0 -1.093553,-0.249918 -1.412902,-0.703432 z m 2.101238,1.071753 0.02113,0.01515 v -0.02113 z m -0.06341,0.812116 -2.212943,0.637014 0.935897,3.740564 z m -33.4296,1.261951 c 1.368658,0 2.348797,0.974732 2.348797,2.312568 0,1.337991 -0.980139,2.31257 -2.348797,2.31257 -0.66153,0 -1.255904,-0.225765 -1.666499,-0.633994 -0.433409,-0.430797 -0.685317,-1.020864 -0.685317,-1.678576 0,-0.657557 0.251908,-1.247777 0.685317,-1.678574 0.43341,-0.40823 1.027785,-0.633995 1.666499,-0.633994 z m -8.0305928,0.09057 h 0.8453255 0.021133 l 0.7517357,3.037134 0.8453256,-3.037134 h 0.935901 l 0.842306,3.061288 0.730603,-3.061286 h 0.845325 l -1.095904,4.468149 H 11.228238 L 10.382912,60.078997 9.5164537,63.164436 H 8.5594244 Z m 10.6541208,0 h 0.727584 l 1.506491,1.905001 1.506491,-1.905001 h 0.727583 v 4.468149 H 21.74348 V 60.214852 L 20.581157,61.667 H 20.146423 L 18.9841,60.19372 v 2.970716 h -0.866459 z m 4.972326,0 h 3.625843 v 0.815135 h -2.738251 v 0.975143 h 2.64768 v 0.818155 h -2.668813 v 0.498139 c 0,0.249327 0.11239,0.543422 0.637012,0.543422 h 2.101238 v 0.818155 h -2.122371 c -0.479024,0 -0.866164,-0.138529 -1.117037,-0.410587 -0.228151,-0.249482 -0.365301,-0.588206 -0.365301,-0.95099 z m 3.945858,0 h 0.775888 l 2.46352,2.991848 v -2.991848 h 0.866459 v 4.468149 H 30.3658 l -2.46352,-2.994868 v 2.994868 h -0.866459 z m 4.767034,0 h 0.957028 L 32.3493,60.577136 h -0.751736 z m 2.64466,0 h 2.668814 v 0.815135 h -2.62051 c -0.387671,0 -0.594745,0.183663 -0.594745,0.501158 0,0.158593 0.07013,0.498137 0.594745,0.498137 h 1.412903 c 0.433425,0 0.799744,0.135515 1.050618,0.407568 0.228151,0.249482 0.362282,0.567074 0.362282,0.929859 0,0.362785 -0.134124,0.703098 -0.362282,0.929857 -0.250874,0.249328 -0.617193,0.386435 -1.050618,0.386435 h -2.759384 v -0.818155 h 2.714098 c 0.387671,0 0.591727,-0.180642 0.591727,-0.498137 0,-0.45352 -0.40933,-0.498139 -0.591727,-0.498139 h -1.415921 c -0.433425,0 -0.796726,-0.13839 -1.047599,-0.410586 -0.251028,-0.249483 -0.365301,-0.564054 -0.365301,-0.926839 0,-0.771014 0.591804,-1.316293 1.4129,-1.316293 z m -18.953406,0.733622 c -0.818886,0 -1.482339,0.670882 -1.482339,1.497434 0,0.826537 0.663453,1.497434 1.482339,1.497434 0.818886,0 1.482339,-0.670897 1.482339,-1.497434 0,-0.826552 -0.663453,-1.497434 -1.482339,-1.497434 z m 32.883164,2.158599 -1.162322,4.012277 h 2.007648 z m -32.883164,2.481635 c 1.368658,0 2.348797,0.974577 2.348797,2.312569 0,1.337837 -0.980139,2.312568 -2.348797,2.312568 -0.66153,0 -1.255904,-0.225764 -1.666499,-0.633993 -0.433409,-0.430798 -0.685317,-1.021021 -0.685317,-1.678575 0,-0.657711 0.251908,-1.247778 0.685317,-1.678576 0.43341,-0.408229 1.027785,-0.633993 1.666499,-0.633993 z m -8.0305928,0.06944 h 0.8453255 0.021133 l 0.7517401,3.037132 0.8453256,-3.037133 h 0.9358966 l 0.842306,3.061285 0.730603,-3.061285 h 0.845325 l -1.095904,4.465131 h -0.957029 l -0.845326,-3.08242 -0.8664583,3.08242 H 8.5594244 Z m 25.9575328,0 h 1.41592 v 0.815135 h -1.41592 c -0.866695,0 -1.48234,0.59056 -1.48234,1.406864 0,0.816304 0.615645,1.403844 1.48234,1.403844 h 1.41592 v 0.818155 h -1.41592 c -0.661421,0 -1.254207,-0.22894 -1.687632,-0.637015 -0.428446,-0.403539 -0.673591,-0.961869 -0.679279,-1.588004 0.0065,-0.624888 0.251535,-1.182105 0.679279,-1.584985 0.433425,-0.408075 1.026211,-0.633994 1.687632,-0.633994 z m 1.666499,0 h 0.866459 v 2.49371 c 0,0.36294 0.113473,0.680382 0.295864,0.884572 0.205428,0.226763 0.527092,0.338132 0.914763,0.33813 0.775651,0 1.23176,-0.451687 1.23176,-1.222702 v -2.49371 h 0.887592 v 2.514844 c 0,0.566976 -0.183083,1.065211 -0.52531,1.427996 -0.364948,0.385507 -0.911333,0.591727 -1.572909,0.591727 -0.661576,0 -1.207807,-0.20622 -1.572909,-0.591727 -0.342075,-0.362785 -0.52531,-0.86102 -0.52531,-1.427996 z m -16.948778,0.02113 h 2.418235 c 0.433425,0 0.798004,0.13536 1.071752,0.407566 0.250877,0.249482 0.389454,0.567074 0.389454,0.929859 0,0.634989 -0.456283,1.337425 -1.437054,1.337425 H 20.12227 l 1.986515,1.612157 v 0.18114 h -1.050618 l -2.052934,-1.702726 v 1.702726 h -0.866459 z m 4.105867,0 h 0.890611 v 3.10657 c 0,0.249482 0.112391,0.543424 0.637013,0.543424 h 1.642347 v 0.818153 H 23.72698 c -0.456302,0 -0.843287,-0.138389 -1.117037,-0.410585 -0.228151,-0.249327 -0.365302,-0.565485 -0.365302,-0.950992 z m 3.354132,0 h 1.868772 c 0.661422,0 1.257226,0.225764 1.690651,0.633993 0.433425,0.408075 0.6823,0.977323 0.682299,1.612156 0,0.634991 -0.248874,1.200909 -0.682299,1.609138 v -0.02416 c -0.433425,0.40823 -1.029229,0.637013 -1.690651,0.637013 h -1.868772 z m 14.050518,0 h 2.303512 c 0.501747,0 0.889847,0.159514 1.186475,0.431718 0.250873,0.249328 0.389453,0.610771 0.389453,0.996278 0,0.385507 -0.138576,0.749813 -0.389453,0.999295 -0.273751,0.27205 -0.684728,0.428701 -1.186475,0.428701 h -1.412901 v 1.612155 h -0.02416 -0.866457 z m 0.902687,0.748715 v 1.225722 h 1.4129 c 0.661514,0 0.709471,-0.476804 0.709471,-0.61286 0,-0.181408 -0.07075,-0.612862 -0.709471,-0.612862 z m -25.13636,0.01206 c -0.783425,0.04008 -1.403844,0.69369 -1.403844,1.494415 0,0.826537 0.663453,1.497434 1.482339,1.497434 0.81887,0 1.482339,-0.670897 1.482339,-1.497434 0,-0.826554 -0.663469,-1.494415 -1.482339,-1.494415 -0.02559,0 -0.05322,-0.0013 -0.0785,0 z m 3.532254,0.03623 v 1.065715 h 1.527624 c 0.456225,0 0.615879,-0.271312 0.615879,-0.543424 0,-0.158732 -0.06841,-0.522291 -0.615879,-0.522291 z m 7.526416,0.06642 v 2.834861 h 0.981182 c 0.866804,0 1.482338,-0.590529 1.482338,-1.406865 0,-0.816319 -0.615534,-1.406862 -1.482338,-1.406862 v -0.02113 z m 20.577639,1.237798 -0.501157,1.678576 h 3.191103 L 49.400724,66.26195 Z M 6.0717521,71.098421 H 29.019321 V 93.910134 H 6.0717521 Z m 6.5693869,1.977458 c -2.9654211,0 -4.4470159,1.859365 -4.4470161,4.172284 v 4.694577 h 2.2129421 v -1.769147 h 4.425883 v 1.769147 h 2.234074 v -4.694577 c 0,-2.312919 -1.460461,-4.172284 -4.425883,-4.172284 z m 33.166953,0.01812 c 2.805669,0 4.767032,1.837762 4.767032,4.513435 0,2.675827 -1.961363,4.513435 -4.767032,4.513435 -2.828546,0 -4.788167,-1.837608 -4.788167,-4.513435 0,-2.675673 1.982343,-4.513435 4.788167,-4.513435 z m -27.759888,0.141899 v 4.694577 c 0,2.267567 1.436297,4.172284 4.40173,4.172284 2.965349,0 4.450036,-1.904717 4.450036,-4.172284 v -4.694577 h -2.212942 v 4.489283 c 0,1.473907 -0.775806,2.357855 -2.21294,2.357855 -1.437104,0 -2.212943,-0.883948 -2.212943,-2.357855 v -4.489283 z m 13.685217,0.01812 h 5.636509 c 1.756423,0 2.80467,1.178268 2.80467,2.674852 0,1.496584 -1.048247,2.677871 -2.80467,2.677871 h -3.423569 v 1.337425 h 6.022946 v 2.016704 h -8.235886 v -5.213846 h 5.497634 c 0.524625,0 0.800042,-0.342076 0.800042,-0.727585 0,-0.385351 -0.275417,-0.748715 -0.800042,-0.748715 h -5.497634 z m 14.113917,1.769145 c -1.619578,0 -2.578242,1.021208 -2.578243,2.563148 0,1.541951 0.958665,2.563147 2.578243,2.563149 1.619578,0 2.578243,-1.021198 2.578243,-2.563149 0,-1.54194 -0.958665,-2.563148 -2.578243,-2.563148 z m -33.227332,0.0483 c 1.459903,0 2.212942,0.817463 2.212942,2.336722 v 0.76985 h -4.425883 v -0.769859 c 0,-1.51926 0.753038,-2.336722 2.212941,-2.336722 z m 29.426387,8.136259 h 5.473482 c 1.710823,0 2.759385,1.087872 2.759385,2.403141 0,0.816304 -0.386043,1.498347 -1.252893,1.929154 0.912449,0.430797 1.322331,1.156699 1.322331,1.995571 0,1.292546 -1.071285,2.40314 -2.759386,2.40314 h -5.542919 v -1.995582 h 5.268189 c 0.547501,0 0.866459,-0.249907 0.866459,-0.748717 0,-0.430797 -0.343111,-0.703431 -0.890611,-0.703431 h -5.244037 v -1.859716 h 5.222904 c 0.5475,0 0.866459,-0.248482 0.866459,-0.67928 0,-0.476241 -0.341681,-0.748716 -0.866459,-0.748716 h -5.222904 z m -33.8522701,0.01812 v 8.706853 h 2.1887891 v -5.259132 l 4.767033,5.259132 h 2.007648 v -8.706872 h -2.188789 v 5.262152 l -4.767033,-5.262152 z m 10.1952301,0 v 1.995573 h 5.065915 l -5.065915,4.990439 v 1.720841 h 8.350609 v -1.971419 h -5.087048 l 5.087048,-4.990441 v -1.744993 z m 13.344068,0.006 h 5.636509 c 1.756423,0 2.80467,1.178268 2.80467,2.674852 0,1.496583 -1.048247,2.674852 -2.80467,2.674852 h -3.399415 v 1.337423 h 5.97464 v 2.019725 h -8.211734 v -5.216866 h 5.476502 c 0.524624,0 0.797022,-0.339212 0.797022,-0.724565 0,-0.385507 -0.272398,-0.748717 -0.797022,-0.748717 h -5.476502 z"
     id="path823" />
</svg>
