<?xml version="1.0" encoding="UTF-8" standalone="no"?>
<svg
   width="665.211"
   height="707.072"
   viewBox="0 0 665.211 707.027"
   version="1.1"
   id="svg12"
   sodipodi:docname="morph_1.svg"
   inkscape:version="1.1.2 (0a00cf5339, 2022-02-04)"
   xmlns:inkscape="http://www.inkscape.org/namespaces/inkscape"
   xmlns:sodipodi="http://sodipodi.sourceforge.net/DTD/sodipodi-0.dtd"
   xmlns="http://www.w3.org/2000/svg"
   xmlns:svg="http://www.w3.org/2000/svg">
  <defs
     id="defs16" />
  <sodipodi:namedview
     id="namedview14"
     pagecolor="#ffffff"
     bordercolor="#000000"
     borderopacity="0.25"
     inkscape:pageshadow="2"
     inkscape:pageopacity="0.0"
     inkscape:pagecheckerboard="0"
     showgrid="false"
     inkscape:zoom="1.1936549"
     inkscape:cx="332.59193"
     inkscape:cy="353.53601"
     inkscape:window-width="2560"
     inkscape:window-height="1043"
     inkscape:window-x="0"
     inkscape:window-y="0"
     inkscape:window-maximized="1"
     inkscape:current-layer="g10" />
  <g
     fill="none"
     stroke="#000"
     stroke-width="2"
     id="g10">
    <path
       d="M460.94 192.63c-14.866-8.613-31.664-13.193-47.616-19.582-47.75-19.128-88.594-54.758-138.591-66.848-10.265-2.482-21.03-3.92-31.376-1.788-10 2.06-19.01 7.319-27.723 12.646-22.2 13.568-44.846 29.322-55.733 52.953-7.246 15.735-11.462 36.786-28.2 41.254-11.082 2.956-23.647-3.318-34 1.622-25.375 12.118-2.39 45.059 3.733 60.863 10.957 28.306 2.81 59.505 15.288 87.999 13.872 31.683 38.798 56.83 56.043 86.535 21.753 37.47 37.99 108.978 93.995 106.354 17.358-.817 32.93-10.902 45.96-22.41 2.833-2.5 5.705-5.153 9.287-6.345 5.429-1.807 11.4.093 16.458 2.762 18.388 9.7 29.732 28.538 44.055 43.604 31.654 33.288 86.79 52.915 130.833 33.865 53.233-23.03 67.325-99.531 44.993-148.365-.5-1.09-1.018-2.171-1.55-3.244-13.688-27.556-35.783-49.863-53.663-74.897-17.884-25.032-32.031-55.633-26.122-85.831 4.099-20.958 17.637-40.69 14.494-61.81-2.534-16.995-15.691-30.724-30.564-39.337z"
       id="path2" />
    <path
       d="M508.516 244.24c-4.297 19.35-14.205 36.499-14.67 56.725-.344 14.855 7.856 23.857 16.652 34.913 13.03 16.384 25.634 33.153 37.076 50.69 11.258 17.25 21.39 35.31 29.214 54.389 7.707 18.785 13.097 38.558 15.022 58.803.226 2.348.4 4.697.532 7.05 1.008 18.069-.908 36.632-8.403 53.107-9.458 20.807-26.94 36.692-43.957 51.954-8.784 7.882-17.904 15.96-29.097 19.71-11.205 3.753-23.37 2.787-35.136 1.707-26.41-2.426-53.082-5.275-78.064-14.174-24.978-8.901-48.447-24.525-61.862-47.392-5.01-8.545-10.116-19.15-19.93-20.505-8.112-1.121-15.49 5.052-20.033 11.875-4.544 6.82-7.56 14.756-13.33 20.57-15.245 15.366-42.697 8.576-57.88-6.835-15.178-15.415-22.428-36.711-33.321-55.404-11.554-19.825-27.383-36.94-38.55-56.99-14.797-26.56-21.725-58.575-44.17-79.085-15.076-13.768-36.438-21.556-46.058-39.57-11.51-21.543-1.366-47.861-2.577-72.263-1.517-30.604-21.212-60.958-3.764-90.465 9.422-15.938 21.656-11.746 36.83-8.862 13.704 2.603 29.563 4.675 40.112-4.455 13.91-12.046 13.357-35.27 22.433-50.511 20.548-34.496 67.18-54.888 106.25-53.796 37.636 1.056 72.87 18.346 104.557 37.3 32.023 19.156 64.05 38.316 96.075 57.476 9.403 5.627 18.9 11.324 26.73 18.989 16.88 16.517 24.447 41.989 19.32 65.05z"
       id="path4" />
    <path
       d="M 567.78,164.808 C 535.77497,130.99284 486.7662,125.4478 450.11557,99.18948 422.06365,77.433812 435.80423,28.608094 398.39087,14.558422 368.90252,3.3697573 333.28783,-5.1410595 302.81172,6.4935937 263.29003,47.291616 200.99186,30.509757 158.58572,63.713953 126.14721,79.797456 134.09408,119.92769 119.36114,147.00066 98.559646,169.14085 63.932989,141.35637 38.838781,158.93747 3.9726508,171.1834 -5.6122346,212.12513 5.9249062,244.07604 c 0.9660539,32.75936 -10.1440454,67.87099 8.5127698,98.17976 16.51031,35.97391 61.854762,48.85705 72.822011,88.54808 16.205503,46.50998 14.338943,102.33788 54.257883,137.60126 25.37972,25.02677 52.72407,50.01532 64.25792,84.87445 12.36404,32.02474 56.12851,41.35749 82.01701,19.87941 36.20144,-25.36399 75.9196,7.58301 113.8231,10.16649 75.21353,11.31412 164.75932,-9.75849 205.48628,-79.52674 21.94799,-42.02989 46.18369,-90.22111 33.23124,-138.78215 C 627.21893,411.0595 574.1785,376.2783 564.25477,321.45926 563.10698,282.2438 607.22836,254.19842 594.92996,213.07801 591.05002,194.72212 581.03105,177.95247 567.78,164.808 Z"
       id="path6" />
    <path
       d="M469.782 262.42c-.86 14.239-5.623 27.918-8.427 41.904-3.307 16.5-3.768 34.149 2.806 49.632 9.947 23.435 33.825 37.725 48.198 58.736 14.72 21.519 18.523 49.437 13.204 74.966-5.317 25.532-19.15 48.756-36.707 68.04-7.461 8.19-16.3 16.107-27.222 17.938-9.202 1.54-18.53-1.482-27.12-5.115-13.047-5.526-25.423-12.622-36.832-21.022-18.556-13.664-38.744-32.45-48.228-53.883-3.128-7.065-7.875-16.764-16.826-17.533-11.902-1.024-14.95 13.515-17.266 22.042-1.983 7.29-5.123 14.554-10.76 19.583-5.635 5.028-14.21 7.306-20.971 3.938-5.887-2.935-9.147-9.222-13.24-14.375-9.02-11.374-22.735-17.73-34.835-25.745-29.587-19.603-50.182-49.81-70.016-79.244-12.107-17.964-32.888-36.286-30.534-57.825 1.965-17.967 13.968-37.374 4.079-52.501-3.707-5.672-1.682-10.885-7.134-14.91-7.038-5.198-13.414-11.77-16.432-19.983-3.015-8.21-2.065-18.264 3.996-24.577 10.215-10.646 28.328-6.336 41.675-12.628 14.21-6.701 19.874-23.462 25.799-38.013 6.143-15.09 14.214-29.734 26.105-40.874 11.89-11.14 28.05-18.458 44.282-17.058 27.242 2.346 46.324 26.787 63.35 48.172 16.71 20.982 37.132 42.277 63.752 45.613 24.084 3.015 51.86-8.717 71.03 6.167 11.262 8.748 15.13 24.313 14.274 38.555z"
       id="path8" />
  </g>
</svg>
