<?xml version="1.0" encoding="UTF-8" standalone="no"?>
<svg
   width="665.211"
   height="707.072"
   version="1.1"
   id="svg12"
   sodipodi:docname="morph_2.svg"
   inkscape:version="1.1.2 (0a00cf5339, 2022-02-04)"
   xmlns:inkscape="http://www.inkscape.org/namespaces/inkscape"
   xmlns:sodipodi="http://sodipodi.sourceforge.net/DTD/sodipodi-0.dtd"
   xmlns="http://www.w3.org/2000/svg"
   xmlns:svg="http://www.w3.org/2000/svg">
  <defs
     id="defs16" />
  <sodipodi:namedview
     id="namedview14"
     pagecolor="#ffffff"
     bordercolor="#000000"
     borderopacity="0.25"
     inkscape:pageshadow="2"
     inkscape:pageopacity="0.0"
     inkscape:pagecheckerboard="0"
     showgrid="false"
     inkscape:zoom="1.1936549"
     inkscape:cx="332.59193"
     inkscape:cy="353.53601"
     inkscape:window-width="2560"
     inkscape:window-height="1043"
     inkscape:window-x="0"
     inkscape:window-y="0"
     inkscape:window-maximized="1"
     inkscape:current-layer="g10" />
  <g
     fill="none"
     stroke="#000"
     stroke-width="2"
     id="g10">
    <path
       d="M470.94 202.63c-14.866-8.613-31.664-13.193-47.616-19.582-47.75-19.128-88.862-90.59-138.859-102.68-10.265-2.482-21.03-3.92-31.376-1.788-10 2.06-19.01 7.319-27.723 12.646-22.199 13.568-44.846 29.322-55.732 52.952-7.247 15.736-19.434 49.406-36.172 53.874-11.082 2.956-32.607 12.389-42.96 17.329-25.375 12.118 5.638 53.295 11.76 69.1 10.957 28.305-1.436 60.751 11.042 89.245 13.871 31.683 48.332 78.967 65.578 108.672 21.752 37.47 44.532 99.75 100.536 97.127 17.358-.817 32.93-10.902 45.96-22.41 2.833-2.5 5.705-5.153 9.287-6.345 5.429-1.807 11.4.093 16.458 2.762 18.388 9.7 27.074 13.65 41.397 28.717 31.654 33.288 103.905 39.115 129.984 4.481 39.48-52.432 68.174-70.147 45.842-118.981-.5-1.09-1.018-2.171-1.55-3.244-13.688-27.556-32.61-66.943-50.49-91.977-17.883-25.032-35.204-38.553-29.295-68.751 4.099-20.958 17.637-40.69 14.494-61.81-2.534-16.995-15.691-30.724-30.564-39.337z"
       id="path2" />
    <path
       d="M541.656 251.17c-4.297 19.349-14.205 36.498-14.671 56.724-.343 14.855 7.857 23.857 16.653 34.913 13.029 16.384 25.634 33.153 37.076 50.69 11.258 17.25-1.749 38.38 6.074 57.46 7.707 18.785 13.097 38.558 15.022 58.803.226 2.348.4 4.697.532 7.05 1.008 18.069-.908 36.632-8.403 53.107-9.458 20.807-26.94 36.692-43.957 51.954-8.784 7.882-17.904 15.96-29.097 19.71-11.205 3.753-23.37 2.787-35.136 1.707-26.41-2.426-53.082-5.275-78.064-14.174-24.978-8.901-39.631-10.974-53.046-33.84-5.01-8.546-10.116-19.15-19.93-20.506-8.112-1.12-22.678 22.797-27.221 29.62-4.544 6.82-16.376 1.205-22.147 7.02-15.244 15.365-35.508-9.17-50.69-24.581-15.179-15.415-41.277-3.381-52.17-22.074-11.554-19.825-16.981-70.852-28.148-90.902-14.797-26.559-24.73-56.004-47.176-76.514-15.076-13.768-24.986-23.545-34.606-41.558-11.509-21.544 9.334-33.733 8.123-58.135-1.517-30.604-31.912-75.087-14.464-104.594 9.422-15.938 21.656-11.746 36.831-8.862 13.703 2.603 17.76-14.248 28.308-23.378 13.911-12.046 15.254-43.374 24.33-58.615 20.548-34.497 75.56-51.647 114.63-50.555 37.636 1.056 74.785 19.12 106.472 38.074 32.023 19.156 68.693 52.173 100.719 71.333 9.403 5.627 13.868 20.479 21.696 28.144 16.88 16.517 47.588 38.918 42.46 61.979z"
       id="path4" />
    <path
       d="m 535.31177,159.38491 c -32.00503,-33.81516 -55.9979,-29.82168 -92.64853,-56.08 C 414.61132,81.549239 408.49931,53.515911 371.08595,39.466239 341.5976,28.277574 308.49589,5.0736903 278.01978,16.708343 238.49809,57.506366 183.50166,32.388486 141.09552,65.592682 108.65701,81.676185 110.90685,112.74685 96.17391,139.81982 c -20.801494,22.14019 -32.240921,1.53655 -57.335129,19.11765 -34.8661302,12.24593 -17.625443,58.88198 -6.088302,90.83289 0.966054,32.75936 -19.747717,59.68475 -1.090902,89.99352 16.51031,35.97391 57.680622,48.12503 68.647873,87.81606 16.2055,46.50998 15.70711,93.56131 55.62605,128.82469 25.37972,25.02677 44.33713,56.21229 55.87098,91.07142 12.36404,32.02474 48.09357,26.58583 73.98207,5.10775 36.20144,-25.36399 82.58029,15.70896 120.48379,18.29244 75.21353,11.31412 174.29573,6.57717 215.02269,-63.19108 21.94799,-42.02989 17.61752,-94.40501 4.66507,-142.96605 -13.11419,-53.9571 -27.74331,-92.22854 -37.66704,-147.04758 -1.14779,-39.21546 -8.84183,-55.76333 -21.14023,-96.88374 -3.87994,-18.35589 -18.58801,-48.25841 -31.83906,-61.40288 z"
       id="path6"
       sodipodi:nodetypes="ccccccccccccccccccc" />
    <path
       d="M479.782 272.42c-.86 14.239-5.623 27.918-8.427 41.904-3.307 16.5-3.768 34.149 2.806 49.632 9.947 23.435 33.825 37.725 48.198 58.736 14.72 21.519 24.683 63.496 19.364 89.025-5.317 25.532-28.732 22.178-46.29 41.462-7.461 8.19-4.418 29.082-15.341 30.913-9.202 1.54-25.13-15.2-33.72-18.833-13.048-5.526-38.139 5.726-49.548-2.674-18.556-13.664-19.562-42.396-29.046-63.829-3.128-7.065-15.78-10.256-24.911-5.763-7.945 3.91-15.188 6.605-17.505 15.132-1.983 7.29-15.688 18.602-21.324 23.63-5.636 5.029-14.21 7.307-20.972 3.939-5.887-2.935-9.147-9.222-13.239-14.375-9.02-11.374-12.405-35.804-24.505-43.82-29.587-19.602-58.62-26.923-78.453-56.357-12.106-17.964-32.888-36.286-30.533-57.825 1.964-17.967 22.638-46.234 12.749-61.361-3.707-5.672-1.682-10.885-7.134-14.91-7.038-5.198-13.414-11.77-16.432-19.983-3.015-8.21 3.54-28.743 9.6-35.056 10.216-10.646 44.915-13.21 58.262-19.501 14.21-6.701-4.967-32.33.957-46.882 6.143-15.089 14.214-29.734 26.105-40.874s28.05-18.458 44.282-17.058c27.242 2.346 46.324 26.787 63.35 48.172 16.71 20.982 39.783 68.498 66.403 71.834 24.084 3.015 51.86-8.717 71.03 6.167 11.262 8.748 15.13 24.313 14.274 38.555z"
       id="path8" />
  </g>
</svg>
