<svg width="919" height="933" viewBox="0 0 919 933" fill="none" xmlns="http://www.w3.org/2000/svg">
<g clip-path="url(#clip0_72_9874)">
<path d="M679.224 267.364C658.022 246.45 630.007 234.093 602.326 223.104C581.674 214.911 559.079 205.743 548.647 186.128C541.006 171.767 541.404 154.192 533.833 139.794C519.384 112.327 483.215 106.666 452.269 104.262C441.722 103.44 430.821 102.663 420.827 106.134C411.713 109.297 404.177 115.712 396.193 121.129C382.414 130.487 366.791 137.117 350.489 140.526C332.695 144.249 314.002 144.214 297.012 150.688C284.021 155.639 272.743 164.135 261.654 172.526C237.774 190.601 244.622 221.985 232.797 246.092C230.46 250.856 226.842 255.183 222.012 257.392C216.026 260.13 209.049 259.312 202.622 257.878C178.437 252.478 154.744 255.379 134.497 270.749C120.021 281.733 111.512 300.149 112.525 318.286C113.136 329.232 116.954 339.787 117.82 350.714C118.904 364.355 115.356 377.909 114.529 391.567C112.76 420.916 124.304 450.803 145.344 471.336C156.458 482.186 169.979 490.463 180.341 502.036C213.568 539.139 205.702 597.992 230.166 641.379C249.83 676.253 288.459 697.619 306.875 733.172C312.97 744.938 316.729 758.068 324.926 768.483C338.204 785.357 362.942 792.105 382.96 784.313C394.389 779.866 404.008 771.348 415.738 767.766C434.509 762.041 454.357 769.91 472.949 776.184C488.022 781.268 503.159 784.805 518.953 786.655C568.281 792.429 619.555 786 663.14 761.068C712.841 732.637 732.333 686.038 749.708 633.745C760.41 601.53 756.286 568.603 740.472 538.906C725.505 510.808 703.145 485.325 687.445 457.61C680.713 445.72 675.098 432.575 675.616 418.92C676.586 393.174 698.446 373.103 705.512 348.326C713.682 319.676 700.422 288.281 679.224 267.364ZM619.96 346.797C615.663 366.146 605.755 383.295 605.289 403.521C604.946 418.376 613.146 427.378 621.942 438.434C634.971 454.818 647.576 471.587 659.018 489.125C670.276 506.375 680.409 524.434 688.232 543.513C695.939 562.298 701.329 582.071 703.254 602.316C703.48 604.664 703.654 607.013 703.786 609.367C704.794 627.435 702.878 645.998 695.383 662.473C685.925 683.28 668.443 699.165 651.426 714.427C642.642 722.309 633.522 730.388 622.329 734.137C611.124 737.89 598.959 736.924 587.193 735.844C560.782 733.418 534.111 730.569 509.129 721.67C484.151 712.769 460.682 697.145 447.267 674.278C442.258 665.733 437.151 655.129 427.337 653.773C419.225 652.652 411.847 658.825 407.304 665.648C402.76 672.468 399.744 680.404 393.973 686.219C378.729 701.584 351.277 694.794 336.095 679.383C320.916 663.968 313.666 642.672 302.773 623.979C291.219 604.154 275.39 587.039 264.223 566.989C249.426 540.43 242.498 508.414 220.052 487.904C204.977 474.136 183.615 466.348 173.995 448.335C162.486 426.791 172.628 400.473 171.417 376.071C169.901 345.467 150.206 315.113 167.654 285.606C177.076 269.668 189.31 273.86 204.485 276.744C218.188 279.347 234.047 281.419 244.596 272.289C258.507 260.243 257.953 237.019 267.029 221.778C287.577 187.282 334.208 166.89 373.279 167.982C410.915 169.038 446.149 186.328 477.836 205.282C509.859 224.438 541.885 243.598 573.911 262.758C583.314 268.385 592.812 274.082 600.64 281.747C617.52 298.264 625.088 323.736 619.96 346.797Z" stroke="#CD9AAC" stroke-width="2" stroke-miterlimit="10" style="fill-opacity: 0;"/>
<path d="M600.639 281.747C592.812 274.082 583.313 268.385 573.911 262.758C541.885 243.598 509.859 224.438 477.835 205.282C446.149 186.328 410.915 169.038 373.279 167.982C334.208 166.89 287.576 187.282 267.029 221.778C257.953 237.019 258.507 260.243 244.596 272.289C234.047 281.419 218.187 279.347 204.485 276.744C189.309 273.86 177.076 269.668 167.653 285.606C150.205 315.113 169.9 345.467 171.417 376.071C172.628 400.473 162.486 426.791 173.994 448.335C183.615 466.348 204.977 474.136 220.052 487.904C242.498 508.414 249.426 540.43 264.223 566.989C275.39 587.039 291.219 604.154 302.773 623.979C313.666 642.672 320.916 663.968 336.095 679.383C351.277 694.794 378.728 701.584 393.972 686.219C399.744 680.404 402.759 672.468 407.304 665.648C411.846 658.825 419.224 652.652 427.337 653.773C437.151 655.129 442.258 665.733 447.267 674.278C460.682 697.145 484.151 712.769 509.129 721.67C534.11 730.569 560.782 733.418 587.192 735.844C598.958 736.924 611.124 737.89 622.329 734.137C633.522 730.388 642.642 722.309 651.426 714.427C668.443 699.165 685.925 683.28 695.383 662.473C702.878 645.998 704.793 627.435 703.785 609.367C703.654 607.013 703.48 604.664 703.254 602.316C701.328 582.071 695.938 562.298 688.232 543.513C680.409 524.434 670.276 506.375 659.018 489.125C647.576 471.587 634.971 454.818 621.942 438.434C613.146 427.378 604.945 418.376 605.289 403.521C605.755 383.295 615.663 366.146 619.96 346.797C625.088 323.736 617.52 298.264 600.639 281.747ZM600.581 320.997C603.725 342.117 590.187 361.848 586.088 382.806C580.179 413.004 594.326 443.605 612.209 468.637C630.09 493.671 652.185 515.978 665.873 543.534C666.405 544.607 666.923 545.688 667.423 546.778C689.755 595.612 675.663 672.114 622.429 695.143C578.388 714.193 523.25 694.566 491.596 661.278C477.273 646.212 465.93 627.375 447.541 617.674C442.483 615.005 436.513 613.106 431.084 614.912C427.501 616.104 424.63 618.757 421.798 621.257C408.768 632.765 393.195 642.85 375.836 643.667C319.833 646.291 303.595 574.783 281.842 537.313C264.597 507.608 239.671 482.461 225.799 450.778C213.321 422.284 221.468 391.085 210.511 362.779C204.389 346.975 181.403 314.034 206.778 301.917C217.131 296.976 229.696 303.25 240.779 300.294C257.516 295.826 261.732 274.776 268.978 259.04C279.865 235.409 302.512 219.655 324.711 206.087C333.424 200.76 342.434 195.502 352.433 193.441C362.78 191.309 373.545 192.747 383.81 195.23C433.806 207.32 474.652 242.95 522.401 262.077C538.353 268.467 555.151 273.047 570.018 281.66C584.89 290.273 598.048 304.001 600.581 320.997Z" stroke="#BD91AD" stroke-width="2" stroke-miterlimit="10" style="fill-opacity: 0;"/>
<path d="M570.018 281.659C555.151 273.047 538.353 268.467 522.401 262.077C474.652 242.95 433.807 207.32 383.81 195.23C373.545 192.747 362.78 191.309 352.434 193.441C342.434 195.502 333.424 200.76 324.711 206.087C302.512 219.655 279.865 235.409 268.979 259.04C261.732 274.776 257.517 295.826 240.779 300.294C229.697 303.25 217.131 296.976 206.779 301.916C181.403 314.034 204.389 346.975 210.511 362.779C221.468 391.085 213.321 422.284 225.8 450.778C239.671 482.461 264.597 507.608 281.843 537.313C303.595 574.783 319.833 646.291 375.837 643.667C393.195 642.85 408.768 632.765 421.798 621.257C424.63 618.757 427.502 616.104 431.084 614.912C436.513 613.105 442.484 615.005 447.542 617.674C465.93 627.375 477.274 646.212 491.597 661.278C523.251 694.566 578.388 714.193 622.43 695.143C675.663 672.114 689.755 595.612 667.423 546.778C666.923 545.688 666.405 544.607 665.873 543.534C652.185 515.978 630.09 493.671 612.21 468.637C594.326 443.605 580.179 413.004 586.088 382.806C590.187 361.848 603.725 342.117 600.582 320.997C598.048 304.001 584.891 290.273 570.018 281.659ZM578.859 351.449C578 365.688 573.236 379.367 570.432 393.353C567.125 409.854 566.664 427.502 573.238 442.985C583.185 466.42 607.063 480.71 621.436 501.721C636.157 523.24 639.959 551.158 634.64 576.687C629.323 602.219 615.491 625.443 597.933 644.727C590.472 652.917 581.634 660.834 570.711 662.665C561.509 664.205 552.182 661.183 543.591 657.55C530.544 652.024 518.168 644.928 506.759 636.528C488.203 622.864 468.015 604.078 458.531 582.645C455.403 575.58 450.656 565.881 441.705 565.112C429.803 564.088 426.756 578.627 424.439 587.154C422.456 594.445 419.316 601.708 413.68 606.737C408.044 611.765 399.469 614.043 392.708 610.675C386.821 607.74 383.561 601.453 379.469 596.3C370.448 584.926 356.733 578.57 344.633 570.555C315.046 550.952 294.451 520.745 274.617 491.311C262.511 473.347 241.729 455.025 244.084 433.486C246.049 415.519 258.051 396.112 248.162 380.985C244.455 375.313 246.48 370.1 241.029 366.075C233.99 360.877 227.614 354.305 224.597 346.092C221.582 337.883 222.532 327.828 228.592 321.515C238.808 310.869 256.92 315.179 270.267 308.887C284.478 302.186 290.141 285.426 296.066 270.874C302.209 255.785 310.28 241.14 322.171 230.001C334.062 218.861 350.221 211.542 366.453 212.942C393.695 215.288 412.777 239.729 429.803 261.115C446.513 282.097 466.935 303.391 493.555 306.727C517.639 309.742 545.416 298.01 564.585 312.894C575.847 321.642 579.716 337.207 578.859 351.449Z" stroke="#72517A" stroke-width="2" stroke-miterlimit="10" style="fill-opacity: 0;"/>
</g>
<defs>
<clipPath id="clip0_72_9874">
<rect width="594.589" height="718.543" fill="white" transform="translate(0.928223 381.905) rotate(-39.9192)"/>
</clipPath>
</defs>
</svg>
