<svg width="642" height="673" viewBox="0 0 642 673" fill="none" xmlns="http://www.w3.org/2000/svg">
<g clip-path="url(#clip0_72_9870)">
<path d="M131.296 232.616C121.986 252.233 120.204 274.488 119.283 296.183C118.599 312.368 117.711 330.125 106.711 342.017C98.6573 350.724 86.4622 354.669 78.3669 363.338C62.9247 379.88 67.7091 406.14 73.4827 428.023C75.4486 435.482 77.5307 443.173 82.3195 449.221C86.6847 454.736 92.9104 458.385 98.5568 462.582C108.307 469.822 116.622 478.986 122.882 489.392C129.717 500.749 134.18 513.627 142.716 523.771C149.243 531.527 157.8 537.251 166.239 542.872C184.416 554.974 204.379 542.725 223.815 545.079C227.656 545.545 231.503 546.997 234.184 549.793C237.506 553.257 238.618 558.256 239.173 563.026C241.261 580.973 248.946 596.589 264.388 606.839C275.425 614.169 290.146 615.606 302.39 610.555C309.78 607.507 316.131 602.344 323.446 599.126C332.577 595.105 342.76 594.293 352.363 591.584C372.993 585.757 390.799 570.634 399.885 551.22C404.687 540.964 407.14 529.668 412.62 519.756C430.189 487.973 472.597 479.26 496.595 452.003C515.885 430.093 521.322 398.368 541.379 377.155C548.017 370.134 556.155 364.394 561.357 356.251C569.787 343.058 568.495 324.407 558.325 312.495C552.52 305.694 544.346 301.116 539.065 293.9C530.617 282.351 531.27 266.797 531.127 252.491C531.008 240.893 529.81 229.622 527.292 218.304C519.427 182.956 502.692 149.198 475.064 125.176C443.559 97.7819 406.797 95.5485 366.623 96.139C341.875 96.5038 320.195 107.247 303.545 125.263C287.793 142.313 275.616 163.825 260.304 181.287C253.733 188.776 246.031 195.797 236.506 198.718C218.547 204.231 199.481 193.999 180.726 195.082C159.04 196.334 140.608 213 131.296 232.616ZM200.21 254.35C214.563 252.663 228.748 255.369 242.785 250.834C253.096 247.504 257.325 239.698 262.825 230.988C270.977 218.085 279.497 205.381 288.825 193.293C297.998 181.402 307.999 170.09 319.257 160.124C330.341 150.309 342.66 141.851 356.136 135.666C357.699 134.947 359.274 134.263 360.863 133.607C373.061 128.576 386.301 125.439 399.443 126.644C416.039 128.161 431.172 136.384 445.764 144.437C453.299 148.592 461.051 152.932 466.319 159.738C471.592 166.551 473.848 175.159 475.928 183.519C480.599 202.285 485.039 221.332 484.91 240.667C484.777 260 479.654 279.909 467.131 294.634C462.45 300.134 456.375 306.196 457.797 313.278C458.973 319.133 464.994 322.73 470.782 324.22C476.568 325.712 482.756 325.883 488.145 328.46C502.383 335.267 504.298 355.797 497.332 369.949C490.363 384.1 477.441 394.204 467.187 406.19C456.311 418.904 448.327 433.911 437.204 446.412C422.47 462.975 402.09 475.431 393.358 495.807C387.498 509.492 387.264 526.068 377.171 537.016C365.101 550.111 344.547 549.446 328.037 556.137C307.331 564.528 291.161 585.374 266.657 580.445C253.423 577.783 253.372 568.354 251.715 557.214C250.217 547.155 247.837 535.739 239.019 530.667C227.386 523.982 211.529 529.938 198.858 527.348C170.175 521.482 144.942 494.272 136.315 467.11C128.007 440.945 131.453 412.536 136.896 386.171C142.398 359.525 147.901 332.876 153.405 306.227C155.022 298.403 156.664 290.496 160.062 283.267C167.382 267.68 183.102 256.355 200.21 254.35Z" stroke="#CD9AAC" stroke-width="2" stroke-miterlimit="10" style="fill-opacity: 0;"/>
<path d="M160.062 283.267C156.665 290.496 155.022 298.403 153.405 306.227C147.902 332.876 142.398 359.525 136.896 386.171C131.454 412.536 128.008 440.945 136.315 467.11C144.942 494.272 170.175 521.482 198.858 527.348C211.53 529.938 227.386 523.982 239.019 530.667C247.837 535.739 250.218 547.155 251.715 557.214C253.373 568.354 253.423 577.783 266.658 580.444C291.161 585.374 307.332 564.528 328.038 556.137C344.548 549.446 365.102 550.111 377.172 537.016C387.264 526.068 387.498 509.492 393.358 495.807C402.091 475.431 422.47 462.975 437.204 446.412C448.328 433.911 456.311 418.904 467.187 406.19C477.441 394.204 490.364 384.1 497.332 369.949C504.298 355.797 502.383 335.267 488.146 328.46C482.757 325.883 476.569 325.712 470.783 324.22C464.995 322.73 458.974 319.133 457.798 313.278C456.376 306.196 462.45 300.134 467.131 294.634C479.655 279.909 484.778 260 484.91 240.667C485.04 221.331 480.599 202.285 475.929 183.519C473.848 175.159 471.593 166.551 466.319 159.738C461.052 152.932 453.3 148.592 445.764 144.437C431.172 136.384 416.039 128.161 399.443 126.644C386.301 125.439 373.061 128.576 360.864 133.607C359.274 134.263 357.699 134.947 356.137 135.666C342.661 141.851 330.341 150.309 319.258 160.124C308 170.09 297.999 181.402 288.825 193.293C279.497 205.381 270.978 218.085 262.826 230.988C257.325 239.698 253.096 247.504 242.786 250.834C228.749 255.368 214.564 252.663 200.211 254.35C183.103 256.355 167.382 267.68 160.062 283.267ZM187.099 273.885C200.886 266.651 217.72 271.235 233.134 269.026C255.343 265.845 273.015 248.76 285.956 230.438C298.899 212.118 308.953 191.551 324.639 175.513C325.25 174.889 325.87 174.273 326.501 173.667C354.762 146.569 410.815 137.907 439.449 169.029C463.136 194.778 462.859 237.451 447.539 267.235C440.605 280.713 430.359 293.044 428.094 308.033C427.471 312.156 427.596 316.723 430.143 320.027C431.824 322.207 434.34 323.547 436.741 324.897C447.792 331.106 458.473 339.406 463.203 351.161C478.453 389.089 433.119 417.434 412.543 441.405C396.231 460.409 384.901 483.607 366.418 500.762C349.796 516.194 326.36 518.074 309.502 532.412C300.091 540.421 282.93 564.154 268.495 549.592C262.609 543.651 263.912 533.494 259.216 526.573C252.122 516.122 236.618 518.273 224.044 517.061C205.162 515.238 188.879 503.428 174.209 491.401C168.45 486.682 162.666 481.74 158.847 475.351C154.896 468.739 153.302 460.982 152.547 453.319C148.869 415.995 163.595 379.32 165.302 341.855C165.871 329.338 164.992 316.673 167.353 304.37C169.713 292.063 176.006 279.709 187.099 273.885Z" stroke="#BD91AD" stroke-width="2" stroke-miterlimit="10" style="fill-opacity: 0;"/>
<path d="M167.353 304.37C164.992 316.673 165.871 329.338 165.301 341.855C163.594 379.32 148.868 415.995 152.546 453.319C153.301 460.982 154.895 468.739 158.847 475.351C162.666 481.74 168.449 486.682 174.208 491.401C188.879 503.428 205.161 515.238 224.044 517.061C236.617 518.273 252.122 516.122 259.216 526.573C263.912 533.494 262.609 543.651 268.495 549.592C282.929 564.154 300.09 540.421 309.502 532.412C326.36 518.074 349.795 516.194 366.418 500.762C384.901 483.607 396.231 460.409 412.543 441.405C433.118 417.434 478.453 389.089 463.202 351.161C458.473 339.406 447.791 331.106 436.741 324.897C434.339 323.548 431.823 322.207 430.143 320.027C427.596 316.723 427.471 312.156 428.094 308.033C430.359 293.044 440.605 280.713 447.539 267.235C462.859 237.451 463.136 194.778 439.448 169.029C410.814 137.907 354.761 146.569 326.501 173.667C325.87 174.273 325.25 174.889 324.639 175.513C308.953 191.552 298.899 212.118 285.956 230.438C273.015 248.76 255.342 265.845 233.133 269.026C217.72 271.235 200.885 266.651 187.099 273.885C176.006 279.709 169.713 292.063 167.353 304.37ZM213.279 281.53C223.289 278.704 233.85 278.7 244.153 277.273C256.307 275.589 268.568 271.67 277.65 263.427C291.397 250.953 295.503 231.083 306.518 216.144C317.8 200.844 336.109 191.524 354.962 189.058C373.816 186.59 393.126 190.538 410.618 197.997C418.047 201.168 425.62 205.352 429.502 212.433C432.772 218.399 432.93 225.546 432.491 232.333C431.818 242.642 429.904 252.866 426.86 262.737C421.906 278.792 413.819 297.202 401.339 308.876C397.226 312.725 391.687 318.322 393.307 324.669C395.459 333.109 406.2 331.717 412.627 331.265C418.123 330.88 423.877 331.299 428.692 333.972C433.507 336.645 437.134 342.002 436.438 347.465C435.83 352.223 432.284 355.977 429.719 360.031C424.053 368.972 422.97 379.94 420.356 390.195C413.962 415.271 398.109 436.702 382.606 457.423C373.144 470.07 365.518 488.776 350.123 492.325C337.282 495.285 321.039 491.68 312.998 502.12C309.983 506.034 305.908 505.891 304.445 510.611C302.556 516.704 299.562 522.672 294.632 526.72C289.704 530.767 282.553 532.527 276.752 529.87C266.97 525.392 265.589 511.887 258.054 504.208C250.029 496.033 237.13 496.157 225.689 495.571C213.826 494.964 201.806 492.923 191.282 487.41C180.758 481.897 171.84 472.529 168.908 461.018C163.983 441.699 176.23 422.694 186.866 405.838C197.301 389.297 207.059 370.125 202.966 350.997C199.261 333.691 184.516 317.383 190.162 300.613C193.481 290.759 203.268 284.359 213.279 281.53Z" stroke="#72517A" stroke-width="2" stroke-miterlimit="10" style="fill-opacity: 0;"/>
</g>
<defs>
<clipPath id="clip0_72_9870">
<rect width="433.535" height="523.913" fill="white" transform="translate(372.98 672.116) rotate(-149.141)"/>
</clipPath>
</defs>
</svg>
