<svg width="36" height="36" viewBox="0 0 36 36" fill="none" xmlns="http://www.w3.org/2000/svg">
<g clip-path="url(#clip0_916_912)">
<path d="M36.0001 19.0825C35.7816 24.4883 33.0516 29.5781 27.6173 33.1862C27.2187 33.4509 26.8201 33.6858 26.3187 33.5747C25.813 33.4594 25.4959 33.1307 25.3844 32.6396C25.2344 31.9991 25.5473 31.5508 26.0744 31.2263C27.8573 30.1246 29.3959 28.754 30.5787 27.0289C33.9559 22.0971 34.573 16.8194 32.0101 11.4265C29.4559 6.04633 25.033 3.09152 19.0416 2.5535C18.7759 2.52788 18.5059 2.52361 18.2401 2.50226C17.2116 2.4254 16.6201 1.93436 16.7273 1.17431C16.8516 0.281885 17.4516 -0.0212821 18.3087 6.76423e-05C20.2244 0.0555771 22.0887 0.384364 23.9016 1.00351C31.1187 3.48008 36.073 10.4487 36.0001 19.0782V19.0825Z" fill="white"/>
<path d="M18.5059 35.9958C15.1373 35.966 12.493 35.3468 9.99015 34.1384C8.90587 33.6132 8.5673 32.9642 8.96158 32.2169C9.34301 31.491 10.0073 31.38 11.0444 31.8839C14.1816 33.404 17.4602 33.8566 20.893 33.2118C21.1244 33.1691 21.3516 33.1136 21.583 33.088C22.3244 33.0111 22.8473 33.3442 23.0016 34.053C23.173 34.8387 22.7316 35.3554 21.9944 35.5262C20.6573 35.8379 19.2987 36.0172 18.5059 35.9958Z" fill="white"/>
<path d="M7.64163 30.0734C7.61591 30.7054 7.35877 31.0726 6.89163 31.2776C6.3302 31.5252 5.85449 31.3416 5.43449 30.936C3.43306 29.006 1.94163 26.7472 0.998772 24.1339C0.784487 23.5404 0.583058 22.9384 0.441629 22.3235C0.274487 21.5762 0.531629 20.9742 1.32449 20.7863C2.08734 20.6027 2.63592 20.94 2.84163 21.7171C3.60449 24.6207 5.05306 27.1229 7.21306 29.2152C7.48734 29.4799 7.66734 29.7916 7.64163 30.0734Z" fill="white"/>
<path d="M8.73634e-05 16.0553C0.235802 14.1466 0.711516 12.2635 1.56437 10.483C1.91152 9.75708 2.5158 9.52223 3.21437 9.82967C3.9258 10.1414 4.14437 10.7605 3.81866 11.4864C3.12437 13.0407 2.68294 14.6633 2.47294 16.3499C2.37009 17.1697 1.89437 17.648 1.06294 17.5369C0.291516 17.4345 -0.0384841 16.8708 8.73634e-05 16.0553Z" fill="white"/>
<path d="M8.01858 5.39726C8.0443 6.11034 7.26001 6.97715 6.55287 7.02412C5.83715 7.07108 5.25001 6.55015 5.2243 5.84988C5.20287 5.15387 6.0043 4.25718 6.6943 4.20594C7.38001 4.1547 7.99287 4.70553 8.01858 5.39726Z" fill="white"/>
<path d="M18.5999 21.303C18.5999 22.1101 18.6042 22.9171 18.5999 23.7241C18.5956 24.2066 18.3342 24.5738 17.9185 24.7275C17.5285 24.8685 17.087 24.766 16.8042 24.4628C16.5899 24.2365 16.5213 23.959 16.5213 23.6558C16.5213 22.0802 16.517 20.5046 16.5299 18.9289C16.5299 18.6813 16.4699 18.6087 16.2128 18.613C14.6228 18.6258 13.0285 18.6215 11.4385 18.6172C10.6285 18.6172 10.1142 17.9084 10.3928 17.2039C10.5556 16.7897 10.9328 16.5506 11.4428 16.5506C13.0242 16.5506 14.6056 16.542 16.187 16.5591C16.4785 16.5591 16.5299 16.4737 16.5256 16.209C16.5128 14.6334 16.517 13.0578 16.5213 11.4821C16.5213 10.7477 17.1128 10.2481 17.7856 10.3976C18.2785 10.5086 18.5956 10.927 18.5956 11.4992C18.5956 13.0748 18.6042 14.6504 18.5913 16.2261C18.5913 16.4908 18.6513 16.5591 18.9213 16.5591C20.5113 16.5463 22.1056 16.5463 23.6956 16.5548C24.497 16.5548 25.0199 17.2807 24.7199 17.9767C24.5228 18.4336 24.1499 18.6215 23.6613 18.6215C22.0885 18.6215 20.5156 18.6215 18.9428 18.6215C18.5442 18.6215 18.5999 18.5745 18.5956 18.9759C18.5956 19.753 18.5956 20.5344 18.5956 21.3116L18.5999 21.303Z" fill="white"/>
</g>
<defs>
<clipPath id="clip0_916_912">
<rect width="36" height="36" fill="white"/>
</clipPath>
</defs>
</svg>
