<svg width="73" height="74" viewBox="0 0 73 74" fill="none" xmlns="http://www.w3.org/2000/svg">
<path d="M34.1316 2.15758C37.0107 1.95853 39.9141 2.08476 42.7582 2.5858C48.331 3.55681 53.6561 5.91055 58.1228 9.37999C62.4507 12.7232 65.9687 17.1054 68.305 22.0498C70.3946 26.4572 71.5463 31.3055 71.6521 36.1829C71.6521 37.3005 71.6667 38.4201 71.5696 39.5348C71.0889 46.3834 68.5157 53.0649 64.2869 58.4715C61.098 62.5789 56.9712 65.9483 52.318 68.2681C49.236 69.8004 45.9296 70.8859 42.5339 71.453C39.2713 71.9997 35.931 72.0793 32.645 71.6977C27.5432 71.1103 22.5823 69.3605 18.2253 66.6426C13.4284 63.6538 9.37726 59.4804 6.53507 54.5952C3.53168 49.446 1.86152 43.516 1.79646 37.552C1.71004 33.1135 2.49754 28.6614 4.08905 24.5171C6.1049 19.2241 9.43844 14.438 13.7051 10.7122C17.8543 7.06994 22.8813 4.44238 28.2375 3.10529C30.1689 2.61784 32.144 2.311 34.1287 2.15661L34.1316 2.15758ZM35.393 9.22268C35.6872 9.23045 35.9824 9.23725 36.2776 9.23725C36.2951 8.32741 36.3174 7.4166 36.3378 6.50578C36.3534 6.06883 36.3378 5.62896 36.4009 5.19589C36.4087 5.59983 36.4825 5.99697 36.534 6.39606C36.666 7.34862 36.7961 8.30119 36.9282 9.25278C37.2564 9.25473 37.5866 9.26832 37.9157 9.26444C38.1682 7.93123 38.475 6.60871 38.6955 5.27065C38.7129 5.48039 38.7178 5.6911 38.712 5.90181C38.6819 7.02625 38.6644 8.15068 38.6314 9.27609C38.9606 9.29065 39.2907 9.29259 39.6209 9.29842C39.6548 7.69236 39.6898 6.08728 39.7306 4.48122C39.1926 4.47248 38.6547 4.46471 38.1167 4.45306C37.9041 5.58041 37.7099 6.7097 37.4856 7.8351C37.3729 6.70096 37.2632 5.56681 37.1496 4.43267C36.6019 4.43461 36.0533 4.40937 35.5047 4.41325C35.4668 6.01639 35.4357 7.62051 35.393 9.22365V9.22268ZM32.9742 4.57055C32.6013 4.62784 32.2197 4.79389 32.0109 5.12306C31.8264 5.38815 31.8099 5.72703 31.8449 6.0397C31.9391 6.85729 32.0381 7.67391 32.1323 8.49248C32.1643 8.7731 32.2362 9.07897 32.4644 9.26832C32.813 9.58584 33.3218 9.64701 33.7704 9.56836C34.0967 9.5101 34.4443 9.40232 34.6638 9.13723C34.9182 8.83428 34.9832 8.4148 34.9327 8.03125C34.8424 7.26609 34.7521 6.49899 34.6618 5.73286C34.622 5.41145 34.555 5.06286 34.3025 4.83758C33.9559 4.49676 33.4218 4.5055 32.9742 4.5725V4.57055ZM40.7191 4.63464C40.4414 6.21642 40.1462 7.79529 39.8626 9.37513C40.419 9.47029 40.9735 9.58001 41.5328 9.66449C41.9319 9.7179 42.4456 9.70139 42.6534 9.28871C42.8855 8.80126 43.0787 8.22448 42.9282 7.68362C42.8505 7.39815 42.5602 7.27677 42.297 7.22142C42.5796 7.18744 42.9078 7.16704 43.0855 6.90778C43.3428 6.53394 43.4244 6.03873 43.3234 5.59789C43.203 5.18812 42.7641 5.00945 42.3834 4.92789C41.8299 4.8201 41.2735 4.72397 40.7181 4.63464H40.7191ZM28.7289 5.52215C29.0823 7.08645 29.4358 8.65075 29.7882 10.216C30.5515 10.0422 31.3128 9.86452 32.076 9.68877C32.0226 9.44796 31.9682 9.20617 31.9138 8.96633C31.5176 9.05664 31.1205 9.15083 30.7243 9.23822C30.4243 7.9157 30.1271 6.59123 29.8271 5.26871C29.461 5.35125 29.0949 5.43864 28.7289 5.52215ZM44.0565 5.23861C43.6963 6.80389 43.3195 8.36528 42.9534 9.92958C43.3176 10.016 43.6836 10.0995 44.0487 10.184C44.4168 8.61968 44.7867 7.05441 45.1557 5.4901C44.7896 5.40465 44.4236 5.31532 44.0555 5.23958L44.0565 5.23861ZM26.9732 5.94745C26.5003 6.04455 25.9896 6.25235 25.7546 6.70387C25.5866 7.01071 25.6177 7.37775 25.7206 7.7011C25.9731 8.49733 26.2304 9.29162 26.4819 10.0879C26.5673 10.3627 26.7091 10.651 26.9791 10.7841C27.551 11.0987 28.2647 10.9122 28.7774 10.5637C29.2231 10.2675 29.3192 9.65575 29.1678 9.17316C28.9289 8.40994 28.6803 7.65061 28.4385 6.88836C28.3414 6.59512 28.22 6.27857 27.952 6.09893C27.6724 5.89307 27.3005 5.88045 26.9723 5.94939L26.9732 5.94745ZM44.2565 10.2588C44.5576 10.3578 44.8586 10.4578 45.1625 10.551C45.3383 10.1937 45.516 9.83539 45.6985 9.48C45.8927 9.54506 46.0879 9.60817 46.2831 9.67129C46.1928 10.0568 46.1015 10.4442 46.0102 10.8297C46.3656 10.9472 46.7229 11.0618 47.0793 11.1793C47.3842 9.58584 47.6911 7.99338 47.996 6.40091C47.5056 6.24458 47.0191 6.08242 46.5307 5.92415C45.7743 7.36999 45.0139 8.81388 44.2565 10.2597V10.2588ZM49.1894 6.89419C48.5271 8.36042 47.8688 9.82859 47.2065 11.2948C47.4736 11.4162 47.7435 11.5347 48.0115 11.6551C48.5524 10.4685 49.0719 9.2722 49.6263 8.09048C49.3437 9.39164 49.0515 10.6909 48.764 11.9901C49.2117 12.1901 49.6593 12.3901 50.1089 12.5902C50.7682 11.1249 51.4247 9.6577 52.0908 8.19438C51.8169 8.05746 51.5334 7.93997 51.2547 7.81374C50.7857 8.85078 50.3206 9.88977 49.8526 10.9268C50.0905 9.78878 50.3497 8.65561 50.5983 7.51952C50.1283 7.31173 49.6603 7.10102 49.1903 6.89419H49.1894ZM23.5144 7.27094C23.162 7.42048 22.7794 7.59332 22.5745 7.93609C22.3191 8.28371 22.3968 8.75368 22.5395 9.13141C22.8046 9.75577 23.0862 10.3714 23.3552 10.9948C23.5212 11.3725 23.696 11.7949 24.0747 12.0085C24.4981 12.2474 25.0215 12.1513 25.4371 11.9435C25.8294 11.7629 26.1974 11.4356 26.2683 10.9909C26.3547 10.4675 26.0401 10.0053 25.8556 9.5402C25.5012 9.69751 25.1458 9.85287 24.7923 10.0131C24.9224 10.3423 25.1079 10.654 25.1972 10.9987C25.2205 11.1773 25.0234 11.2715 24.8719 11.2657C24.6884 11.2065 24.6379 11.0045 24.5612 10.8511C24.2145 10.0344 23.8329 9.23142 23.5008 8.40897C23.3562 8.14583 23.7815 7.88365 23.9456 8.12835C24.0912 8.37499 24.1835 8.64978 24.3058 8.90807C24.6602 8.75174 25.0147 8.59346 25.3691 8.43616C25.1807 8.04193 25.0681 7.56807 24.6797 7.3127C24.3447 7.04858 23.8815 7.11946 23.5144 7.27094ZM50.2711 12.7135C50.542 12.8785 50.8071 13.0543 51.0819 13.2135C51.3353 12.9067 51.5975 12.6076 51.8548 12.3047C52.0267 12.4134 52.2005 12.5212 52.3743 12.63C52.1986 12.9863 52.0092 13.3378 51.8315 13.6932C52.15 13.8894 52.4666 14.0894 52.7831 14.2894C53.4658 12.8164 54.1474 11.3424 54.8271 9.86646C54.3921 9.59652 53.9571 9.32367 53.524 9.04984C52.4394 10.2704 51.3518 11.49 50.2701 12.7144L50.2711 12.7135ZM18.9496 9.87909C19.5837 10.8054 20.2401 11.7162 20.8635 12.6494C20.0275 11.8697 19.1953 11.0851 18.3661 10.2976C17.932 10.5792 17.5154 10.887 17.0882 11.1802C18.0019 12.4969 18.9195 13.8117 19.8323 15.1284C20.0741 14.9594 20.3168 14.7895 20.5586 14.6196C19.8129 13.5437 19.0584 12.4736 18.3214 11.3919C19.2895 12.3144 20.2664 13.2262 21.2354 14.1477C21.6413 13.8709 22.0385 13.5816 22.4473 13.3087C21.5452 11.9823 20.6179 10.6734 19.7061 9.35377C19.4526 9.52564 19.2041 9.7043 18.9506 9.87714L18.9496 9.87909ZM30.7379 12.3523C29.7591 12.6096 28.7764 12.8863 27.8462 13.2835C27.2509 14.8429 26.679 16.4121 26.0964 17.9773C27.3626 20.0116 28.622 22.0498 29.8902 24.0831C35.26 24.0792 40.6298 24.0908 45.9986 24.0773C47.1385 22.3702 48.2727 20.6603 49.4302 18.9649C49.0573 17.4044 48.6524 15.8518 48.2708 14.2933C42.9156 11.556 36.5631 10.8792 30.7379 12.3523ZM54.1882 15.3381C54.5698 15.6615 54.9524 15.9839 55.3369 16.3062C55.6612 16.5752 56.106 16.75 56.5274 16.6393C56.8245 16.5694 57.0702 16.3664 57.2605 16.1353C57.7334 15.5702 58.2141 15.009 58.687 14.4429C58.9239 14.1418 59.1055 13.7476 59.0093 13.3582C58.922 13.0397 58.6724 12.8038 58.4316 12.5931C58.0558 12.2765 57.68 11.9619 57.3052 11.6454C56.2652 12.8747 55.2253 14.1059 54.1882 15.3372V15.3381ZM16.088 12.1212C15.5598 12.3124 15.0655 12.7076 14.8577 13.2417C14.6975 13.6699 14.882 14.1312 15.1723 14.4555C15.6685 15.0517 16.1657 15.6459 16.6609 16.2431C16.8707 16.5053 17.1319 16.7888 17.4921 16.8044C18.1417 16.8694 18.7292 16.4266 19.0691 15.9071C19.3614 15.4585 19.2157 14.8555 18.8836 14.47C18.3292 13.8088 17.7873 13.1349 17.2193 12.4853C16.9513 12.159 16.4988 11.9862 16.089 12.1202L16.088 12.1212ZM20.9111 17.2734C22.3813 17.2763 23.8504 17.2675 25.3205 17.2772C25.7866 16.1062 26.2294 14.9254 26.679 13.7476C24.6127 14.6604 22.6648 15.8469 20.9111 17.2734ZM13.0924 14.8584C14.2489 15.9683 15.3889 17.0976 16.5493 18.2026C16.8046 17.9269 17.0736 17.6656 17.3309 17.3918C16.1803 16.2781 15.0286 15.1633 13.8828 14.0447C13.6177 14.3147 13.3546 14.5866 13.0924 14.8594V14.8584ZM56.4818 17.4481C57.0207 18.0113 57.5625 18.5726 58.1005 19.1348C58.2811 18.9649 58.4607 18.792 58.6404 18.6211C58.3607 18.3279 58.0791 18.0346 57.7985 17.7404C58.1733 17.3899 58.5316 17.0199 58.9142 16.6762C59.2113 16.9296 59.4638 17.2374 59.7405 17.5151C59.9182 17.3413 60.0988 17.1695 60.2775 16.9966C60.0056 16.7102 59.7308 16.4276 59.458 16.1431C59.7095 15.9062 59.9561 15.6634 60.2086 15.4275C60.4795 15.7129 60.7543 15.9945 61.0262 16.279C61.2019 16.1062 61.3787 15.9334 61.5622 15.7693C61.0369 15.207 60.5008 14.6526 59.9629 14.1011C58.8035 15.2168 57.6412 16.3305 56.4818 17.4472V17.4481ZM50.0701 15.2954C50.3643 16.4538 50.6731 17.6074 50.9692 18.7658C52.1549 18.7658 53.3415 18.7677 54.5271 18.7658C53.1783 17.4472 51.68 16.281 50.071 15.2964L50.0701 15.2954ZM11.6844 16.2907C11.4368 16.5859 11.1737 16.9131 11.1494 17.3141C11.0834 17.7482 11.3756 18.1327 11.6825 18.4036C12.2534 18.8755 12.8312 19.3377 13.4041 19.8067C13.6993 20.0407 14.0489 20.2728 14.4431 20.2408C14.9024 20.2214 15.2772 19.9019 15.5404 19.5494C15.7987 19.2134 15.9734 18.7648 15.8346 18.3434C15.6763 17.8375 15.183 17.5705 14.8072 17.2423C14.5616 17.5423 14.3178 17.8433 14.0731 18.1434C14.3295 18.3706 14.6198 18.56 14.8587 18.8066C15.0578 19.0212 14.7033 19.3562 14.4887 19.1756C13.8158 18.6571 13.1691 18.1045 12.5049 17.5753C12.37 17.4608 12.2156 17.3598 12.1194 17.2073C12 17.016 12.269 16.7306 12.4651 16.8558C12.7059 17.0092 12.9108 17.2102 13.138 17.3831C13.3837 17.083 13.6294 16.783 13.8731 16.48C13.5148 16.2072 13.1837 15.8236 12.703 15.7935C12.2952 15.7324 11.9379 16.0004 11.6844 16.2907ZM59.1026 20.5059C59.3181 20.8117 59.5405 21.1127 59.758 21.4186C60.3824 20.9719 61.0019 20.5175 61.6263 20.0689C61.8583 20.3874 62.0865 20.7078 62.3196 21.0263C62.5109 20.8875 62.7022 20.7486 62.8934 20.6088C62.6633 20.2903 62.4332 19.9718 62.204 19.6523C62.4905 19.4407 62.7808 19.2338 63.0702 19.0241C63.2993 19.3436 63.5304 19.6621 63.7596 19.9815C63.9616 19.8378 64.1636 19.6912 64.3646 19.5446C63.915 18.9212 63.4683 18.2958 63.0148 17.6754C61.7107 18.6192 60.4076 19.563 59.1035 20.5059H59.1026ZM19.5459 18.4551C17.7766 20.1107 16.2337 22.01 14.9927 24.0918C12.4574 28.3167 11.1931 33.2951 11.4329 38.2172C11.6757 38.5007 11.9777 38.7328 12.2418 38.9978C13.4614 40.1427 14.6839 41.2836 15.9016 42.4294C18.3583 41.64 20.814 40.8457 23.2678 40.0485C25.0079 34.9905 26.7518 29.9334 28.4929 24.8754C28.5317 24.7822 28.5356 24.6773 28.4696 24.5958C27.2694 22.5042 26.0721 20.4107 24.8719 18.3182C23.1746 18.3201 21.4782 18.3162 19.7808 18.3201C19.6808 18.3085 19.6167 18.3988 19.5468 18.4541L19.5459 18.4551ZM9.96959 18.6668C9.68702 19.0979 9.40251 19.529 9.12188 19.9631C10.3192 21.0593 11.5116 22.1605 12.7079 23.2567C12.8866 22.9917 13.0652 22.7256 13.2322 22.4537C12.9293 22.1983 12.637 21.9313 12.3408 21.6701C12.4525 21.4963 12.5651 21.3235 12.6788 21.1516C13.0254 21.3409 13.3769 21.5215 13.7236 21.7109C13.9304 21.3943 14.144 21.0817 14.3411 20.7593C12.8807 20.0679 11.4271 19.364 9.97056 18.6668H9.96959ZM50.2381 19.7592C48.9786 21.6517 47.7056 23.5354 46.4423 25.424C47.793 30.6743 49.1243 35.9275 50.4731 41.1778C52.8734 42.1653 55.2728 43.1596 57.6722 44.1481C59.0249 43.2713 60.3736 42.3915 61.7282 41.5196C62.1098 39.5135 62.2283 37.4617 62.1234 35.4245C61.8331 29.8091 59.5677 24.3326 55.8331 20.132C55.6748 19.9893 55.57 19.7106 55.3165 19.7533C53.6231 19.7582 51.9306 19.7494 50.2381 19.7572V19.7592ZM61.6224 22.0148C61.334 22.1692 61.0456 22.3789 60.9281 22.6974C60.7708 23.1373 60.9126 23.6228 61.1407 24.0103C61.3262 24.3113 61.5729 24.62 61.9341 24.7055C62.2885 24.7948 62.6517 24.6628 62.9663 24.5026C64.0198 23.9452 65.0724 23.3839 66.127 22.8276C65.959 22.4926 65.7823 22.1624 65.6065 21.8313C64.5296 22.3974 63.4566 22.9693 62.3827 23.5393C62.2633 23.5976 62.1399 23.6607 62.005 23.6685C61.8457 23.649 61.7379 23.4743 61.7515 23.3247C61.8127 23.1762 61.9681 23.1082 62.0982 23.0324C63.178 22.4625 64.2558 21.8876 65.3366 21.3176C65.1608 20.9855 64.986 20.6544 64.8132 20.3223C63.7489 20.8865 62.6847 21.4497 61.6214 22.0148H61.6224ZM7.8644 22.3751C7.61388 22.8412 7.36335 23.3072 7.1138 23.7733C8.52567 24.5307 9.94337 25.2803 11.3552 26.0387C11.5339 25.7066 11.7126 25.3755 11.8893 25.0424C11.2436 24.6968 10.5978 24.354 9.95211 24.0103C10.0424 23.8627 10.1444 23.6791 10.3376 23.6636C11.0144 23.7821 11.5281 24.319 12.2029 24.4501C12.402 24.1015 12.5816 23.7432 12.7778 23.3927C12.0359 23.3878 11.4999 22.7431 10.7979 22.5935C10.4299 22.5159 10.1512 22.8169 9.98318 23.1033C10.0376 22.9043 10.1016 22.6955 10.057 22.4877C10.0152 22.1954 9.77344 21.9905 9.53263 21.8497C9.25394 21.6837 8.91311 21.5614 8.59073 21.6672C8.25476 21.7779 8.03045 22.0799 7.8644 22.376V22.3751ZM65.8085 23.7384C65.9056 23.9869 66.0056 24.2346 66.1027 24.4831C64.8404 24.989 63.58 25.5017 62.3176 26.0076C62.4536 26.3572 62.5924 26.7048 62.7313 27.0534C63.9946 26.5465 65.256 26.0348 66.5202 25.5279C66.6135 25.7649 66.7086 26.0008 66.8038 26.2368C67.0329 26.1445 67.2621 26.0513 67.4922 25.961C67.164 25.1269 66.8271 24.2957 66.4979 23.4616C66.2668 23.5519 66.0367 23.6442 65.8075 23.7384H65.8085ZM6.8691 24.387C6.57973 25.1017 6.28551 25.8144 5.99421 26.5281C7.48085 27.1311 8.96749 27.7321 10.4541 28.3342C10.7493 27.6079 11.0503 26.8845 11.3416 26.1572C11.1125 26.0669 10.8843 25.9736 10.6561 25.8814C10.5027 26.2591 10.3473 26.6349 10.1929 27.0117C9.71324 26.8126 9.22772 26.63 8.75192 26.4203C8.90826 26.0591 9.05391 25.693 9.20248 25.3279C8.97234 25.2376 8.74318 25.1434 8.51499 25.0522C8.36545 25.4182 8.21591 25.7843 8.06638 26.1504C7.74788 26.0203 7.42841 25.8921 7.11089 25.762C7.25945 25.3959 7.4119 25.0308 7.5595 24.6647C7.33034 24.5715 7.10118 24.4773 6.87104 24.387H6.8691ZM29.696 25.1881C27.9423 30.2102 26.1731 35.2284 24.4243 40.2514C28.4608 43.1101 32.4955 45.9726 36.5301 48.8352C40.7706 46.3941 45.0071 43.9461 49.2457 41.5021C47.9494 36.0634 46.6598 30.6238 45.3635 25.1862C40.1413 25.1881 34.9191 25.1832 29.697 25.1881H29.696ZM63.0576 28.0118C63.2217 28.574 63.3634 29.1421 63.5421 29.6994C63.6674 30.0713 63.9218 30.4918 64.3675 30.4821C64.8938 30.4626 65.488 30.3966 65.8959 30.0267C66.126 29.8315 66.1153 29.5062 66.0444 29.2392C66.1979 29.4703 66.3484 29.7606 66.6542 29.8091C67.097 29.8781 67.5777 29.7499 67.9282 29.4693C68.2545 29.1955 68.2457 28.7177 68.1554 28.3381C68.0195 27.7836 67.8428 27.2389 67.701 26.6864C66.1512 27.1185 64.6044 27.568 63.0576 28.0118ZM6.11461 27.6389C5.75727 27.7613 5.55336 28.1138 5.44169 28.4536C5.27759 28.9828 5.12999 29.5178 4.97171 30.048C6.5137 30.4918 8.0557 30.9355 9.59866 31.3764C9.73363 30.9103 9.87054 30.4442 10.0075 29.9781C10.0978 29.6742 10.1152 29.3421 10.024 29.0362C9.9055 28.6585 9.56758 28.3837 9.19568 28.2749C8.48683 28.0681 7.77507 27.8681 7.06525 27.6613C6.7584 27.57 6.42243 27.5447 6.11364 27.6389H6.11461ZM67.2223 30.3733C66.5775 30.4995 65.9328 30.6248 65.287 30.7501C64.9491 30.819 64.5714 30.851 64.3092 31.0996C63.9849 31.4298 63.8946 31.9298 63.9791 32.3736C64.0519 32.8008 64.2257 33.2737 64.6423 33.4738C65.1171 33.7214 65.6609 33.5592 66.1532 33.465C66.8465 33.3194 67.5505 33.2174 68.236 33.0407C68.6963 32.9251 69.0177 32.4726 69.009 32.0036C69.0119 31.4531 68.8837 30.8103 68.3992 30.4791C68.0545 30.2364 67.6097 30.2908 67.2223 30.3743V30.3733ZM4.79499 30.921C4.68429 31.6832 4.57165 32.4445 4.46193 33.2067C6.05052 33.431 7.6401 33.6534 9.22967 33.8777C9.34328 33.1038 9.45397 32.3289 9.56855 31.555C9.32386 31.5201 9.07819 31.4861 8.83349 31.454C8.77523 31.856 8.71794 32.2571 8.65773 32.6591C8.14406 32.5872 7.63039 32.5154 7.11768 32.4425C7.17303 32.0512 7.23129 31.6609 7.28858 31.2705C7.04389 31.2336 6.79822 31.1996 6.55352 31.1666C6.49914 31.557 6.43894 31.9473 6.38262 32.3377C6.04179 32.2901 5.69998 32.2435 5.35915 32.193C5.4145 31.8017 5.47471 31.4103 5.52811 31.019C5.28341 30.9889 5.03969 30.952 4.79499 30.919V30.921ZM4.49203 33.6631C4.42114 34.4292 4.34929 35.1963 4.27937 35.9625C5.87865 36.1033 7.47696 36.2431 9.07624 36.3829C9.11217 36.0091 9.14616 35.6352 9.18014 35.2624C8.41692 35.1973 7.65369 35.1293 6.89046 35.0633C6.92736 34.67 6.96329 34.2778 7.00019 33.8845C6.76617 33.8622 6.53118 33.8418 6.29717 33.8204C6.2593 34.2137 6.22337 34.6079 6.18744 35.0012C5.83204 34.9691 5.47665 34.939 5.12222 34.907C5.15621 34.5127 5.19893 34.1195 5.22612 33.7243C4.98142 33.7058 4.73673 33.6845 4.49203 33.6631ZM64.3189 34.1098C64.382 34.8875 64.4481 35.6653 64.5102 36.4441C64.7559 36.4247 65.0015 36.4023 65.2482 36.3829C65.2191 35.977 65.1822 35.5711 65.1511 35.1672C66.5047 35.0487 67.8573 34.9303 69.2119 34.8118C69.1847 34.438 69.1507 34.0651 69.1216 33.6913C67.5204 33.8301 65.9201 33.9709 64.3189 34.1107V34.1098ZM4.20072 37.9249C4.32016 43.8607 6.14083 49.746 9.37629 54.7234C12.169 59.0435 16.0006 62.6848 20.4586 65.2521C25.0788 67.9263 30.3728 69.4149 35.7086 69.5527C40.5433 69.6926 45.4043 68.7371 49.8225 66.7688C53.3123 65.2191 56.5255 63.0518 59.2773 60.4058C62.1924 57.6073 64.5927 54.2709 66.3047 50.6102C68.1652 46.6465 69.2129 42.3022 69.3527 37.9249C67.7224 37.9288 66.091 37.9171 64.4617 37.9307C64.3432 40.869 63.7577 43.7898 62.7216 46.5436C61.265 50.4296 58.922 53.9796 55.9302 56.8548C54.0843 58.6017 52.0092 60.1058 49.7739 61.3156C45.4956 63.6441 40.5977 64.8375 35.7251 64.6579C30.2572 64.4908 24.8603 62.6343 20.447 59.4027C16.3619 56.4353 13.1109 52.3299 11.1785 47.6632C9.89288 44.5821 9.18888 41.2632 9.08984 37.9288C7.46046 37.9191 5.83107 37.9259 4.20072 37.9249ZM11.5893 40.1941C11.9019 42.7236 12.5904 45.2123 13.6624 47.5272C14.1411 46.1931 14.6528 44.8696 15.1238 43.5335C13.9362 42.4304 12.7739 41.3011 11.5893 40.1941ZM16.0201 44.2035C15.487 45.8231 14.9539 47.4428 14.413 49.0595C15.4025 50.8937 16.6211 52.6037 18.0291 54.1408C21.3782 57.8093 25.8284 60.4631 30.6593 61.6312C32.2119 60.6252 33.7646 59.6154 35.3163 58.6065C35.3454 55.7391 35.4037 52.8717 35.4163 50.0043C31.4205 47.1951 27.4384 44.3666 23.4406 41.5604C20.9674 42.445 18.4933 43.3227 16.0191 44.2044L16.0201 44.2035ZM36.9088 50.3451C36.9039 53.1416 36.8738 55.9382 36.8651 58.7347C38.1565 59.8319 39.4461 60.9311 40.7443 62.0216C43.404 61.5817 45.9947 60.7243 48.3834 59.4736C52.3112 57.4316 55.6836 54.3447 58.0908 50.6316C57.8645 49.0634 57.6324 47.4962 57.4091 45.928C55.0136 44.8356 52.6074 43.7655 50.207 42.6828C45.7733 45.2347 41.3415 47.7904 36.9088 50.3451ZM58.3102 44.9968C58.52 46.4028 58.7132 47.8127 58.9346 49.2168C60.0357 47.2631 60.8659 45.156 61.4088 42.981C60.3736 43.65 59.3424 44.3248 58.3102 44.9968ZM32.4935 62.008C34.7803 62.3867 37.1185 62.4546 39.4228 62.1983C38.375 61.3069 37.3321 60.4116 36.2834 59.5212C35.0192 60.3485 33.752 61.1729 32.4935 62.008Z" fill="white"/>
<path d="M33.0315 5.37261C33.2034 5.26482 33.4801 5.31046 33.4976 5.54642C33.6257 6.5019 33.7316 7.46223 33.8403 8.42062C33.8821 8.60608 33.7384 8.79058 33.5461 8.77892C33.383 8.79931 33.2771 8.64007 33.2694 8.49442C33.1538 7.58166 33.0548 6.666 32.9431 5.75227C32.9324 5.6241 32.8946 5.45126 33.0315 5.37261Z" fill="white"/>
<path d="M41.7106 5.48621C41.9068 5.51825 42.2175 5.54835 42.2117 5.81441C42.1951 6.10863 42.168 6.42421 42.0204 6.68638C41.8951 6.86116 41.6572 6.76697 41.4814 6.75435C41.5552 6.33099 41.6349 5.9086 41.7106 5.48621Z" fill="white"/>
<path d="M26.8798 6.77574C27.0498 6.67573 27.2391 6.79128 27.277 6.97091C27.5722 7.87881 27.8664 8.78768 28.148 9.70141C28.25 9.93348 27.9849 10.151 27.7674 10.0801C27.6256 10.0073 27.5906 9.84123 27.543 9.70529C27.2712 8.83526 26.9837 7.97106 26.7148 7.10103C26.6546 6.96412 26.741 6.81458 26.8798 6.77574Z" fill="white"/>
<path d="M46.0405 8.77213C46.3435 8.15844 46.6319 7.53797 46.9348 6.92429C46.7853 7.58749 46.6163 8.24778 46.46 8.91001C46.3192 8.86534 46.1794 8.8197 46.0405 8.77213Z" fill="white"/>
<path d="M41.0957 8.88088C41.1841 8.38857 41.2715 7.89627 41.3637 7.40494C41.5482 7.4496 41.8851 7.4564 41.8628 7.72634C41.8444 8.05552 41.7978 8.39246 41.6822 8.70318C41.589 8.93914 41.3016 8.9372 41.0957 8.88088Z" fill="white"/>
<path d="M52.3599 11.7007C52.7929 11.1851 53.2134 10.6579 53.6542 10.1481C53.36 10.7491 53.0396 11.3366 52.7308 11.9309C52.6065 11.8541 52.4832 11.7774 52.3599 11.6998V11.7007Z" fill="white"/>
<path d="M55.5273 15.5459C56.2644 14.6749 56.9994 13.802 57.7384 12.93C57.8355 13.0339 57.9831 13.1213 58.0006 13.2767C58.0054 13.4427 57.8947 13.5787 57.7986 13.7C57.3082 14.2788 56.8188 14.8575 56.3323 15.4372C56.2197 15.5683 56.0935 15.7013 55.9235 15.7518C55.7633 15.7518 55.6497 15.6304 55.5283 15.544L55.5273 15.5459Z" fill="white"/>
<path d="M15.9832 13.0524C16.1464 12.9485 16.2881 13.1329 16.3872 13.2407C16.9727 13.9496 17.5709 14.6497 18.1506 15.3634C18.3321 15.542 18.17 15.8217 17.9505 15.8586C17.7932 15.8528 17.6961 15.7139 17.6019 15.6071C17.0174 14.8924 16.4134 14.1943 15.8337 13.4757C15.6939 13.3233 15.8356 13.1291 15.9832 13.0514V13.0524Z" fill="white"/>
<path d="M10.1938 19.8271C10.7968 20.1349 11.3882 20.469 11.9864 20.7884C11.9058 20.9098 11.8261 21.0321 11.7455 21.1545C11.227 20.7127 10.7104 20.2699 10.1929 19.8271H10.1938Z" fill="white"/>
<path d="M8.23633 23.0956C8.32275 22.9567 8.39169 22.7441 8.59172 22.7528C8.88594 22.7887 9.16075 22.946 9.3802 23.1412C9.55692 23.3004 9.42681 23.5209 9.33262 23.683C8.96945 23.483 8.6024 23.2907 8.2373 23.0956H8.23633Z" fill="white"/>
<path d="M66.1191 28.305C66.5309 28.1866 66.9435 28.0701 67.3553 27.9516C67.4028 28.1409 67.5232 28.4196 67.2912 28.5362C67.0222 28.6653 66.7231 28.7673 66.4221 28.7624C66.2007 28.7391 66.1823 28.4711 66.1182 28.305H66.1191Z" fill="white"/>
<path d="M64.04 28.9003C64.5197 28.7643 64.9994 28.6226 65.481 28.4895C65.5121 28.6439 65.584 28.8012 65.5412 28.9624C65.417 29.1314 65.1888 29.1595 65.0052 29.2275C64.7741 29.2848 64.5324 29.3974 64.2935 29.3275C64.1294 29.245 64.0837 29.0615 64.04 28.9003Z" fill="white"/>
<path d="M5.97168 29.1285C6.01246 28.8954 6.17657 28.6342 6.45137 28.7109C7.15827 28.8799 7.85062 29.11 8.55364 29.3003C8.79348 29.3751 9.06149 29.4139 9.25472 29.5907C9.3693 29.7344 9.28385 29.9159 9.24404 30.0713C8.15455 29.7509 7.06214 29.4431 5.97168 29.1294V29.1285Z" fill="white"/>
<path d="M67.6107 31.4453C67.7748 31.4288 67.9671 31.3278 68.1166 31.4434C68.2661 31.6036 68.2496 31.924 67.9933 31.958C67.0397 32.1551 66.0823 32.3396 65.1249 32.5154C64.9443 32.5629 64.7724 32.4095 64.7792 32.2289C64.7491 32.0774 64.9044 31.9745 65.0346 31.9512C65.891 31.7754 66.7523 31.6191 67.6107 31.4463V31.4453Z" fill="white"/>
<path d="M34.0414 0.85739C40.9444 0.335956 47.9873 1.85171 54.0611 5.17549C58.857 7.77975 63.046 11.491 66.2154 15.9343C69.079 19.9359 71.1123 24.5297 72.1484 29.3421C73.233 34.337 73.2408 39.562 72.1698 44.5608C70.9637 50.2509 68.3556 55.6381 64.6404 60.1135C61.0787 64.4258 56.4993 67.8904 51.382 70.147C48.1611 71.5754 44.7276 72.524 41.2309 72.9629C36.401 73.5669 31.4497 73.1911 26.7694 71.8492C21.5579 70.3645 16.6892 67.6884 12.6429 64.084C8.30532 60.2359 4.91838 55.3274 2.85981 49.9062C1.76449 47.0349 1.03816 44.0238 0.702184 40.97C0.105974 35.5828 0.738112 30.0645 2.54519 24.955C4.1736 20.3243 6.75751 16.0324 10.0901 12.427C13.6411 8.57015 18.0428 5.50369 22.8892 3.50534C26.4354 2.03814 30.2156 1.14384 34.0424 0.858361L34.0414 0.85739ZM34.1317 2.15758C32.146 2.31197 30.1719 2.61881 28.2405 3.10626C22.8853 4.44334 17.8573 7.07188 13.7081 10.7132C9.44142 14.4399 6.10789 19.2251 4.09204 24.5181C2.50053 28.6624 1.71302 33.1145 1.79944 37.553C1.8645 43.5169 3.53467 49.4469 6.53805 54.5962C9.38025 59.4814 13.4304 63.6548 18.2282 66.6436C22.5852 69.3615 27.5452 71.1112 32.648 71.6987C35.9339 72.0803 39.2733 71.9997 42.5369 71.454C45.9326 70.8859 49.239 69.8013 52.321 68.2691C56.9732 65.9503 61.1 62.5799 64.2899 58.4725C68.5187 53.0649 71.0919 46.3843 71.5726 39.5358C71.6697 38.4211 71.6541 37.3015 71.6551 36.1838C71.5483 31.3064 70.3967 26.4582 68.308 22.0507C65.9717 17.1063 62.4537 12.7242 58.1258 9.38095C53.6591 5.91055 48.334 3.55778 42.7612 2.58677C39.9171 2.08572 37.0137 1.95949 34.1346 2.15855L34.1317 2.15758Z" fill="#CEAC29"/>
<path d="M35.3931 9.22269C35.4368 7.62051 35.4669 6.0164 35.5047 4.41228C36.0524 4.40937 36.601 4.43462 37.1497 4.4317C37.2642 5.56585 37.373 6.69999 37.4856 7.83414C37.7099 6.7097 37.9051 5.57944 38.1168 4.45209C38.6547 4.46375 39.1927 4.47151 39.7306 4.48025C39.6899 6.08534 39.6549 7.6914 39.6209 9.29745C39.2908 9.29163 38.9606 9.28969 38.6314 9.27512C38.6654 8.15069 38.6829 7.02625 38.712 5.90085C38.7169 5.69014 38.712 5.47943 38.6955 5.26969C38.4751 6.60775 38.1673 7.93124 37.9158 9.26347C37.5866 9.26638 37.2565 9.25376 36.9283 9.25182C36.7962 8.30022 36.6661 7.34766 36.534 6.39509C36.4826 5.99601 36.4088 5.59886 36.401 5.19492C36.3379 5.62896 36.3534 6.06883 36.3379 6.50482C36.3185 7.41466 36.2952 8.32547 36.2777 9.23628C35.9825 9.23628 35.6873 9.22948 35.3931 9.22171V9.22269Z" fill="#040000"/>
<path d="M32.9733 4.57151C33.422 4.50451 33.955 4.49578 34.3017 4.8366C34.5542 5.06285 34.6212 5.41144 34.661 5.73188C34.7513 6.49801 34.8416 7.26414 34.9319 8.03027C34.9834 8.41382 34.9173 8.83329 34.6629 9.13625C34.4435 9.40134 34.0958 9.50912 33.7696 9.56738C33.321 9.64603 32.8112 9.58486 32.4635 9.26734C32.2363 9.07799 32.1635 8.77309 32.1315 8.4915C32.0373 7.6739 31.9382 6.85631 31.844 6.03872C31.8091 5.72702 31.8246 5.38814 32.0101 5.12208C32.2188 4.79291 32.6005 4.62686 32.9733 4.56957V4.57151ZM33.0316 5.3726C32.8947 5.45125 32.9326 5.62409 32.9432 5.75227C33.0549 6.66599 33.1539 7.58166 33.2695 8.49441C33.2773 8.64006 33.3831 8.79931 33.5462 8.77892C33.7385 8.79057 33.8822 8.60511 33.8405 8.42061C33.7317 7.46222 33.6268 6.50189 33.4977 5.54641C33.4802 5.30948 33.2035 5.26385 33.0316 5.3726Z" fill="#040000"/>
<path d="M40.7183 4.63562C41.2737 4.72495 41.8301 4.82205 42.3836 4.92887C42.7642 5.0114 43.2022 5.19007 43.3235 5.59887C43.4245 6.03971 43.343 6.53492 43.0856 6.90876C42.9079 7.16802 42.5797 7.18842 42.2972 7.2224C42.5613 7.27678 42.8516 7.39913 42.9283 7.6846C43.0788 8.22449 42.8856 8.80127 42.6535 9.28969C42.4457 9.70334 41.9311 9.71888 41.533 9.66547C40.9736 9.58099 40.4192 9.47127 39.8628 9.37611C40.1463 7.7953 40.4415 6.2174 40.7192 4.63562H40.7183ZM41.7107 5.48623C41.6349 5.90862 41.5553 6.33101 41.4815 6.75437C41.6563 6.767 41.8942 6.86215 42.0204 6.6864C42.168 6.42423 42.1952 6.10865 42.2117 5.81443C42.2175 5.54837 41.9058 5.51827 41.7107 5.48623ZM41.096 8.88089C41.3019 8.93818 41.5893 8.93915 41.6825 8.7032C41.7971 8.39247 41.8447 8.05553 41.8631 7.72636C41.8854 7.45642 41.5485 7.44962 41.364 7.40495C41.2718 7.89628 41.1844 8.38859 41.096 8.88089Z" fill="#040000"/>
<path d="M28.728 5.52214C29.0941 5.43863 29.4602 5.35124 29.8263 5.26871C30.1263 6.5922 30.4234 7.91569 30.7235 9.23821C31.1197 9.14985 31.5158 9.05663 31.913 8.96633C31.9674 9.20714 32.0218 9.44795 32.0752 9.68876C31.3129 9.86452 30.5506 10.0422 29.7874 10.216C29.4349 8.65075 29.0815 7.08645 28.728 5.52214Z" fill="#040000"/>
<path d="M44.0552 5.23959C44.4233 5.31533 44.7893 5.40466 45.1554 5.49011C44.7864 7.05538 44.4165 8.61969 44.0484 10.184C43.6824 10.0995 43.3173 10.017 42.9531 9.92958C43.3192 8.36625 43.696 6.80389 44.0562 5.23862L44.0552 5.23959Z" fill="#040000"/>
<path d="M26.972 5.94746C27.3002 5.87949 27.6711 5.89114 27.9518 6.097C28.2198 6.27664 28.3402 6.59222 28.4382 6.88643C28.68 7.64868 28.9286 8.40801 29.1675 9.17123C29.319 9.65479 29.2228 10.2665 28.7771 10.5617C28.2654 10.9103 27.5507 11.0968 26.9788 10.7821C26.7088 10.6491 26.5671 10.3607 26.4816 10.0859C26.2301 9.28969 25.9728 8.4954 25.7203 7.69917C25.6174 7.37583 25.5863 7.00878 25.7543 6.70194C25.9883 6.25042 26.5001 6.04262 26.973 5.94552L26.972 5.94746ZM26.8798 6.77574C26.7409 6.81361 26.6545 6.96411 26.7147 7.10103C26.9837 7.97106 27.2711 8.83623 27.543 9.70529C27.5905 9.84123 27.6255 10.0082 27.7673 10.0801C27.9848 10.151 28.2499 9.93348 28.1479 9.7014C27.8673 8.78865 27.5731 7.87881 27.2769 6.97091C27.239 6.7903 27.0497 6.67475 26.8798 6.77574Z" fill="#040000"/>
<path d="M44.2554 10.2588C45.0128 8.8139 45.7731 7.36903 46.5295 5.92319C47.0179 6.08049 47.5054 6.24362 47.9948 6.39996C47.6909 7.99242 47.384 9.58488 47.0781 11.1783C46.7218 11.0608 46.3644 10.9472 46.009 10.8287C46.1003 10.4433 46.1906 10.0568 46.2819 9.67033C46.0867 9.60818 45.8916 9.5441 45.6973 9.47904C45.5148 9.83443 45.3371 10.1918 45.1613 10.5501C44.8574 10.4569 44.5564 10.3568 44.2554 10.2578V10.2588ZM46.0401 8.77214C46.179 8.81972 46.3188 8.86536 46.4596 8.91003C46.6169 8.24779 46.7849 7.58848 46.9344 6.9243C46.6315 7.53798 46.3421 8.15846 46.0401 8.77214Z" fill="#040000"/>
<path d="M49.1884 6.8942C49.6584 7.10102 50.1254 7.31173 50.5964 7.51953C50.3488 8.65561 50.0885 9.78879 49.8506 10.9268C50.3187 9.88977 50.7848 8.85079 51.2528 7.81375C51.5315 7.93901 51.815 8.05747 52.0889 8.19438C51.4227 9.65673 50.7663 11.1239 50.107 12.5902C49.6584 12.3911 49.2098 12.1911 48.7621 11.9901C49.0495 10.6909 49.3408 9.39164 49.6244 8.09048C49.0699 9.27124 48.5504 10.4675 48.0096 11.6551C47.7406 11.5347 47.4716 11.4162 47.2046 11.2948C47.8668 9.8286 48.5252 8.36043 49.1874 6.8942H49.1884Z" fill="#040000"/>
<path d="M23.5135 7.27093C23.8806 7.11946 24.3438 7.04857 24.6788 7.31269C25.0672 7.56806 25.1798 8.04192 25.3682 8.43615C25.0138 8.59248 24.6594 8.75076 24.3049 8.90806C24.1836 8.6488 24.0913 8.37498 23.9447 8.12834C23.7815 7.88364 23.3553 8.14582 23.5 8.40896C23.832 9.23141 24.2127 10.0344 24.5603 10.8511C24.6361 11.0045 24.6875 11.2065 24.871 11.2657C25.0225 11.2715 25.2196 11.1773 25.1963 10.9987C25.107 10.6539 24.9215 10.3423 24.7914 10.0131C25.1449 9.85286 25.5003 9.6975 25.8547 9.54019C26.0392 10.0053 26.3538 10.4675 26.2674 10.9909C26.1965 11.4356 25.8285 11.7628 25.4362 11.9435C25.0206 12.1512 24.4982 12.2484 24.0738 12.0085C23.6961 11.7959 23.5203 11.3725 23.3543 10.9948C23.0853 10.3724 22.8037 9.75576 22.5386 9.1314C22.3969 8.75367 22.3182 8.2837 22.5736 7.93608C22.7785 7.59331 23.1611 7.42047 23.5135 7.27093Z" fill="#040000"/>
<path d="M50.27 12.7135C51.3508 11.489 52.4383 10.2695 53.5239 9.04889C53.957 9.32272 54.392 9.59557 54.827 9.86551C54.1473 11.3415 53.4657 12.8145 52.783 14.2885C52.4655 14.0894 52.1499 13.8894 51.8314 13.6923C52.0091 13.3369 52.1995 12.9864 52.3742 12.629C52.2004 12.5212 52.0266 12.4125 51.8547 12.3037C51.5974 12.6077 51.3352 12.9067 51.0818 13.2126C50.806 13.0534 50.5419 12.8776 50.271 12.7125L50.27 12.7135ZM52.3597 11.7007C52.483 11.7774 52.6063 11.8541 52.7306 11.9318C53.0394 11.3376 53.3608 10.7501 53.6541 10.149C53.2132 10.6588 52.7927 11.1851 52.3597 11.7017V11.7007Z" fill="#040000"/>
<path d="M18.9484 9.87909C19.2018 9.70625 19.4504 9.52758 19.7038 9.35571C20.6156 10.6753 21.542 11.9842 22.445 13.3107C22.0362 13.5835 21.6391 13.8719 21.2332 14.1496C20.2641 13.2281 19.2873 12.3154 18.3191 11.3939C19.0562 12.4756 19.8106 13.5447 20.5564 14.6215C20.3156 14.7914 20.0728 14.9614 19.8301 15.1303C18.9173 13.8127 17.9997 12.4979 17.0859 11.1822C17.5132 10.8889 17.9288 10.5811 18.3638 10.2995C19.1931 11.087 20.0252 11.8716 20.8613 12.6513C20.2379 11.7172 19.5815 10.8064 18.9474 9.88103L18.9484 9.87909Z" fill="#040000"/>
<path d="M54.187 15.3381C55.2241 14.1059 56.264 12.8756 57.304 11.6463C57.6788 11.9629 58.0546 12.2775 58.4304 12.594C58.6702 12.8038 58.9198 13.0397 59.0082 13.3592C59.1043 13.7476 58.9227 14.1428 58.6858 14.4438C58.2129 15.0099 57.7332 15.5712 57.2593 16.1363C57.069 16.3674 56.8243 16.5703 56.5262 16.6403C56.1048 16.751 55.6591 16.5762 55.3357 16.3072C54.9522 15.9858 54.5696 15.6624 54.187 15.3391V15.3381ZM55.5261 15.5459C55.6474 15.6323 55.761 15.7547 55.9213 15.7537C56.0912 15.7032 56.2174 15.5702 56.3301 15.4391C56.8175 14.8594 57.3059 14.2797 57.7963 13.702C57.8924 13.5806 58.0031 13.4437 57.9983 13.2786C57.9798 13.1223 57.8332 13.0359 57.7361 12.932C56.9981 13.803 56.2631 14.6759 55.5251 15.5479L55.5261 15.5459Z" fill="#040000"/>
<path d="M16.0878 12.1202C16.4976 11.9862 16.9511 12.159 17.2181 12.4853C17.7862 13.1349 18.328 13.8088 18.8824 14.47C19.2145 14.8546 19.3602 15.4585 19.0679 15.9071C18.729 16.4266 18.1416 16.8694 17.491 16.8044C17.1307 16.7888 16.8705 16.5053 16.6598 16.2431C16.1655 15.6459 15.6674 15.0517 15.1712 14.4555C14.8808 14.1312 14.6954 13.6699 14.8566 13.2417C15.0644 12.7077 15.5586 12.3115 16.0869 12.1212L16.0878 12.1202ZM15.9839 13.0514C15.8363 13.1281 15.6936 13.3233 15.8344 13.4757C16.4141 14.1943 17.0181 14.8924 17.6026 15.6071C17.6968 15.7139 17.7939 15.8518 17.9512 15.8586C18.1707 15.8217 18.3328 15.542 18.1513 15.3634C17.5716 14.6497 16.9744 13.9496 16.3879 13.2407C16.2888 13.133 16.1471 12.9485 15.9839 13.0524V13.0514Z" fill="#040000"/>
<path d="M13.0923 14.8575C13.3545 14.5846 13.6176 14.3137 13.8827 14.0428C15.0285 15.1624 16.1802 16.2761 17.3308 17.3899C17.0735 17.6637 16.8055 17.9259 16.5491 18.2007C15.3888 17.0947 14.2488 15.9664 13.0923 14.8565V14.8575Z" fill="#040000"/>
<path d="M56.4819 17.4472C57.6413 16.3305 58.8037 15.2168 59.9631 14.1011C60.501 14.6526 61.037 15.2071 61.5623 15.7693C61.3779 15.9334 61.2021 16.1062 61.0263 16.2791C60.7544 15.9946 60.4797 15.713 60.2087 15.4275C59.9572 15.6644 59.7106 15.9062 59.4581 16.1431C59.731 16.4267 60.0058 16.7102 60.2777 16.9966C60.099 17.1695 59.9184 17.3413 59.7407 17.5152C59.464 17.2384 59.2115 16.9296 58.9144 16.6762C58.5327 17.019 58.1744 17.3889 57.7986 17.7404C58.0783 18.0337 58.3599 18.3269 58.6405 18.6211C58.4599 18.792 58.2803 18.9649 58.1006 19.1348C57.5627 18.5716 57.0209 18.0113 56.4819 17.4482V17.4472Z" fill="#040000"/>
<path d="M11.6846 16.2897C11.9371 15.9994 12.2954 15.7314 12.7032 15.7926C13.1839 15.8227 13.515 16.2062 13.8733 16.4791C13.6296 16.782 13.3839 17.0821 13.1382 17.3821C12.911 17.2093 12.7061 17.0083 12.4653 16.8549C12.2691 16.7296 12.0002 17.0151 12.1196 17.2064C12.2157 17.3588 12.3701 17.4598 12.5051 17.5744C13.1693 18.1036 13.816 18.6561 14.4889 19.1746C14.7035 19.3552 15.0579 19.0202 14.8589 18.8056C14.62 18.559 14.3297 18.3687 14.0733 18.1424C14.318 17.8424 14.5617 17.5414 14.8074 17.2413C15.1832 17.5695 15.6765 17.8366 15.8348 18.3425C15.9736 18.7639 15.7979 19.2135 15.5405 19.5485C15.2774 19.9009 14.9026 20.2214 14.4433 20.2398C14.0481 20.2719 13.6995 20.0398 13.4043 19.8058C12.8314 19.3368 12.2536 18.8746 11.6826 18.4027C11.3758 18.1317 11.0835 17.7472 11.1496 17.3132C11.1738 16.9122 11.437 16.5849 11.6846 16.2897Z" fill="#040000"/>
<path d="M59.1016 20.5059C60.4056 19.563 61.7088 18.6192 63.0129 17.6754C63.4663 18.2958 63.913 18.9212 64.3626 19.5446C64.1616 19.6912 63.9596 19.8378 63.7576 19.9815C63.5285 19.662 63.2974 19.3436 63.0682 19.0241C62.7788 19.2338 62.4895 19.4407 62.202 19.6523C62.4312 19.9718 62.6604 20.2903 62.8915 20.6088C62.7002 20.7486 62.5089 20.8875 62.3176 21.0263C62.0846 20.7078 61.8564 20.3874 61.6243 20.0689C60.9999 20.5175 60.3814 20.9719 59.756 21.4186C59.5385 21.1137 59.3162 20.8117 59.1006 20.5059H59.1016Z" fill="#040000"/>
<path d="M9.96831 18.6668C11.4258 19.364 12.8794 20.0689 14.3389 20.7593C14.1408 21.0807 13.9282 21.3944 13.7213 21.7109C13.3747 21.5216 13.0232 21.341 12.6765 21.1516C12.5629 21.3235 12.4503 21.4963 12.3386 21.6701C12.6357 21.9313 12.928 22.1984 13.23 22.4537C13.063 22.7256 12.8843 22.9926 12.7056 23.2568C11.5093 22.1605 10.3169 21.0594 9.11963 19.9631C9.40026 19.529 9.68477 19.0989 9.96733 18.6668H9.96831ZM10.1936 19.8271C10.7111 20.269 11.2277 20.7127 11.7463 21.1545C11.8259 21.0322 11.9065 20.9098 11.9871 20.7884C11.3889 20.469 10.7976 20.1359 10.1946 19.8271H10.1936Z" fill="#040000"/>
<path d="M61.6224 22.0148C62.6866 21.4507 63.7499 20.8865 64.8142 20.3224C64.988 20.6544 65.1618 20.9856 65.3375 21.3176C64.2568 21.8876 63.1789 22.4625 62.0992 23.0325C61.969 23.1082 61.8127 23.1762 61.7525 23.3247C61.7389 23.4743 61.8457 23.65 62.0059 23.6685C62.1409 23.6597 62.2642 23.5976 62.3837 23.5393C63.4576 22.9693 64.5306 22.3974 65.6075 21.8313C65.7832 22.1624 65.96 22.4926 66.128 22.8276C65.0734 23.384 64.0208 23.9442 62.9673 24.5026C62.6526 24.6628 62.2905 24.7958 61.9351 24.7055C61.5738 24.6191 61.3272 24.3113 61.1417 24.0103C60.9126 23.6228 60.7718 23.1373 60.9291 22.6975C61.0466 22.379 61.335 22.1692 61.6234 22.0148H61.6224Z" fill="#040000"/>
<path d="M7.86437 22.376C8.03139 22.0799 8.25473 21.7789 8.5907 21.6672C8.91308 21.5614 9.25391 21.6837 9.5326 21.8498C9.77341 21.9906 10.0152 22.1964 10.057 22.4877C10.1016 22.6955 10.0375 22.9043 9.98315 23.1033C10.1511 22.8159 10.4298 22.5159 10.7978 22.5936C11.4999 22.7431 12.0359 23.3878 12.7778 23.3927C12.5826 23.7432 12.402 24.1015 12.2029 24.4501C11.5271 24.319 11.0144 23.7821 10.3376 23.6636C10.1443 23.6791 10.0424 23.8627 9.95208 24.0103C10.5978 24.354 11.2445 24.6977 11.8893 25.0425C11.7126 25.3745 11.5339 25.7057 11.3552 26.0387C9.94237 25.2804 8.52564 24.5317 7.11377 23.7733C7.36235 23.3073 7.61385 22.8412 7.86437 22.3751V22.376ZM8.23628 23.0956C8.60138 23.2907 8.9694 23.483 9.33159 23.683C9.42578 23.5209 9.5559 23.3005 9.37917 23.1412C9.15972 22.946 8.88492 22.7878 8.5907 22.7528C8.39067 22.7441 8.32173 22.9577 8.23531 23.0956H8.23628Z" fill="#040000"/>
<path d="M65.8082 23.7394C66.0374 23.6461 66.2675 23.5529 66.4986 23.4626C66.8278 24.2967 67.1657 25.1279 67.493 25.962C67.2628 26.0513 67.0337 26.1455 66.8045 26.2378C66.7093 26.0008 66.6142 25.7649 66.521 25.5289C65.2567 26.0358 63.9953 26.5475 62.732 27.0544C62.5932 26.7058 62.4533 26.3582 62.3184 26.0086C63.5807 25.5027 64.8411 24.99 66.1034 24.4841C66.0063 24.2355 65.9053 23.9879 65.8092 23.7394H65.8082Z" fill="#040000"/>
<path d="M6.86902 24.388C7.09916 24.4783 7.32832 24.5725 7.55748 24.6657C7.40989 25.0318 7.25744 25.3969 7.10887 25.7629C7.42736 25.893 7.74586 26.0212 8.06436 26.1513C8.2139 25.7853 8.36441 25.4192 8.51297 25.0531C8.74213 25.1454 8.9713 25.2386 9.20046 25.3289C9.05189 25.693 8.90721 26.0591 8.7499 26.4213C9.22571 26.631 9.71219 26.8136 10.1909 27.0126C10.3443 26.6349 10.5007 26.2591 10.6541 25.8824C10.8823 25.9756 11.1105 26.0678 11.3396 26.1581C11.0483 26.8854 10.7473 27.6088 10.4521 28.3351C8.96547 27.7331 7.47786 27.133 5.99219 26.5291C6.2835 25.8154 6.57772 25.1026 6.86708 24.388H6.86902Z" fill="#040000"/>
<path d="M63.0576 28.0128C64.6045 27.569 66.1513 27.1194 67.7011 26.6873C67.8428 27.2408 68.0196 27.7846 68.1555 28.339C68.2458 28.7187 68.2555 29.1964 67.9283 29.4703C67.5777 29.7509 67.0971 29.8791 66.6543 29.8101C66.3494 29.7616 66.1989 29.4712 66.0445 29.2401C66.1164 29.5072 66.127 29.8325 65.8959 30.0276C65.4881 30.3976 64.8938 30.4626 64.3675 30.483C63.9218 30.4918 63.6664 30.0723 63.5422 29.7004C63.3635 29.143 63.2207 28.575 63.0576 28.0128ZM66.1193 28.3041C66.1834 28.4701 66.2018 28.7381 66.4232 28.7614C66.7232 28.7673 67.0223 28.6643 67.2923 28.5352C67.5243 28.4187 67.4039 28.14 67.3564 27.9506C66.9437 28.0681 66.532 28.1856 66.1202 28.3041H66.1193ZM64.0403 28.9003C64.084 29.0605 64.1296 29.245 64.2937 29.3275C64.5336 29.3974 64.7744 29.2848 65.0055 29.2275C65.189 29.1586 65.4172 29.1304 65.5415 28.9624C65.5842 28.8022 65.5124 28.6449 65.4813 28.4895C64.9997 28.6226 64.52 28.7643 64.0403 28.9003Z" fill="#040000"/>
<path d="M6.11556 27.6399C6.42338 27.5457 6.76032 27.571 7.06717 27.6622C7.77602 27.8681 8.48778 28.0681 9.1976 28.2759C9.5695 28.3837 9.90742 28.6595 10.0259 29.0372C10.1172 29.3431 10.0997 29.6761 10.0094 29.9791C9.87246 30.4452 9.73555 30.9112 9.60057 31.3773C8.05858 30.9365 6.51659 30.4927 4.97363 30.049C5.13191 29.5188 5.27854 28.9838 5.44361 28.4546C5.55431 28.1147 5.75822 27.7622 6.11653 27.6399H6.11556ZM5.97185 29.1275C7.06231 29.4421 8.15472 29.7489 9.24421 30.0694C9.28402 29.915 9.3685 29.7334 9.25489 29.5887C9.06263 29.411 8.79365 29.3722 8.55381 29.2984C7.85176 29.1081 7.15844 28.8779 6.45154 28.709C6.17576 28.6332 6.01263 28.8944 5.97185 29.1265V29.1275Z" fill="#040000"/>
<path d="M67.2223 30.3753C67.6097 30.2918 68.0545 30.2374 68.3992 30.4801C68.8847 30.8122 69.0119 31.4541 69.009 32.0046C69.0177 32.4746 68.6963 32.9261 68.236 33.0417C67.5505 33.2194 66.8465 33.3203 66.1532 33.466C65.6599 33.5602 65.1171 33.7223 64.6423 33.4747C64.2257 33.2747 64.0529 32.8009 63.9791 32.3746C63.8946 31.9308 63.9849 31.4308 64.3092 31.1006C64.5714 30.852 64.9491 30.82 65.287 30.751C65.9318 30.6258 66.5766 30.5005 67.2223 30.3743V30.3753ZM67.6107 31.4453C66.7523 31.6182 65.892 31.7745 65.0346 31.9502C64.9044 31.9735 64.7491 32.0765 64.7792 32.228C64.7724 32.4095 64.9443 32.563 65.1249 32.5144C66.0833 32.3377 67.0397 32.1532 67.9933 31.957C68.2496 31.9231 68.2661 31.6036 68.1166 31.4424C67.9671 31.3278 67.7748 31.4278 67.6107 31.4443V31.4453Z" fill="#040000"/>
<path d="M4.79595 30.9229C5.04065 30.9559 5.28438 30.9919 5.52908 31.0229C5.47567 31.4152 5.41547 31.8056 5.36012 32.1969C5.70095 32.2474 6.04275 32.294 6.38358 32.3416C6.4399 31.9512 6.49913 31.5609 6.55448 31.1705C6.79918 31.2035 7.04485 31.2375 7.28955 31.2744C7.23226 31.6648 7.17497 32.0551 7.11865 32.4464C7.63135 32.5183 8.14502 32.5911 8.6587 32.663C8.7189 32.261 8.77619 31.8599 8.83445 31.4579C9.07915 31.49 9.32482 31.524 9.56952 31.5589C9.45494 32.3328 9.34424 33.1077 9.23063 33.8816C7.64106 33.6573 6.05246 33.4349 4.46289 33.2106C4.57262 32.4484 4.68526 31.6861 4.79595 30.9249V30.9229Z" fill="#040000"/>
<path d="M4.49293 33.665C4.73763 33.6864 4.98233 33.7078 5.22702 33.7262C5.19984 34.1214 5.15711 34.5147 5.12312 34.9089C5.47755 34.941 5.83295 34.9711 6.18834 35.0031C6.22427 34.6098 6.2602 34.2156 6.29807 33.8223C6.53208 33.8437 6.76707 33.8641 7.00109 33.8864C6.96419 34.2787 6.92923 34.672 6.89136 35.0652C7.65459 35.1313 8.41782 35.1992 9.18105 35.2643C9.14706 35.6381 9.1121 36.012 9.07715 36.3848C7.47786 36.246 5.87955 36.1052 4.28027 35.9644C4.35019 35.1983 4.42301 34.4312 4.49293 33.665Z" fill="#040000"/>
<path d="M64.3198 34.1117C65.921 33.9729 67.5213 33.8311 69.1225 33.6922C69.1517 34.0661 69.1847 34.4389 69.2128 34.8128C67.8592 34.9303 66.5066 35.0497 65.152 35.1682C65.1831 35.5731 65.2209 35.979 65.2491 36.3839C65.0025 36.4033 64.7568 36.4256 64.5111 36.4451C64.4499 35.6663 64.3829 34.8885 64.3198 34.1107V34.1117Z" fill="#040000"/>
<path d="M30.7372 12.3522C36.5634 10.8792 42.9149 11.556 48.2701 14.2933C48.6517 15.8518 49.0566 17.4044 49.4295 18.9649C48.273 20.6602 47.1379 22.3712 45.9979 24.0772C40.6291 24.0908 35.2583 24.0792 29.8895 24.0831C28.6213 22.0498 27.3619 20.0116 26.0957 17.9773C26.6773 16.4121 27.2503 14.8419 27.8455 13.2835C28.7757 12.8863 29.7584 12.6096 30.7372 12.3522Z" fill="#C0181F"/>
<path d="M20.9111 17.2733C22.6648 15.8469 24.6127 14.6613 26.679 13.7476C26.2294 14.9245 25.7867 16.1062 25.3206 17.2772C23.8504 17.2685 22.3813 17.2772 20.9111 17.2733Z" fill="#C0181F"/>
<path d="M50.0703 15.2944C51.6803 16.2781 53.1776 17.4452 54.5264 18.7639C53.3407 18.7658 52.1541 18.7658 50.9685 18.7639C50.6733 17.6054 50.3636 16.4519 50.0693 15.2935L50.0703 15.2944Z" fill="#C0181F"/>
<path d="M19.545 18.4551C19.614 18.4007 19.6781 18.3094 19.7791 18.3211C21.4764 18.3172 23.1728 18.3211 24.8702 18.3191C26.0703 20.4117 27.2676 22.5052 28.4678 24.5967C28.5338 24.6793 28.53 24.7832 28.4911 24.8764C26.7501 29.9334 25.0071 34.9914 23.266 40.0494C20.8122 40.8466 18.3565 41.6409 15.8998 42.4304C14.6821 41.2846 13.4606 40.1427 12.24 38.9988C11.9759 38.7337 11.6739 38.5016 11.4311 38.2181C11.1913 33.2951 12.4556 28.3177 14.9909 24.0928C16.2319 22.0109 17.7749 20.1116 19.5441 18.456L19.545 18.4551Z" fill="#C0181F"/>
<path d="M50.2372 19.7591C51.9297 19.7514 53.6231 19.7591 55.3156 19.7553C55.5691 19.7116 55.6739 19.9912 55.8322 20.1339C59.5668 24.3336 61.8322 29.8111 62.1225 35.4264C62.2274 37.4636 62.1099 39.5154 61.7273 41.5215C60.3727 42.3935 59.024 43.2732 57.6713 44.15C55.271 43.1606 52.8725 42.1672 50.4721 41.1797C49.1234 35.9294 47.7921 30.6762 46.4414 25.426C47.7047 23.5364 48.9777 21.6536 50.2372 19.7611V19.7591Z" fill="#C0181F"/>
<path d="M29.696 25.189C34.9182 25.1832 40.1404 25.189 45.3626 25.1871C46.6589 30.6248 47.9494 36.0654 49.2447 41.503C45.0062 43.9471 40.7696 46.395 36.5291 48.8361C32.4945 45.9746 28.4609 43.111 24.4233 40.2524C26.1722 35.2284 27.9414 30.2111 29.695 25.189H29.696Z" fill="#C0181F"/>
<path d="M64.4616 37.9307C66.092 37.9171 67.7223 37.9288 69.3527 37.9249C69.2128 42.3022 68.1651 46.6465 66.3046 50.6102C64.5927 54.2709 62.1923 57.6073 59.2773 60.4058C58.5374 59.6377 57.8101 58.858 57.0711 58.0889C56.6944 57.6743 56.2817 57.2917 55.9302 56.8558C58.9219 53.9806 61.265 50.4306 62.7215 46.5446C63.7576 43.7908 64.3431 40.87 64.4616 37.9317V37.9307Z" fill="#C0181F"/>
<path d="M11.5894 40.1941C12.774 41.3001 13.9373 42.4294 15.1239 43.5334C14.6529 44.8705 14.1412 46.193 13.6625 47.5272C12.5905 45.2123 11.902 42.7236 11.5894 40.1941Z" fill="#C0181F"/>
<path d="M16.0201 44.2044C18.4943 43.3228 20.9685 42.445 23.4417 41.5604C27.4394 44.3676 31.4216 47.1952 35.4174 50.0043C35.4047 52.8717 35.3455 55.7391 35.3174 58.6065C33.7657 59.6154 32.213 60.6253 30.6603 61.6312C25.8285 60.4641 21.3792 57.8093 18.0302 54.1408C16.6222 52.6047 15.4045 50.8937 14.4141 49.0595C14.9549 47.4428 15.488 45.8231 16.0211 44.2035L16.0201 44.2044Z" fill="#C0181F"/>
<path d="M36.9089 50.3451C41.3417 47.7904 45.7734 45.2356 50.2071 42.6828C52.6075 43.7645 55.0137 44.8346 57.4092 45.928C57.6326 47.4961 57.8647 49.0634 58.0909 50.6315C55.6837 54.3447 52.3114 57.4316 48.3836 59.4736C45.9948 60.7243 43.4041 61.5817 40.7445 62.0215C39.4462 60.9321 38.1567 59.8319 36.8652 58.7347C36.874 55.9381 36.9041 53.1416 36.9089 50.3451Z" fill="#C0181F"/>
<path d="M58.3096 44.9968C59.3418 44.3248 60.373 43.65 61.4081 42.981C60.8643 45.156 60.0341 47.2631 58.9339 49.2168C58.7125 47.8117 58.5203 46.4028 58.3096 44.9968Z" fill="#C0181F"/>
<path d="M32.4937 62.008C33.7531 61.1729 35.0193 60.3485 36.2836 59.5212C37.3313 60.4116 38.3742 61.3069 39.4229 62.1983C37.1187 62.4546 34.7804 62.3866 32.4937 62.008Z" fill="#C0181F"/>
<path d="M4.20068 37.9249C5.83104 37.9249 7.46042 37.9191 9.0898 37.9288C9.18982 41.2642 9.89381 44.5822 11.1785 47.6632C13.1108 52.3289 16.3618 56.4344 20.4469 59.4027C24.8602 62.6343 30.2572 64.4909 35.7251 64.6579C35.7251 66.2892 35.7047 67.9214 35.7086 69.5528C30.3737 69.4139 25.0787 67.9263 20.4586 65.2521C15.9996 62.6857 12.1689 59.0435 9.37626 54.7234C6.14177 49.747 4.32012 43.8607 4.20068 37.9249Z" fill="#F0C933"/>
<path d="M49.7738 61.3166C52.0091 60.1067 54.0842 58.6026 55.9301 56.8558C56.2826 57.2908 56.6953 57.6743 57.0711 58.089C57.81 58.858 58.5373 59.6377 59.2773 60.4058C56.5254 63.0528 53.3122 65.2201 49.8224 66.7689C45.4042 68.7371 40.5423 69.6935 35.7085 69.5527C35.7046 67.9214 35.725 66.2901 35.725 64.6579C40.5976 64.8375 45.4955 63.6441 49.7738 61.3156V61.3166Z" fill="#1F274E"/>
</svg>
