<svg width="66" height="66" viewBox="0 0 66 66" fill="none" xmlns="http://www.w3.org/2000/svg">
<path d="M56.93 55.51C57.11 55.31 57.3 55.12 57.48 54.92C57.62 54.76 57.75 54.61 57.89 54.45C58.11 54.2 58.33 53.94 58.54 53.68C58.62 53.59 58.69 53.5 58.76 53.4C62.43 48.77 64.88 43.15 65.63 36.99C65.64 36.91 65.65 36.81 65.67 36.73C65.71 36.38 65.74 36.01 65.78 35.65C65.79 35.44 65.82 35.23 65.83 35.02C65.84 34.74 65.86 34.46 65.87 34.18C65.88 33.9 65.89 33.61 65.89 33.32C65.89 33.19 65.89 33.07 65.89 32.94C65.89 32.82 65.89 32.7 65.89 32.58C65.89 32.28 65.88 31.99 65.87 31.69C65.87 31.43 65.85 31.17 65.83 30.91C65.82 30.66 65.79 30.42 65.77 30.17C65.74 29.84 65.71 29.52 65.68 29.19C65.67 29.06 65.64 28.91 65.63 28.78C63.57 12.56 49.73 0 32.94 0C14.75 0 0 14.75 0 32.95C0 48.69 11.04 61.85 25.81 65.11C25.91 65.13 26 65.16 26.1 65.17C26.73 65.3 27.37 65.42 28.01 65.52C28.41 65.58 28.8 65.63 29.2 65.67C29.39 65.69 29.58 65.71 29.77 65.73C30.85 65.84 31.93 65.91 33.02 65.91C35.19 65.91 37.39 65.67 39.57 65.22H39.58C40.02 65.13 40.45 65.03 40.89 64.92C41.18 64.85 41.46 64.77 41.75 64.69C41.9 64.65 42.04 64.61 42.19 64.56C45.09 63.71 47.82 62.48 50.33 60.91C50.41 60.85 50.5 60.8 50.58 60.75C50.92 60.53 51.26 60.31 51.6 60.08C51.76 59.97 51.92 59.85 52.08 59.74C52.33 59.56 52.58 59.38 52.83 59.19C53.04 59.03 53.25 58.86 53.46 58.69C53.65 58.53 53.85 58.39 54.03 58.22C54.26 58.03 54.49 57.83 54.71 57.63C54.87 57.48 55.04 57.34 55.21 57.19C55.43 56.98 55.65 56.77 55.87 56.57C56.03 56.41 56.2 56.25 56.36 56.1C56.54 55.92 56.73 55.73 56.91 55.53L56.93 55.51ZM30.8 31.5L17.32 37.42C15.41 32.5 14.54 27.53 14.71 22.8C18.29 21.97 21.84 20.82 25.44 19.26L30.81 31.5H30.8ZM27.96 18.08C31.09 16.56 34.29 14.69 37.58 12.4C41.29 15.52 44.45 19.61 46.83 24.47L33.36 30.38L27.96 18.08ZM31.92 34.05L38.17 48.3C34.74 49.84 31.61 51.59 28.69 53.56C24.51 50.1 20.98 45.44 18.42 39.97L31.92 34.05ZM34.48 32.93L47.98 27.01C50.32 32.71 51.32 38.59 50.98 44.11C47.25 44.97 43.86 46.01 40.75 47.24L34.48 32.93ZM39.91 10.77C41.89 9.3 43.9 7.7 45.97 5.89C51.62 8.59 56.4 13.06 59.51 18.91L49.39 23.35C46.94 18.33 43.7 14.09 39.92 10.77H39.91ZM37.71 8.9C34.27 6.35 30.45 4.59 26.45 3.63C28.61 3.15 30.79 2.89 32.95 2.89C36.41 2.89 39.8 3.56 43.02 4.7C41.22 6.24 39.45 7.64 37.72 8.9H37.71ZM35.24 10.63C32.37 12.56 29.58 14.18 26.84 15.51L22.53 5.69C27.05 6.18 31.36 7.94 35.24 10.63ZM24.31 16.69C21.17 18.04 18.07 19.05 14.96 19.82C15.57 15.02 17.21 10.55 19.98 6.81L24.32 16.69H24.31ZM12.05 20.47C9.78 20.93 7.49 21.3 5.17 21.57C7.33 16.31 10.96 11.64 15.82 8.27C13.77 11.96 12.47 16.08 12.05 20.46V20.47ZM11.93 23.34C11.85 28.28 12.79 33.44 14.78 38.53L4.61 42.99C2.45 36.85 2.39 30.41 4.13 24.51C4.18 24.51 4.23 24.51 4.28 24.51C6.88 24.23 9.41 23.82 11.93 23.34ZM15.88 41.09C18.5 46.71 22.14 51.5 26.41 55.18C24.26 56.75 22.16 58.41 20.11 60.2C13.92 57.27 8.7 52.25 5.64 45.59L15.87 41.1L15.88 41.09ZM28.65 57C32.09 59.53 35.86 61.34 39.79 62.34C34.12 63.66 28.32 63.25 23.04 61.39C24.87 59.84 26.73 58.37 28.66 57H28.65ZM31.12 55.34C33.66 53.69 36.36 52.18 39.31 50.86L42.96 59.18L43.44 60.28C39.11 59.7 34.93 57.95 31.12 55.33V55.34ZM41.89 49.81C44.59 48.75 47.49 47.82 50.67 47.05C50 51.52 48.45 55.68 45.99 59.18L41.88 49.81H41.89ZM53.54 46.41C55.71 45.96 58.02 45.58 60.46 45.27C58.24 50.26 54.67 54.67 49.98 57.88C51.85 54.41 53.04 50.53 53.54 46.41ZM53.76 43.51C53.99 37.77 52.94 31.75 50.53 25.91L60.77 21.42C63.65 28.31 63.76 35.68 61.61 42.3C58.83 42.61 56.23 43.03 53.77 43.51H53.76Z" fill="#FEEB1D"/>
</svg>
